<svg width="37" height="38" viewBox="0 0 37 38" fill="none" xmlns="http://www.w3.org/2000/svg">
    <path d="M13.5502 24.5901H11.9502V16.0141L10.2222 17.8221L9.27823 16.8461L12.1422 13.9181H13.5502V24.5901ZM15.4922 21.8701C15.4922 20.4781 16.6442 19.5021 17.9562 19.0861C16.7402 18.7181 15.6682 17.9181 15.6682 16.5421C15.6682 14.6061 17.6042 13.7581 19.4602 13.7581C21.2682 13.7581 23.2362 14.6061 23.2362 16.5421C23.2362 17.9181 22.1482 18.7181 20.9322 19.0861C22.2442 19.5021 23.3962 20.4781 23.3962 21.8701C23.3962 23.7261 21.5882 24.7821 19.4602 24.7821C17.3002 24.7821 15.4922 23.7421 15.4922 21.8701ZM21.6202 16.7821C21.6202 15.7741 20.6602 15.1821 19.4602 15.1821C18.2122 15.1821 17.2842 15.7741 17.2842 16.7821C17.2842 17.9181 18.8042 18.3341 19.4602 18.4461C20.1162 18.3341 21.6202 17.9181 21.6202 16.7821ZM21.7962 21.6781C21.7962 20.4301 20.1002 19.8861 19.4602 19.8061C18.7882 19.8861 17.1082 20.4301 17.1082 21.6781C17.1082 22.7181 18.1802 23.3581 19.4602 23.3581C20.6922 23.3581 21.7962 22.7181 21.7962 21.6781Z" fill="#ACCCAC"/>
    <path d="M34.4353 10.3976H32.1397V13.0009H31.024V10.3976H28.7157V9.3845H31.024V6.88377H32.1397V9.3845H34.4353V10.3976Z" fill="#ACCCAC"/>
    <path d="M36.875 19.0903C36.875 23.0569 35.5921 26.9172 33.2178 30.0948C30.8435 33.2723 27.5052 35.5968 23.7013 36.7211C19.8973 37.8454 15.8318 37.7093 12.1115 36.333C8.39132 34.9568 5.21597 32.4143 3.05956 29.085C0.903141 25.7557 -0.118679 21.8183 0.146642 17.8606C0.411964 13.9028 1.9502 10.1371 4.5317 7.12542C7.1132 4.11378 10.5995 2.01783 14.4701 1.15047C18.3408 0.283116 22.3881 0.690872 26.008 2.31287L24.7168 5.19437C21.7187 3.85095 18.3664 3.51322 15.1606 4.23161C11.9547 4.95 9.06718 6.68598 6.92905 9.18037C4.79092 11.6748 3.51687 14.7938 3.29712 18.0718C3.07737 21.3498 3.92369 24.611 5.70975 27.3684C7.4958 30.1259 10.1258 32.2318 13.2071 33.3716C16.2883 34.5115 19.6557 34.6242 22.8063 33.693C25.9569 32.7618 28.7219 30.8366 30.6884 28.2048C32.6549 25.5729 33.7174 22.3757 33.7174 19.0903H36.875Z" fill="#ACCCAC"/>
</svg>