<?xml version="1.0" encoding="UTF-8"?>
<svg id="Layer_1" data-name="Layer 1" xmlns="http://www.w3.org/2000/svg" version="1.1" viewBox="0 0 2547.3 1563.9">
  <defs>
    <style>
      .cls-1 {
        fill: #fff;
        stroke-width: 0px;
      }
    </style>
  </defs>
  <path class="cls-1" d="M1042.6,482.8l-251.4,599.7h-164l-123.7-478.6c-7.5-29.5-14-40.3-36.9-52.7-37.3-20.2-98.9-39.2-153-51l3.7-17.4h264c33.6,0,63.9,22.4,71.5,61.2l65.3,347,161.5-408.2h163ZM1685.1,886.8c.7-158.3-218.9-167-217.4-237.7.5-21.5,21-44.4,65.8-50.2,22.2-2.9,83.5-5.1,152.9,26.8l27.2-127.2c-37.3-13.5-85.4-26.6-145.1-26.6-153.3,0-261.3,81.5-262.2,198.2-1,86.3,77,134.5,135.8,163.2,60.5,29.4,80.8,48.3,80.5,74.5-.4,40.2-48.2,58-92.9,58.7-78,1.2-123.2-21.1-159.3-37.9l-28.1,131.4c36.2,16.6,103.2,31.1,172.5,31.9,163,0,269.6-80.5,270.1-205.2M2090.1,1082.6h143.5l-125.2-599.7h-132.4c-29.8,0-54.9,17.3-66,44l-232.8,555.7h162.9l32.3-89.6h199.1l18.7,89.6h-.1ZM1917,870.1l81.7-225.2,47,225.2h-128.7ZM1264.2,482.8l-128.3,599.7h-155.1l128.3-599.7h155.1Z"/>
</svg>