<?xml version="1.0" encoding="UTF-8"?>
<!DOCTYPE svg PUBLIC "-//W3C//DTD SVG 1.1//EN" "http://www.w3.org/Graphics/SVG/1.1/DTD/svg11.dtd">
<svg class="h-0 opacity-0 pointer-events-none w-0" fill="none" xmlns="http://www.w3.org/2000/svg">
  <symbol fill="none" id="gameHistory" viewBox="0 0 20 20"> <path d="M10 19C7.7 19 5.69583 18.2375 3.9875 16.7125C2.27917 15.1875 1.3 13.2833 1.05 11H3.1C3.33333 12.7333 4.10417 14.1667 5.4125 15.3C6.72083 16.4333 8.25 17 10 17C11.95 17 13.6042 16.3208 14.9625 14.9625C16.3208 13.6042 17 11.95 17 10C17 8.05 16.3208 6.39583 14.9625 5.0375C13.6042 3.67917 11.95 3 10 3C8.85 3 7.775 3.26667 6.775 3.8C5.775 4.33333 4.93333 5.06667 4.25 6H7V8H1V2H3V4.35C3.85 3.28333 4.8875 2.45833 6.1125 1.875C7.3375 1.29167 8.63333 1 10 1C11.25 1 12.4208 1.2375 13.5125 1.7125C14.6042 2.1875 15.5542 2.82917 16.3625 3.6375C17.1708 4.44583 17.8125 5.39583 18.2875 6.4875C18.7625 7.57917 19 8.75 19 10C19 11.25 18.7625 12.4208 18.2875 13.5125C17.8125 14.6042 17.1708 15.5542 16.3625 16.3625C15.5542 17.1708 14.6042 17.8125 13.5125 18.2875C12.4208 18.7625 11.25 19 10 19ZM12.8 14.2L9 10.4V5H11V9.6L14.2 12.8L12.8 14.2Z" fill="currentColor"/> </symbol>
  <symbol fill="none" id="transaction" viewBox="0 0 20 20"> <path d="M12.9456 13.3348V11.2506C12.9456 10.076 13.9122 9.10938 15.0868 9.10938H17.8912V7.57435C17.8912 6.72172 17.1903 6.02082 16.3377 6.02082V5.13045C16.3377 4.01287 15.4281 3.10328 14.3105 3.10328H11.9984L10.4826 0.999756L7.54578 3.10328H3.03613C1.95629 3.10328 1.066 3.95591 1.02734 5.01734V5.14982V17.162C1.02734 18.1664 1.84223 18.9998 2.86508 18.9998H16.0528C17.0571 18.9998 17.8905 18.1849 17.8905 17.162V15.476L15.0861 15.4753C13.9115 15.4753 12.9456 14.5279 12.9456 13.3348ZM14.3097 4.24012C14.8026 4.24012 15.2 4.63832 15.2 5.13049V6.02086H14.0824L12.8131 4.24012H14.3097ZM12.6799 6.02086H5.42289L10.2167 2.57265L12.6799 6.02086ZM3.0361 4.24012H5.97292L3.49045 6.02086H3.03602C2.54309 6.02086 2.14565 5.62267 2.14565 5.13049C2.14565 4.63756 2.54318 4.24012 3.0361 4.24012Z" fill="currentColor"/> <path d="M18.5159 9.92529H15.0861C14.3474 9.92529 13.7598 10.513 13.7598 11.2516V13.3358C13.7598 14.0744 14.3474 14.6621 15.0861 14.6621H18.5159C18.7624 14.6621 18.9703 14.4534 18.9703 14.2077V10.3798C18.9703 10.1148 18.7624 9.92529 18.5159 9.92529ZM15.8063 13.2788C15.2756 13.2788 14.8212 12.8428 14.8212 12.3122C14.8212 11.7815 15.2571 11.3271 15.8063 11.3271C16.3369 11.3271 16.7729 11.763 16.7729 12.3122C16.7914 12.8428 16.3562 13.2788 15.8063 13.2788Z" fill="currentColor"/> </symbol>
  <symbol fill="none" id="desktop-monitor" viewBox="0 0 24 25"> <path fill-rule="evenodd" clip-rule="evenodd" d="M20.1635 2.5H3.83586C2.10047 2.5 0.695312 3.90007 0.695312 5.6254V14.4987C0.695312 16.1809 2.07479 17.5002 3.83586 17.5002H20.1635C21.8988 17.5002 23.304 16.101 23.304 14.3748V5.6254C23.304 3.90014 21.8989 2.5 20.1635 2.5ZM20.7922 13.7497V14.3746C20.7922 14.7182 20.5105 14.9995 20.1635 14.9995H3.83586C3.77138 14.9995 3.20707 14.9845 3.20707 14.4985V5.62518C3.20707 5.27976 3.48879 5.0003 3.83586 5.0003H20.1635C20.5096 5.0003 20.7922 5.27979 20.7922 5.62518V13.7497ZM15.768 22.5H8.23121C7.54059 22.5 6.97538 21.9375 6.97538 21.2502C6.97538 20.5621 7.54059 19.9996 8.23121 19.9996H15.768C16.4586 19.9996 17.0238 20.5621 17.0238 21.2502C17.0238 21.9375 16.4586 22.5 15.768 22.5Z" fill="currentColor"/> </symbol>
  <symbol fill="none" id="statistic-bar" viewBox="0 0 24 25"> <path d="M2.6748 4H7.78229V21.2364H2.6748V4Z" fill="currentColor"/> <path d="M9.69727 7.19336H14.8048V21.2374H9.69727V7.19336Z" fill="currentColor"/> <path d="M16.7188 9.74609H21.8262V21.237H16.7188V9.74609Z" fill="currentColor"/> </symbol>
  <symbol fill="none" id="fairness" viewBox="0 0 24 25"> <path d="M19.4401 7.29198H21.0001V5.208H13.0004V3.125H10.9998V5.208H3.00011V7.29198H4.56011L2.05979 14.2187C2.01947 14.3359 1.99885 14.459 1.99979 14.583C1.99979 16.541 3.67979 17.9687 6.00011 17.9687C8.32043 17.9687 10.0004 16.542 10.0004 14.583C10.0014 14.459 9.98074 14.3359 9.94043 14.2187L7.44011 7.29198H10.9998V20.833H7.99979V22.916H15.9995L16.0004 20.833H13.0004V7.29198H16.5601L14.0701 14.2187C14.026 14.3349 14.0026 14.458 13.9998 14.583C13.9998 16.541 15.6798 17.9687 18.0001 17.9687C20.3204 17.9687 22.0004 16.542 22.0004 14.583C22.0014 14.459 21.9807 14.3359 21.9404 14.2187L19.4401 7.29198ZM6.00008 15.8857C5.34008 15.8857 4.14008 15.6465 4.0004 14.7402L6.00008 9.21973L7.99976 14.7402C7.86008 15.625 6.66008 15.8857 6.00008 15.8857ZM18.0001 15.8857C17.3401 15.8857 16.1401 15.6465 16.0004 14.7402L18.0001 9.21973L19.9998 14.7402C19.8601 15.625 18.6601 15.8857 18.0001 15.8857Z" fill="currentColor"/> </symbol>
</svg>
