<?xml version="1.0" encoding="UTF-8"?>
<!DOCTYPE svg PUBLIC "-//W3C//DTD SVG 1.1//EN" "http://www.w3.org/Graphics/SVG/1.1/DTD/svg11.dtd">
<svg class="h-0 opacity-0 pointer-events-none w-0" fill="none" xmlns="http://www.w3.org/2000/svg">
  <symbol viewBox="0 0 36 36" fill="none" id="homeOriginal"> <path d="M18 0C8.06013 0 0 8.06013 0 18C0 27.9399 8.06013 36 18 36C27.9399 36 36 27.9399 36 18C36 8.06013 27.9399 0 18 0ZM18.1709 1.28165C21.1044 1.31013 23.981 2.10759 26.4873 3.58861L23.5253 8.65823C21.9019 7.68987 20.0222 7.17722 18.1139 7.14873L18.1709 1.28165ZM3.50316 26.3734C2.05063 23.8386 1.28165 20.962 1.28165 18.0285C1.28165 17.9715 1.28165 17.8861 1.28165 17.8006L7.14873 17.8861V18.0285C7.14873 19.9367 7.66139 21.8165 8.60127 23.4399L3.50316 26.3734ZM3.61709 9.4557C5.0981 6.94937 7.23418 4.84177 9.79747 3.41772L12.6741 8.5443C11.0222 9.48418 9.62658 10.8228 8.65823 12.4747L3.61709 9.4557ZM17.943 34.7468C15.0095 34.7468 12.1329 33.9494 9.5981 32.4968L12.5601 27.4272C14.1835 28.3671 16.0633 28.8797 17.9715 28.8797L17.943 34.7468ZM21.2468 17.9715C20.25 21.4462 18.5411 25.0633 15.6076 25.0633C14.0411 25.0633 12.7025 23.2405 12.7025 22.3291C12.7025 22.0443 13.0158 21.7025 13.443 21.731C13.6994 22.1867 14.1551 22.5 14.8101 22.5C16.9177 22.5285 18.4557 16.6044 19.1677 13.0728C17.5443 13.2722 16.1772 13.6994 16.0633 13.5854C15.75 13.2152 16.519 11.2785 17.7152 11.1646C20.0791 10.9937 22.443 11.25 22.5 11.4494C22.6424 12.6741 21.5601 16.8608 21.2468 17.9715ZM26.3165 32.5253L23.3829 27.4272C25.0348 26.4873 26.4019 25.1203 27.3703 23.4684L32.4399 26.4304C30.9873 28.9652 28.8513 31.0728 26.3165 32.5253ZM28.8513 18.0854V18C28.8513 16.1203 28.3671 14.269 27.4272 12.6456L32.5253 9.74051C33.9494 12.2468 34.7184 15.0949 34.7184 18V18.1139L28.8513 18.0854Z" fill="currentColor"/> </symbol>
  <symbol viewBox="0 0 49 32" fill="none" id="homeSlots"> <path d="M28.7217 15.5343C26.9483 18.8808 25.9015 22.8493 25.8894 27.0606V29.5925H16.3428C16.364 25.4161 17.294 21.4612 18.943 17.9099L18.8701 18.0828C20.7346 13.9975 23.0162 10.4796 25.7331 7.34843L25.6876 7.40305H11.5293V0H36.4084V3.92452C33.6019 7.31658 31.0518 11.1213 28.8991 15.1687L28.7217 15.5343Z" fill="currentColor"/> <path d="M42.0729 23.7473C40.6105 25.5874 39.5471 27.8114 39.0555 30.2416L39.0389 30.3402L38.7355 31.8573L30.3418 30.3205C31.255 25.7467 33.6792 21.8495 37.0637 19.0809L37.0986 19.0536L31.0305 17.8597L33.5791 12.4789L48.5475 15.4325L48.0818 17.7793C45.867 19.5937 43.8994 21.5491 42.1321 23.676L42.0729 23.7473Z" fill="currentColor"/> <path d="M12.4805 21.1988C12.2014 22.2896 12.0406 23.5411 12.0406 24.8291C12.0406 26.117 12.2014 27.3701 12.5033 28.5655L12.4805 28.4608L12.8446 29.9778L4.61173 32C4.2613 30.6286 4.05954 29.054 4.05954 27.4323C4.05954 24.3209 4.80136 21.3809 6.11813 18.7838L6.06807 18.893L0 20.3296V14.4238L14.8471 10.8634L15.4129 13.189C14.2584 15.4721 13.2557 18.1375 12.5412 20.9197L12.4805 21.1988Z" fill="currentColor"/> </symbol>
  <symbol viewBox="0 0 32 32" fill="none" id="homeProviders"> <g clip-path="url(#clip0_13142_57347)"> <path d="M14.6673 26.3874L0.694336 20.0674V24.2674C0.694336 24.2674 0.694336 24.2694 0.694336 24.2714C0.694336 24.9154 1.07234 25.4714 1.61834 25.7304L1.62834 25.7344L14.6683 31.7074C15.0593 31.8904 15.5183 31.9974 16.0013 31.9974C16.4843 31.9974 16.9433 31.8904 17.3543 31.6994L17.3343 31.7074L30.3743 25.7344C30.9303 25.4714 31.3073 24.9154 31.3073 24.2714V24.2674V20.0674L17.3343 26.3874C16.9433 26.5744 16.4853 26.6834 16.0013 26.6834C15.5173 26.6834 15.0583 26.5744 14.6493 26.3784L14.6683 26.3864L14.6673 26.3874Z" fill="currentColor"/> <path d="M1.20029 16.747L14.5333 22.88C14.9563 23.076 15.4513 23.191 15.9733 23.191C16.4953 23.191 16.9903 23.077 17.4353 22.871L17.4133 22.88L30.7463 16.747C31.0453 16.606 31.2493 16.307 31.2493 15.96C31.2493 15.613 31.0453 15.314 30.7513 15.176L30.7463 15.174L17.5993 9.12097V14.574C17.5993 15.458 16.8833 16.174 15.9993 16.174C15.1153 16.174 14.3993 15.458 14.3993 14.574V9.12097L1.19929 15.174C0.900289 15.315 0.696289 15.614 0.696289 15.961C0.696289 16.308 0.900289 16.607 1.19429 16.745L1.19929 16.747H1.20029Z" fill="currentColor"/> <path d="M20.0533 4.013C20.0533 6.229 18.2563 8.026 16.0403 8.026C13.8243 8.026 12.0273 6.229 12.0273 4.013C12.0273 1.797 13.8243 0 16.0403 0C18.2563 0 20.0533 1.797 20.0533 4.013Z" fill="currentColor"/> </g> <defs> <clipPath id="clip0_13142_57347"> <rect width="32" height="32" fill="currentColor"/> </clipPath> </defs> </symbol>
  <symbol viewBox="0 0 35 32" fill="none" id="homeLiveCasino"> <path d="M22.8876 0.0802708C22.7323 0.0802708 22.5758 0.0802708 22.4205 0.0802708L17.127 1.9487L11.8335 0.0802708C10.8993 -0.231523 9.8098 0.392064 9.65332 1.48159C9.65332 1.6369 9.65332 1.79338 9.65332 1.9487V5.37376C9.65332 6.46328 10.5875 7.24218 11.5217 7.24218C11.6771 7.24218 11.8335 7.24218 11.9889 7.24218L17.127 4.90665L22.4205 7.24218C23.51 7.55398 24.4443 6.93039 24.756 5.84086C24.756 5.68555 24.756 5.52907 24.756 5.37376V1.9487C24.756 0.859171 23.8218 0.0802708 22.8876 0.0802708Z" fill="currentColor"/> <path d="M14.4803 29.5079L7.47371 6.15259C7.0066 5.21838 6.07239 4.75127 4.98286 5.06307L2.64733 5.84197C1.86843 5.99728 1.40132 6.77618 1.40132 7.55508L0 29.9762C0 31.0657 0.7789 31.8446 1.71311 31.9999C1.71311 31.9999 1.71311 31.9999 1.86843 31.9999H12.6119C13.7014 31.9999 14.4803 31.221 14.4803 30.1315C14.6356 29.9762 14.4803 29.6632 14.4803 29.5079Z" fill="currentColor"/> <path d="M32.8534 7.55396C32.8534 6.77506 32.3863 6.15264 31.6074 5.84085L29.2719 4.90664C28.3377 4.59484 27.2481 5.06195 26.9363 5.99616L19.9297 29.3515C19.618 30.2857 20.2415 31.3752 21.1758 31.687C21.3311 31.687 21.4875 31.8423 21.7982 31.8423H32.5416C33.6312 31.8423 34.4101 31.0634 34.4101 29.9739L32.8534 7.55279V7.55396Z" fill="currentColor"/> </symbol>
  <symbol viewBox="0 0 24 34" fill="none" id="homeGameShows"> <path d="M19.1715 27.7332C17.0927 28.9843 14.6258 29.7129 11.9825 29.7129C9.33923 29.7129 6.87218 28.9829 4.79352 27.7332L2.46688 32.1458C2.15024 32.7714 2.6073 33.5001 3.27776 33.5001H20.6532C21.3581 33.5001 21.8165 32.77 21.4641 32.1458L19.1715 27.7332Z" fill="currentColor"/> <path d="M10.0084 7.55172L7.89375 4.94641C6.48401 5.43218 5.21468 6.19751 4.12305 7.13515L6.34367 9.32388C7.40098 8.45409 8.63457 7.86383 10.0084 7.55172Z" fill="currentColor"/> <path d="M13.957 7.55172C15.331 7.86381 16.5645 8.45545 17.6217 9.32388L19.8423 7.13515C18.7492 6.19751 17.4812 5.43357 16.0716 4.94641L13.957 7.55172Z" fill="currentColor"/> <path d="M5.11031 21.6908C4.0172 20.3705 3.31233 18.7734 3.13611 17.0012H0C0.176218 19.6418 1.23352 22.0381 2.88969 23.9133L5.11031 21.6908Z" fill="currentColor"/> <path d="M5.11031 10.5396L2.88969 8.35083C1.23352 10.2261 0.176218 12.6239 0 15.2292H3.13611C3.27791 13.4584 4.0172 11.8599 5.11031 10.5396Z" fill="currentColor"/> <path d="M20.8639 15.2292H24C23.788 12.5886 22.7664 10.2277 21.1103 8.35083L18.8896 10.5396C19.9483 11.8599 20.6876 13.4584 20.8639 15.2292Z" fill="currentColor"/> <path d="M4.12305 25.095C6.02563 26.7274 8.45835 27.7695 11.1016 27.9432V24.8521C9.30364 24.6784 7.64747 23.9837 6.34374 22.9062L4.12305 25.095Z" fill="currentColor"/> <path d="M18.8555 21.6906L21.0761 23.8793C22.7323 22.0041 23.7896 19.6063 23.9658 16.9673H20.8297C20.6879 18.7381 19.9486 20.3702 18.8555 21.6906Z" fill="currentColor"/> <path d="M12.8634 27.9432C15.5425 27.7342 17.9737 26.7274 19.8762 25.095L17.6212 22.9062C16.2816 23.9837 14.6613 24.6784 12.8633 24.8521L12.8634 27.9432Z" fill="currentColor"/> <path d="M11.5948 6.71744C11.8068 6.96033 12.1937 6.96033 12.4057 6.71744L16.7766 1.33314C17.0588 0.985768 16.8124 0.5 16.3884 0.5H7.57747C7.15483 0.5 6.9084 0.985768 7.18922 1.33314L11.5948 6.71744Z" fill="currentColor"/> <path d="M11.9829 9.04626C8.03599 9.04626 4.82812 12.2079 4.82812 16.0983C4.82812 19.9885 8.03585 23.149 11.9829 23.149C15.93 23.149 19.1377 19.9873 19.1377 16.0969C19.1377 12.2067 15.93 9.04626 11.9829 9.04626ZM15.8957 15.299L14.3455 16.7238C14.2753 16.793 14.2395 16.8622 14.2753 16.9667L14.6979 19.0156C14.7681 19.3983 14.3455 19.7104 13.9931 19.5367L12.1607 18.4946C12.0905 18.4593 11.9845 18.4593 11.9142 18.4946L10.0819 19.5367C9.72943 19.7457 9.30679 19.4322 9.377 19.0156L9.79964 16.9667C9.83543 16.8622 9.79964 16.793 9.72942 16.7238L8.17927 15.299C7.86263 15.0208 8.03885 14.5351 8.46149 14.4659L10.5761 14.223C10.6821 14.223 10.7523 14.1538 10.7881 14.0846L11.6692 12.174C11.8454 11.7913 12.3741 11.7913 12.5503 12.174L13.4314 14.0846C13.4672 14.1538 13.5374 14.223 13.6434 14.223L15.758 14.4659C16.0003 14.5337 16.1765 15.0209 15.8957 15.299Z" fill="currentColor"/> </symbol>
  <symbol viewBox="0 0 32 32" fill="none" id="homeTableGames"> <path fill-rule="evenodd" clip-rule="evenodd" d="M12.4803 21.8803C12.4803 21.1955 12.2403 20.6136 11.76 20.1333C11.2715 19.6443 10.6891 19.4 10.0136 19.4C9.32933 19.4 8.73813 19.6443 8.24027 20.1333C7.76 20.6136 7.52053 21.1952 7.52053 21.8803C7.52053 22.5736 7.76 23.16 8.24027 23.6403C8.73813 24.12 9.32933 24.36 10.0136 24.36C10.6891 24.36 11.2715 24.12 11.76 23.6403C12.24 23.1509 12.4803 22.5645 12.4803 21.8803ZM8.24 11.7733C8.73787 12.2531 9.32907 12.4931 10.0133 12.4931C10.6888 12.4931 11.2712 12.2531 11.7597 11.7733C12.24 11.2755 12.48 10.6891 12.48 10.0133C12.48 9.32853 12.24 8.73733 11.7597 8.24C11.2712 7.75973 10.6888 7.51973 10.0133 7.51973C9.32907 7.51973 8.73787 7.75973 8.24 8.24C7.75973 8.73733 7.52027 9.32853 7.52027 10.0133C7.52027 10.7067 7.76 11.2933 8.24 11.7733ZM24.5067 21.9864C24.5067 21.3021 24.2667 20.7197 23.7869 20.24C23.2891 19.7509 22.6979 19.5067 22.0136 19.5067C21.3381 19.5067 20.7512 19.7509 20.2536 20.24C19.7733 20.7197 19.5333 21.3019 19.5333 21.9864C19.5333 22.6803 19.7733 23.2667 20.2536 23.7469C20.7509 24.2267 21.3379 24.4667 22.0136 24.4667C22.7069 24.4667 23.2979 24.2267 23.7869 23.7469C24.2667 23.2667 24.5067 22.6803 24.5067 21.9864ZM27.9869 6.56H28V25.44C27.9912 26.1333 27.7333 26.7285 27.2267 27.2264C26.7291 27.7333 26.1333 27.9912 25.44 28H6.58693C5.87547 27.9912 5.27547 27.7333 4.78693 27.2267C4.28907 26.7285 4.02667 26.1333 4 25.44V6.56C4.02667 5.86667 4.28907 5.27573 4.78693 4.78667C5.27547 4.28907 5.87547 4.02667 6.58693 4H25.44C26.1333 4.02667 26.7291 4.28907 27.2267 4.7864C27.7245 5.27547 27.9781 5.86667 27.9869 6.56ZM17.76 14.2531C17.2803 13.7645 16.6981 13.5197 16.0136 13.5197C15.3291 13.5197 14.7421 13.7645 14.2536 14.2531C13.7645 14.7333 13.5203 15.3155 13.5203 16C13.5203 16.6933 13.7645 17.2803 14.2536 17.76C14.7421 18.2403 15.3291 18.4803 16.0136 18.4803C16.6981 18.4803 17.2803 18.2403 17.76 17.76C18.2403 17.2621 18.4803 16.6757 18.4803 16C18.4803 15.3157 18.24 14.7333 17.76 14.2531ZM23.7869 8.24C23.2979 7.75973 22.7067 7.51973 22.0136 7.51973C21.3381 7.51973 20.7512 7.75973 20.2536 8.24C19.7733 8.73733 19.5333 9.32853 19.5333 10.0133C19.5333 10.7067 19.7733 11.2931 20.2536 11.7733C20.7509 12.2531 21.3379 12.4931 22.0136 12.4931C22.7069 12.4931 23.2979 12.2531 23.7869 11.7733C24.2667 11.2931 24.5067 10.7067 24.5067 10.0133C24.5067 9.32853 24.2667 8.7376 23.7869 8.24Z" fill="currentColor"/> </symbol>
  <symbol viewBox="0 0 20 20" fill="none" id="homeCasinoCard"> <path d="M9.95312 0.17186C9.67188 0.32811 9.21875 1.20311 9.21875 1.54686C9.21875 1.64061 9.51562 1.84374 9.89062 1.99999C10.7188 2.37499 11.3438 3.09374 11.5625 3.95311C11.9375 5.40624 11.9375 5.39061 12.5781 5.40624C13.0625 5.42186 13.2812 5.53124 13.5938 5.90624C13.9688 6.37499 14.0156 6.39061 14.2656 6.14061C14.6875 5.70311 15.5938 5.79686 16.0312 6.31249C16.2344 6.54686 16.4062 6.89061 16.4062 7.09373C16.4062 7.98436 15.125 9.71873 13.7812 10.6562L13.4219 10.8906L14.1719 13.6875C14.5781 15.2344 14.9219 16.5156 14.9375 16.5469C14.9688 16.5781 15.3125 16.6562 15.7031 16.7344C16.5625 16.8906 17.375 16.625 17.6562 16.0937C17.8906 15.6562 20 3.74999 20 2.87499C20 2.14061 19.5781 1.48436 19.0312 1.35936C17.875 1.06249 11.4688 -1.51659e-05 10.9062 -1.51659e-05C10.5312 -1.51659e-05 10.1094 0.0781098 9.95312 0.17186Z" fill="currentColor"/> <path d="M8.20312 2.89062C8.125 2.92187 6.39062 3.39062 4.375 3.9375C0.25 5.03125 0 5.17187 0 6.29687C0 6.875 2.89062 18.0625 3.3125 19.1094C3.54688 19.7031 4.01562 20 4.75 20C5.32812 20 11.8438 18.3437 12.8594 17.9375C13.4531 17.7031 13.75 17.2344 13.75 16.5156C13.75 15.9844 10.8594 4.76562 10.4531 3.71875C10.3594 3.48437 10.1094 3.1875 9.90625 3.04687C9.57812 2.84375 8.60938 2.75 8.20312 2.89062ZM7.64062 9.48437C8.375 10.1562 9.01562 10.7187 9.0625 10.75C9.20312 10.8437 7.9375 14.3906 7.73438 14.4844C7.5 14.5625 4.6875 12.2187 4.6875 11.9375C4.6875 11.75 5.71875 8.67187 5.85938 8.4375C6.04688 8.14062 6.28125 8.28125 7.64062 9.48437Z" fill="currentColor"/></symbol>
</svg>
