<?xml version="1.0" encoding="UTF-8"?>
<!DOCTYPE svg PUBLIC "-//W3C//DTD SVG 1.1//EN" "http://www.w3.org/Graphics/SVG/1.1/DTD/svg11.dtd">
<svg class="h-0 opacity-0 pointer-events-none w-0" fill="none" xmlns="http://www.w3.org/2000/svg">
  <symbol fill="none" id="junglebetOriginals" viewBox="0 0 20 20"> <g clip-path="url(#clip0_11374_86941)"> <path d="M10 1C5.03006 1 1 5.03006 1 10C1 14.9699 5.03006 19 10 19C14.9699 19 19 14.9699 19 10C19 5.03006 14.9699 1 10 1ZM10.0854 1.64082C11.5522 1.65506 12.9905 2.0538 14.2437 2.7943L12.7627 5.32911C11.9509 4.84494 11.0111 4.58861 10.057 4.57437L10.0854 1.64082ZM2.75158 14.1867C2.02532 12.9193 1.64082 11.481 1.64082 10.0142C1.64082 9.98576 1.64082 9.94304 1.64082 9.90032L4.57437 9.94304V10.0142C4.57437 10.9684 4.8307 11.9082 5.30063 12.7199L2.75158 14.1867ZM2.80854 5.72785C3.54905 4.47468 4.61709 3.42089 5.89873 2.70886L7.33703 5.27215C6.51108 5.74209 5.81329 6.41139 5.32911 7.23734L2.80854 5.72785ZM9.97152 18.3734C8.50475 18.3734 7.06646 17.9747 5.79905 17.2484L7.28006 14.7136C8.09177 15.1835 9.03165 15.4399 9.98576 15.4399L9.97152 18.3734ZM11.6234 9.98576C11.125 11.7231 10.2706 13.5316 8.8038 13.5316C8.02057 13.5316 7.35127 12.6203 7.35127 12.1646C7.35127 12.0222 7.50791 11.8513 7.72152 11.8655C7.84968 12.0934 8.07753 12.25 8.40506 12.25C9.45886 12.2642 10.2278 9.30222 10.5839 7.53639C9.77215 7.63608 9.08861 7.84968 9.03165 7.79272C8.875 7.6076 9.25949 6.63924 9.8576 6.58228C11.0396 6.49684 12.2215 6.625 12.25 6.72468C12.3212 7.33703 11.7801 9.43038 11.6234 9.98576ZM14.1582 17.2627L12.6915 14.7136C13.5174 14.2437 14.2009 13.5601 14.6851 12.7342L17.2199 14.2152C16.4937 15.4826 15.4256 16.5364 14.1582 17.2627ZM15.4256 10.0427V10C15.4256 9.06013 15.1835 8.13449 14.7136 7.32279L17.2627 5.87025C17.9747 7.12342 18.3592 8.54747 18.3592 10V10.057L15.4256 10.0427Z" fill="currentColor"/> </g> <defs> <clipPath id="clip0_11374_86941"> <rect fill="white" height="20" width="20"/> </clipPath> </defs> </symbol>
  <symbol fill="none" id="gameShows" viewBox="0 0 20 20"> <g clip-path="url(#clip0_11374_86844)"> <path d="M12.6178 8.34131H4.43945V15.3732H12.6178V8.34131Z" fill="currentColor"/> <path d="M18.1975 4.74756H1.76433C1.34395 4.74756 1 5.09151 1 5.51189V18.238C1 18.6584 1.34395 19.0023 1.76433 19.0023H18.2357C18.656 19.0023 19 18.6584 19 18.238V5.51189C18.9618 5.09151 18.6178 4.74756 18.1975 4.74756ZM14.1083 16.0979C14.1083 16.5183 13.7643 16.8622 13.3439 16.8622H3.67516C3.25478 16.8622 2.91083 16.5183 2.91083 16.0979V7.6138C2.91083 7.19342 3.25478 6.84947 3.67516 6.84947H13.3439C13.7643 6.84947 14.1083 7.19342 14.1083 7.6138V16.0979ZM16.0191 7.6138C16.2866 7.34628 16.7834 7.34628 17.0892 7.6138C17.242 7.76667 17.3185 7.95775 17.3185 8.14883C17.3185 8.33992 17.242 8.531 17.0892 8.68386C16.9363 8.83673 16.7452 8.91316 16.5541 8.91316C16.3631 8.91316 16.172 8.83673 16.0191 8.68386C15.8662 8.531 15.7898 8.33992 15.7898 8.14883C15.828 7.95775 15.9045 7.76667 16.0191 7.6138ZM17.1274 16.0979C16.9745 16.2507 16.7834 16.3272 16.5924 16.3272C16.4013 16.3272 16.2102 16.2507 16.0573 16.0979C15.9045 15.945 15.828 15.7539 15.828 15.5628C15.828 15.3718 15.9045 15.1807 16.0573 15.0278C16.3248 14.7603 16.8217 14.7603 17.1274 15.0278C17.2803 15.1807 17.3567 15.3718 17.3567 15.5628C17.3185 15.7539 17.242 15.945 17.1274 16.0979Z" fill="currentColor"/> <path d="M13.0001 3.25784L13.9173 2.26421C14.1848 1.95848 14.1466 1.46166 13.8409 1.19415C13.5351 0.92663 13.0765 0.92663 12.7708 1.23236L10.9746 3.21962H13.0001V3.25784Z" fill="currentColor"/> <path d="M6.96311 3.25902H8.98859L7.19241 1.27176C6.9249 0.966029 6.42808 0.927813 6.12235 1.23355C5.81662 1.50106 5.7784 1.99788 6.08413 2.30361L6.96311 3.25902Z" fill="currentColor"/> </g> <defs> <clipPath id="clip0_11374_86844"> <rect fill="white" height="20" width="20"/> </clipPath> </defs> </symbol>
  <symbol fill="none" id="tableGames" viewBox="0 0 20 20"> <g clip-path="url(#clip0_11374_86864)"> <path d="M7.3602 14.4102C7.3602 13.8966 7.1802 13.4602 6.82 13.1C6.4536 12.7332 6.0168 12.55 5.5102 12.55C4.997 12.55 4.5536 12.7332 4.1802 13.1C3.82 13.4602 3.6404 13.8964 3.6404 14.4102C3.6404 14.9302 3.82 15.37 4.1802 15.7302C4.5536 16.09 4.997 16.27 5.5102 16.27C6.0168 16.27 6.4536 16.09 6.82 15.7302C7.18 15.3632 7.3602 14.9234 7.3602 14.4102ZM4.18 6.83C4.5534 7.1898 4.9968 7.3698 5.51 7.3698C6.0166 7.3698 6.4534 7.1898 6.8198 6.83C7.18 6.4566 7.36 6.0168 7.36 5.51C7.36 4.9964 7.18 4.553 6.8198 4.18C6.4534 3.8198 6.0166 3.6398 5.51 3.6398C4.9968 3.6398 4.5534 3.8198 4.18 4.18C3.8198 4.553 3.6402 4.9964 3.6402 5.51C3.6402 6.03 3.82 6.47 4.18 6.83ZM16.38 14.4898C16.38 13.9766 16.2 13.5398 15.8402 13.18C15.4668 12.8132 15.0234 12.63 14.5102 12.63C14.0036 12.63 13.5634 12.8132 13.1902 13.18C12.83 13.5398 12.65 13.9764 12.65 14.4898C12.65 15.0102 12.83 15.45 13.1902 15.8102C13.5632 16.17 14.0034 16.35 14.5102 16.35C15.0302 16.35 15.4734 16.17 15.8402 15.8102C16.2 15.45 16.38 15.0102 16.38 14.4898ZM18.9902 2.92H19V17.08C18.9934 17.6 18.8 18.0464 18.42 18.4198C18.0468 18.8 17.6 18.9934 17.08 19H2.9402C2.4066 18.9934 1.9566 18.8 1.5902 18.42C1.2168 18.0464 1.02 17.6 1 17.08V2.92C1.02 2.4 1.2168 1.9568 1.5902 1.59C1.9566 1.2168 2.4066 1.02 2.9402 1H17.08C17.6 1.02 18.0468 1.2168 18.42 1.5898C18.7934 1.9566 18.9836 2.4 18.9902 2.92ZM11.32 8.6898C10.9602 8.3234 10.5236 8.1398 10.0102 8.1398C9.4968 8.1398 9.0566 8.3234 8.6902 8.6898C8.3234 9.05 8.1402 9.4866 8.1402 10C8.1402 10.52 8.3234 10.9602 8.6902 11.32C9.0566 11.6802 9.4968 11.8602 10.0102 11.8602C10.5236 11.8602 10.9602 11.6802 11.32 11.32C11.6802 10.9466 11.8602 10.5068 11.8602 10C11.8602 9.4868 11.68 9.05 11.32 8.6898ZM15.8402 4.18C15.4734 3.8198 15.03 3.6398 14.5102 3.6398C14.0036 3.6398 13.5634 3.8198 13.1902 4.18C12.83 4.553 12.65 4.9964 12.65 5.51C12.65 6.03 12.83 6.4698 13.1902 6.83C13.5632 7.1898 14.0034 7.3698 14.5102 7.3698C15.0302 7.3698 15.4734 7.1898 15.8402 6.83C16.2 6.4698 16.38 6.03 16.38 5.51C16.38 4.9964 16.2 4.5532 15.8402 4.18Z" fill="currentColor" clip-rule="evenodd" fill-rule="evenodd"/> </g> <defs> <clipPath id="clip0_11374_86864"> <rect fill="white" height="20" width="20"/> </clipPath> </defs> </symbol>
  <symbol fill="none" id="featuredSlots" viewBox="0 0 20 20"> <g clip-path="url(#clip0_11374_86823)"> <path d="M11.65 9.82769C10.9925 11.0685 10.6043 12.54 10.5998 14.1014V15.0402H7.06015C7.06802 13.4917 7.41282 12.0253 8.02424 10.7085L7.99724 10.7727C8.68853 9.2579 9.53451 7.9535 10.5419 6.79254L10.525 6.81279H5.27539V4.06787H14.5001V5.52301C13.4595 6.78072 12.514 8.19143 11.7158 9.69213L11.65 9.82769Z" fill="currentColor"/> <path d="M16.5997 12.8729C16.0574 13.5552 15.6631 14.3798 15.4809 15.2809L15.4747 15.3175L15.3622 15.88L12.25 15.3102C12.5886 13.6143 13.4875 12.1693 14.7424 11.1427L14.7553 11.1326L12.5054 10.6899L13.4503 8.69482L19.0004 9.78998L18.8277 10.6601C18.0064 11.3329 17.2769 12.0579 16.6216 12.8465L16.5997 12.8729Z" fill="currentColor"/> <path d="M5.62754 11.9274C5.52405 12.3318 5.46442 12.7959 5.46442 13.2734C5.46442 13.751 5.52405 14.2156 5.63598 14.6588L5.62754 14.62L5.76254 15.1825L2.70995 15.9323C2.58001 15.4238 2.5052 14.8399 2.5052 14.2386C2.5052 13.085 2.78026 11.9949 3.26849 11.0319L3.24993 11.0724L1 11.6051V9.41536L6.50502 8.09521L6.71482 8.9575C6.28677 9.80404 5.91497 10.7923 5.65004 11.8239L5.62754 11.9274Z" fill="currentColor"/> </g> <defs> <clipPath id="clip0_11374_86823"> <rect fill="white" height="20" width="20"/> </clipPath> </defs> </symbol>
  <symbol fill="none" id="pokerIcon" viewBox="0 0 24 24"> <g clip-path="url(#clip0_13125_105125)"> <path d="M12 4C7.58754 4 4 7.58754 4 12C4 16.4125 7.58754 20 12 20C16.4125 20 20 16.4125 20 12C20 7.58754 16.4125 4 12 4ZM18.5512 9.28808L17.1532 9.86045C16.867 9.16965 16.4624 8.56374 15.9407 8.04133L17.0183 6.98014C17.6756 7.63803 18.1979 8.41245 18.5512 9.28808ZM14.7117 5.44859L14.1394 6.84662C13.4828 6.57688 12.7585 6.42557 12.0006 6.42557V4.90978C12.9598 4.90912 13.886 5.09465 14.7117 5.44859ZM9.28808 5.44859L9.86045 6.84662C9.18676 7.1328 8.56374 7.53741 8.04133 8.05912L6.96371 6.99793C7.63805 6.32424 8.42949 5.80187 9.28808 5.44859ZM5.44859 9.28808L6.84662 9.86045C6.57688 10.517 6.42557 11.2414 6.42557 11.9992H4.90978C4.90912 11.04 5.09465 10.1139 5.44859 9.28808ZM5.44859 14.7117L6.84662 14.1394C7.1328 14.8302 7.53741 15.4361 8.05912 15.9585L6.98149 17.0197C6.32426 16.3618 5.80189 15.5874 5.44859 14.7117ZM9.28808 18.5512L9.86045 17.1532C10.517 17.423 11.2414 17.5743 11.9992 17.5743V19.0901C11.04 19.0907 10.1302 18.9052 9.28808 18.5512ZM14.7117 18.5512L14.1394 17.1532C14.8131 16.867 15.4361 16.4624 15.9413 15.9407L17.0189 17.0019C16.3617 17.6756 15.5874 18.198 14.7117 18.5512ZM17.1704 14.1388C17.4401 13.4822 17.5914 12.7579 17.5914 12H19.1072C19.1072 12.9599 18.9052 13.8861 18.5684 14.7119L17.1704 14.1388Z" fill="currentColor"/> </g> <defs> <clipPath id="clip0_13125_105125"> <rect width="24" height="24" fill="white"/> </clipPath></defs> </symbol>
  <symbol fill="none" id="dice" viewBox="0 0 20 20"> <path d="M18.671 9.50598L11.9985 5.78577C11.6891 5.61335 11.2985 5.72412 11.1259 6.03348L9.92215 8.19282V3.26135C9.92215 2.90695 9.63486 2.62012 9.28092 2.62012H1.64123C1.28706 2.62012 1 2.90695 1 3.26135V10.9008C1 11.2552 1.28706 11.542 1.64123 11.542H8.05465L7.40568 12.7058C7.23326 13.0151 7.34427 13.4057 7.65362 13.5783L14.3259 17.2983C14.6353 17.4709 15.0258 17.3599 15.1985 17.0506L18.9184 10.3779C19.0913 10.0687 18.9803 9.67817 18.671 9.50598ZM3.94251 10.2348C3.44708 10.2348 3.04538 9.83285 3.04538 9.33743C3.04538 8.84178 3.44731 8.44007 3.94251 8.44007C4.43816 8.44007 4.83986 8.84201 4.83986 9.33743C4.83986 9.83285 4.43816 10.2348 3.94251 10.2348ZM3.94251 7.97832C3.44708 7.97832 3.04538 7.57661 3.04538 7.08119C3.04538 6.58554 3.44731 6.18383 3.94251 6.18383C4.43816 6.18383 4.83986 6.58554 4.83986 7.08119C4.83986 7.57661 4.43816 7.97832 3.94251 7.97832ZM3.94251 5.72208C3.44708 5.72208 3.04538 5.32037 3.04538 4.82472C3.04538 4.3293 3.44731 3.92759 3.94251 3.92759C4.43816 3.92759 4.83986 4.3293 4.83986 4.82472C4.83986 5.32037 4.43816 5.72208 3.94251 5.72208ZM6.97964 10.2348C6.48422 10.2348 6.08251 9.83285 6.08251 9.33743C6.08251 8.84178 6.48422 8.44007 6.97964 8.44007C7.47529 8.44007 7.87699 8.84201 7.87699 9.33743C7.87699 9.83285 7.47529 10.2348 6.97964 10.2348ZM6.97964 7.97832C6.48422 7.97832 6.08251 7.57661 6.08251 7.08119C6.08251 6.58554 6.48422 6.18383 6.97964 6.18383C7.47529 6.18383 7.87699 6.58554 7.87699 7.08119C7.87699 7.57661 7.47529 7.97832 6.97964 7.97832ZM6.97964 5.72208C6.48422 5.72208 6.08251 5.32037 6.08251 4.82472C6.08251 4.3293 6.48422 3.92759 6.97964 3.92759C7.47529 3.92759 7.87699 4.3293 7.87699 4.82472C7.87699 5.32037 7.47529 5.72208 6.97964 5.72208ZM11.9889 12.3712C11.7473 12.804 11.201 12.9594 10.7681 12.7176C10.3355 12.4762 10.1801 11.9301 10.4217 11.4972C10.663 11.0644 11.2094 10.9092 11.642 11.1506C12.0749 11.3919 12.2302 11.9383 11.9889 12.3712ZM12.0301 10.4547C11.5972 10.2134 11.4421 9.66703 11.6834 9.23416C11.9248 8.80129 12.4711 8.64616 12.904 8.88727C13.3366 9.12884 13.4918 9.67522 13.2504 10.1081C13.0093 10.541 12.4627 10.6963 12.0301 10.4547ZM14.6414 13.8504C14.4001 14.2828 13.8537 14.4381 13.4208 14.1968C12.9882 13.9555 12.8328 13.4089 13.0741 12.9762C13.3157 12.5436 13.8621 12.3882 14.2947 12.6296C14.7276 12.8707 14.883 13.4173 14.6414 13.8504ZM15.9034 11.5871C15.6618 12.0197 15.1154 12.1751 14.6826 11.9337C14.2499 11.6924 14.0946 11.1458 14.3361 10.7134C14.5775 10.2805 15.1238 10.1251 15.5565 10.3665C15.9894 10.6076 16.1447 11.1542 15.9034 11.5871Z" fill="currentColor"/> </symbol>
  <symbol fill="none" id="limbo" viewBox="0 0 20 20"> <path d="M9.47059 6.87655L10 6.59823L10.5294 6.87655V7.88235H17.9412C18.5259 7.88235 19 8.3564 19 8.94118V17.9412C19 18.5259 18.5259 19 17.9412 19H2.05882C1.47405 19 1 18.5259 1 17.9412V8.94118C1 8.3564 1.47405 7.88235 2.05882 7.88235H9.47059V6.87655ZM7.61765 10.7941V16.0882C7.61765 16.3806 7.85467 16.6176 8.14706 16.6176H11.8529C12.1453 16.6176 12.3824 16.3806 12.3824 16.0882V10.7941C12.3824 10.5017 12.1453 10.2647 11.8529 10.2647H8.14706C7.85467 10.2647 7.61765 10.5017 7.61765 10.7941ZM3.38235 10.2647C2.79758 10.2647 2.32353 10.7388 2.32353 11.3235V15.5588C2.32353 16.1436 2.79758 16.6176 3.38235 16.6176H6.29412C6.5865 16.6176 6.82353 16.3806 6.82353 16.0882V10.7941C6.82353 10.5017 6.5865 10.2647 6.29412 10.2647H3.38235ZM16.6176 10.2647H13.7059C13.4135 10.2647 13.1765 10.5017 13.1765 10.7941V16.0882C13.1765 16.3806 13.4135 16.6176 13.7059 16.6176H16.6176C17.2024 16.6176 17.6765 16.1436 17.6765 15.5588V11.3235C17.6765 10.7388 17.2024 10.2647 16.6176 10.2647ZM8.67647 11.3235H11.3235V15.5588H8.67647V11.3235ZM5.76471 11.3235V15.5588H3.64706C3.50087 15.5588 3.38235 15.4403 3.38235 15.2941V11.5882C3.38235 11.442 3.50087 11.3235 3.64706 11.3235H5.76471ZM14.2353 11.3235H16.3529C16.4991 11.3235 16.6176 11.442 16.6176 11.5882V15.2941C16.6176 15.4403 16.4991 15.5588 16.3529 15.5588H14.2353V11.3235ZM8.84605 6.30772C8.45766 6.51191 8.00372 6.18211 8.07789 5.74963L8.29828 4.46468L7.36471 3.55468C7.0505 3.24839 7.22388 2.71476 7.65812 2.65167L8.94828 2.4642L9.52526 1.29511C9.71946 0.901629 10.2805 0.901629 10.4747 1.29511L11.0517 2.4642L12.3419 2.65167C12.7761 2.71476 12.9495 3.24839 12.6353 3.55468L11.7017 4.46468L11.9221 5.74963C11.9963 6.18211 11.5423 6.51191 11.154 6.30772L10 5.70105L8.84605 6.30772Z" fill="currentColor"/> </symbol>
  <symbol fill="none" id="liveCasino" viewBox="0 0 20 20"> <g clip-path="url(#clip0_11374_86837)"> <path d="M12.971 1.67285C12.8898 1.67285 12.808 1.67285 12.7267 1.67285L9.95796 2.65013L7.18919 1.67285C6.70055 1.50976 6.13068 1.83593 6.04883 2.40581C6.04883 2.48704 6.04883 2.56889 6.04883 2.65013V4.44161C6.04883 5.01149 6.53747 5.41889 7.02611 5.41889C7.10735 5.41889 7.1892 5.41889 7.27043 5.41889L9.95796 4.19729L12.7267 5.41889C13.2966 5.58198 13.7852 5.25581 13.9483 4.68593C13.9483 4.60469 13.9483 4.52285 13.9483 4.44161V2.65013C13.9483 2.08025 13.4597 1.67285 12.971 1.67285Z" fill="currentColor"/> <path d="M8.57394 17.0653L4.90913 4.84924C4.66481 4.3606 4.17617 4.11627 3.60629 4.27936L2.38469 4.68676C1.97728 4.768 1.73296 5.17541 1.73296 5.58281L1 17.3102C1 17.8801 1.4074 18.2875 1.89605 18.3687C1.89605 18.3687 1.89605 18.3687 1.97728 18.3687H7.59666C8.16654 18.3687 8.57394 17.9613 8.57394 17.3914C8.65518 17.3102 8.57394 17.1465 8.57394 17.0653Z" fill="currentColor"/> <path d="M18.185 5.58055C18.185 5.17315 17.9407 4.84759 17.5333 4.6845L16.3117 4.19586C15.823 4.03278 15.2531 4.2771 15.09 4.76574L11.4252 16.9818C11.2622 17.4704 11.5883 18.0403 12.077 18.2034C12.1582 18.2034 12.24 18.2846 12.4025 18.2846H18.0219C18.5918 18.2846 18.9992 17.8772 18.9992 17.3073L18.185 5.57994V5.58055Z" fill="currentColor"/> </g> <defs> <clipPath id="clip0_11374_86837"> <rect fill="white" height="20" width="20"/> </clipPath> </defs> </symbol>
  <symbol fill="none" id="lobby" viewBox="0 0 20 20"> <path d="M5.12891 12.2964L14.8702 14.7444V13.6121L5.12891 11.1636V12.2964Z" fill="currentColor"/> <path d="M5.12891 14.3086L14.8702 16.756V15.6243L5.12891 13.1758V14.3086Z" fill="currentColor"/> <path d="M5.12891 17.6493C5.12891 17.8631 5.30215 18.0369 5.5159 18.0369H14.4837C14.6975 18.0369 14.8707 17.8625 14.8707 17.6493V17.6369L5.12947 15.189V17.6493H5.12891Z" fill="currentColor"/> <path d="M18.9866 9.77816C18.864 9.33155 17.766 5.3851 16.7451 4.45192C15.8085 3.59524 13.6143 2.78919 13.1969 2.64069C12.4454 1.99833 10.4148 1.96289 10.0002 1.96289C9.58624 1.96289 7.55452 1.99833 6.80359 2.64126C6.38679 2.78976 4.19138 3.59524 3.25483 4.45248C2.23446 5.38566 1.13535 9.33211 1.01329 9.77873C0.986293 9.87998 1.00092 9.98685 1.05267 10.0768C1.1061 10.1668 1.19273 10.2315 1.29398 10.2563L4.08732 10.9498C4.24313 10.9875 4.40681 10.9262 4.4985 10.7935L5.12905 9.87829V10.2833L14.8703 12.7318V9.87885L15.5009 10.794C15.5914 10.9268 15.7551 10.987 15.9132 10.9504L18.7054 10.2568C18.8066 10.2321 18.8938 10.1674 18.9461 10.0774C18.9996 9.98685 19.0136 9.87941 18.9866 9.77816ZM4.01363 10.1342L1.86828 9.60098C1.92847 9.39679 1.99878 9.16055 2.07809 8.90855L4.27688 9.7506L4.01363 10.1342ZM7.52471 3.09238C8.07314 2.85163 9.242 2.73801 10.0002 2.73688C10.759 2.73801 11.9285 2.85163 12.4763 3.09238C11.7541 4.16842 10.957 4.39905 10.0002 4.39905C9.04288 4.39905 8.24639 4.16842 7.52471 3.09238ZM13.6429 7.83475H11.3497V7.34707H13.6429V7.83475ZM15.988 10.1342L15.723 9.75004L17.9224 8.90799C18.0017 9.15998 18.0731 9.39623 18.1322 9.60042L15.988 10.1342Z" fill="currentColor"/> </symbol>
  <symbol fill="none" id="mine" viewBox="0 0 20 20"> <path d="M18.8509 11.2326C18.7195 11.0354 18.5397 10.9136 18.3116 10.8674L16.8854 10.6066C16.9626 9.41614 16.7327 8.2893 16.1953 7.2265L17.4244 6.33948C17.6216 6.20025 17.7375 6.00894 17.7724 5.76555C17.8148 5.5375 17.7646 5.33065 17.6216 5.14523L17.5231 4.99445C17.3917 4.80902 17.2003 4.69478 16.9492 4.65236C16.7327 4.6175 16.5258 4.67168 16.3289 4.81469L15.1462 5.66707C14.3461 4.78193 13.3933 4.15383 12.2879 3.78277L12.5546 2.15928C12.597 1.92745 12.5468 1.71283 12.4038 1.51564C12.2724 1.33022 12.0926 1.21598 11.8645 1.17356L11.6848 1.1387C11.4529 1.10783 11.2383 1.15802 11.0411 1.28948C10.8555 1.43248 10.7415 1.61812 10.6991 1.84597L10.4555 3.40561C9.92984 3.3592 9.41577 3.36886 8.91325 3.43459C8.62723 3.44614 8.35864 3.49633 8.10728 3.58537C7.97582 3.61624 7.85024 3.65488 7.73033 3.70129L7.00563 2.12421C6.90904 1.91548 6.75049 1.76869 6.5302 1.68364C6.3137 1.59481 6.10118 1.59859 5.89244 1.69519L5.73011 1.78213C5.52138 1.86718 5.36682 2.02572 5.26623 2.25756C5.18895 2.47407 5.2005 2.68658 5.30109 2.89532L6.03734 4.50138C5.99492 4.52447 5.95229 4.55366 5.90987 4.58831C4.80445 5.36131 4.01591 6.33339 3.54426 7.50475L2.0831 7.18009C1.85505 7.12213 1.64253 7.16455 1.44534 7.30756C1.23661 7.4197 1.11103 7.5898 1.0684 7.81785L1.01674 7.97997C0.97411 8.21181 1.01296 8.43608 1.13266 8.65259C1.26412 8.83802 1.44576 8.95981 1.6776 9.01777L3.06904 9.34243C2.91448 10.5678 3.09025 11.7215 3.59655 12.8038L2.46026 13.5749C2.26307 13.7064 2.13749 13.888 2.08331 14.1199C2.05244 14.3479 2.10263 14.5604 2.23409 14.7576L2.33258 14.891C2.46404 15.0881 2.63791 15.2137 2.85442 15.2679C3.09802 15.2988 3.3183 15.2486 3.51528 15.1171L4.59361 14.3981C5.3706 15.3605 6.32714 16.0543 7.46364 16.4796L7.20282 17.8074C7.1604 18.0392 7.20471 18.2597 7.33617 18.4683C7.46763 18.6537 7.64739 18.7679 7.87544 18.8103L8.04365 18.8452C8.2717 18.8994 8.48422 18.8664 8.68141 18.7467C8.8786 18.6037 8.99829 18.4162 9.04092 18.1843L9.30174 16.9088C10.5617 17.0403 11.7484 16.849 12.8616 16.3349L13.7022 17.6104C13.8337 17.8076 14.0191 17.9292 14.2589 17.9756C14.4792 18.0298 14.6879 17.9911 14.8851 17.8597L15.03 17.7784C15.2272 17.647 15.3528 17.4596 15.407 17.216C15.4496 16.988 15.4051 16.7755 15.2736 16.5783L14.4735 15.3317C15.436 14.5548 16.1201 13.5982 16.526 12.4617L17.9698 12.7225C18.1978 12.765 18.4103 12.7206 18.6075 12.5892C18.793 12.4617 18.9072 12.282 18.9496 12.0499L18.9845 11.8876C19.0269 11.656 18.9824 11.4376 18.8509 11.2326ZM8.33323 8.07993C8.1602 8.48501 7.86767 8.77229 7.45587 8.94134C7.04385 9.11059 6.63268 9.11248 6.22193 8.94722C5.81537 8.78384 5.52915 8.49992 5.36304 8.09547C5.19693 7.69101 5.2005 7.28635 5.37354 6.88127C5.55078 6.47807 5.8454 6.19164 6.25742 6.02259C6.66943 5.85333 7.0785 5.8506 7.48506 6.01398C7.89581 6.17925 8.18414 6.46421 8.35024 6.86846C8.51614 7.2727 8.51047 7.67652 8.33323 8.07993Z" fill="currentColor"/> </symbol>
  <symbol fill="none" id="blackJack" viewBox="0 0 24 24"> <g clip-path="url(#clip0_13142_82090)"> <path d="M19.3198 4.00002H11.8665C11.3286 4.00002 10.889 4.4302 10.8761 4.96538L7.81945 5.58388C7.2836 5.69228 6.93605 6.21661 7.04444 6.7518L7.09051 6.97604L4.5982 8.05182C4.09622 8.26793 3.86452 8.85257 4.08131 9.35387L8.41696 19.4011C8.52196 19.6437 8.71504 19.8313 8.96094 19.9295C9.07949 19.9763 9.20346 20 9.32744 20C9.4609 20 9.59369 19.9722 9.72036 19.9187L16.4007 17.0348L16.9413 16.9257H19.3213C19.8679 16.9257 20.313 16.4807 20.313 15.9353L20.3117 4.99179C20.3117 4.44442 19.8672 4.00002 19.3198 4.00002ZM10.2068 17.2468L8.05043 6.57713L10.8754 6.00604V15.9354C10.8754 16.4611 11.2873 16.8926 11.8055 16.9238L10.2068 17.2468ZM17.0219 11.9993L16.0871 12.0027L16.3303 12.7926C16.3587 12.8854 16.2896 12.9796 16.1921 12.9796H14.9943C14.8975 12.9796 14.8277 12.8854 14.8561 12.7926L15.0987 12.0047L14.1645 11.9986C13.5297 11.9356 13.0331 11.3998 13.0331 10.7481C13.0331 10.0964 13.529 9.56049 14.1645 9.4975L14.3413 9.49682L14.342 9.06799C14.405 8.43322 14.9408 7.93666 15.5925 7.93666C16.2442 7.93666 16.7801 8.43256 16.8431 9.06799L16.8438 9.49817L17.0206 9.49885C17.6553 9.56185 18.1519 10.0977 18.1519 10.7494C18.1526 11.4004 17.6567 11.9363 17.0219 11.9993Z" fill="currentColor"/> </g> <defs> <clipPath id="clip0_13142_82090"> <rect width="24" height="24" fill="white"/> </clipPath> </defs> </symbol>
  <symbol fill="none" id="roulette" viewBox="0 0 24 24"> <g clip-path="url(#clip0_13142_82098)"> <path d="M12 2.66797C7.02966 2.66797 3 6.69763 3 11.668C3 16.639 7.02966 20.668 12 20.668C16.9711 20.668 21 16.6383 21 11.668C21 6.69763 16.9703 2.66797 12 2.66797ZM19.7738 10.5106H17.024C16.8848 9.90588 16.6415 9.34127 16.3103 8.83783L18.2468 6.90139C19.0371 7.93498 19.5742 9.16687 19.7738 10.5106ZM12 15.6947C9.77952 15.6947 7.97322 13.8884 7.97322 11.6672C7.97322 9.44677 9.7788 7.64047 12 7.64047C14.2205 7.64047 16.0275 9.44605 16.0275 11.6672C16.0268 13.8884 14.2205 15.6947 12 15.6947ZM16.7693 5.42413L14.8336 7.35985C14.3301 7.02797 13.7655 6.7847 13.1601 6.64546V3.89488C14.5045 4.09458 15.7363 4.63312 16.7693 5.42413ZM10.8968 3.88569V6.62997C10.2837 6.76356 9.71202 7.00755 9.20154 7.33802L7.26366 5.40014C8.30428 4.61123 9.54462 4.07694 10.8968 3.88569ZM5.77794 6.86901L7.71078 8.80185C7.36837 9.31301 7.11804 9.89169 6.97602 10.5104H4.22616C4.42726 9.15341 4.97356 7.90887 5.77794 6.86901ZM4.2184 12.7739H6.9634C7.09981 13.3997 7.35011 13.9833 7.69184 14.5015L5.75612 16.4372C4.95457 15.3896 4.41176 14.1387 4.2184 12.7739ZM7.2334 17.9145L9.16984 15.9781C9.68804 16.3191 10.2709 16.5687 10.8974 16.7051V19.4494C9.53267 19.2568 8.281 18.7154 7.2334 17.9145ZM13.1601 19.441V16.6912C13.7781 16.5491 14.3547 16.2995 14.8659 15.9571L16.7987 17.8899C15.7595 18.6929 14.5164 19.2392 13.1601 19.441ZM18.2676 16.4042L16.329 14.4656C16.6587 13.9566 16.902 13.3856 17.0356 12.7732H19.7806C19.5901 14.1246 19.0565 15.3637 18.2676 16.4042Z" fill="currentColor"/> <path d="M12.5918 10.0191V8.24726H11.4605V10.0093C10.9535 10.1795 10.5528 10.5725 10.3749 11.0766H8.63184V12.208H10.3664C10.5408 12.7234 10.9444 13.127 11.4605 13.2999V15.0366H12.5918V13.2901C13.0939 13.1122 13.4855 12.7128 13.6557 12.208H15.4212V11.0766H13.6472C13.4729 10.5823 13.0854 10.1949 12.5918 10.0191Z" fill="currentColor"/> <path d="M5.565 3.95047C5.565 4.65922 4.99125 5.23297 4.2825 5.23297C3.57445 5.23297 3 4.65922 3 3.95047C3 3.24242 3.57445 2.66797 4.2825 2.66797C4.99125 2.66797 5.565 3.24242 5.565 3.95047Z" fill="currentColor"/> </g> <defs> <clipPath id="clip0_13142_82098"> <rect width="24" height="24" fill="white"/> </clipPath> </defs> </symbol>
  <symbol fill="none" id="baccarat" viewBox="0 0 24 24"> <g clip-path="url(#clip0_13142_82110)"> <path fill-rule="evenodd" clip-rule="evenodd" d="M5.99953 4.29492H18.0005C19.1029 4.29492 20 5.19211 20 6.29445V18.2954C20 19.3978 19.1028 20.2949 18.0005 20.2949H5.99953C4.89714 20.2949 4 19.3977 4 18.2954V6.29445C4 5.19206 4.89719 4.29492 5.99953 4.29492ZM12.0072 18.8484C14.4398 18.8484 16.7978 18.3504 18.9806 17.3895L18.9804 17.3893C18.9871 17.3874 18.9944 17.3847 19.0003 17.3814C19.0003 17.3814 18.9997 16.9471 18.9983 16.2824V16.2817C18.993 16.285 18.9871 16.2883 18.9804 16.2903C18.2546 16.6343 17.5082 16.9218 16.7432 17.1529L15.5446 12.5072C16.783 12.1133 17.9432 11.5184 18.9798 10.7547C18.9816 10.7539 18.9828 10.7528 18.984 10.7517C18.985 10.7508 18.9859 10.75 18.9871 10.7494C18.9851 9.99102 18.9831 9.48301 18.9811 9.48301C17.8999 10.3974 16.6495 11.0986 15.2948 11.5363L15.0398 10.5481C15.7298 10.3217 16.3958 10.0189 17.0227 9.64104C17.6164 9.28445 18.1682 8.86542 18.6742 8.3946L19.0009 8.73129V6.5519C18.995 6.56053 18.9883 6.56983 18.981 6.57779C18.8808 6.70728 18.7778 6.83413 18.6709 6.95698L17.88 6.1435C18.0832 5.9071 18.2705 5.66005 18.4458 5.40041C18.3116 5.33334 18.1609 5.29416 18.0009 5.29416H17.287C16.9543 5.70986 16.5765 6.08372 16.1614 6.40978C14.9714 7.33681 13.5092 7.84349 12.0065 7.84349H12.0051C10.4984 7.84349 9.06869 7.35275 7.8694 6.42573L7.86143 6.43569C7.43444 6.10366 7.0473 5.72117 6.70863 5.29418H5.99875C5.83805 5.29418 5.68598 5.33469 5.55117 5.40242C5.71653 5.6521 5.89716 5.88984 6.09039 6.11694L5.30083 6.9198C5.23232 6.839 5.11305 6.68929 5.0473 6.60677C5.02065 6.57331 5.00279 6.55089 5.00068 6.54859L4.99999 8.64533L5.01764 8.62768L5.28658 8.35474C5.81987 8.85677 6.40691 9.30169 7.03842 9.67555C7.6307 10.0262 8.25691 10.3111 8.9057 10.5282L8.64271 11.5143C7.31127 11.0741 6.08146 10.3795 5.01764 9.47767C5.01162 9.47225 5.00614 9.46737 4.99972 9.46205L4.99935 10.5947L5.0206 10.7508C6.03924 11.5019 7.17419 12.089 8.38676 12.4828L7.15095 17.1139C6.42318 16.8874 4.99944 16.2898 4.99944 16.2898V17.3715L5.00077 17.3748C5.00298 17.3757 5.00512 17.3767 5.00726 17.3776C5.01154 17.3796 5.01582 17.3815 5.02069 17.3828C7.20875 18.3477 9.57344 18.8471 12.0039 18.8484H12.0072ZM17.977 7.67691L17.1801 6.85614L17.1608 6.87383L17.1608 6.87387C17.1281 6.9038 17.0956 6.93366 17.0612 6.96305L17.0626 6.96438C17.0121 7.0083 16.9595 7.05046 16.9068 7.09264L16.8713 7.1211L16.8554 7.13404C16.8437 7.14362 16.8321 7.1531 16.8202 7.16227C16.7883 7.18817 16.7551 7.2134 16.7219 7.23797C16.6562 7.28911 16.5898 7.33891 16.522 7.38805C16.5178 7.3904 16.5139 7.39309 16.5098 7.39588L16.5098 7.39589L16.5047 7.39934L16.4624 7.42991L16.4623 7.42997C16.429 7.45406 16.3955 7.47832 16.362 7.5016L16.937 8.50766C17.3043 8.25598 17.6509 7.97905 17.977 7.67691ZM8.54175 8.04245C8.84058 8.1912 9.1487 8.32202 9.46679 8.43226L9.16465 9.56447C8.75626 9.42436 8.3598 9.2537 7.97465 9.05447L8.54175 8.04245ZM14.3306 11.8018L14.0756 10.813C13.4095 10.9577 12.7282 11.0348 12.0409 11.0368C12.0276 11.0381 12.015 11.0381 12.0017 11.0381C11.2832 11.0381 10.5693 10.9564 9.8721 10.8004L9.60912 11.7858C10.3828 11.9638 11.1849 12.0588 12.0024 12.0588C12.7986 12.0588 13.5776 11.9698 14.3306 11.8018ZM7.67603 7.53777C7.36126 7.32593 7.0631 7.09086 6.78221 6.83586L5.98733 7.64269C6.33795 7.9714 6.7138 8.27288 7.11291 8.54117L7.67603 7.53777ZM13.5313 8.70354L13.8261 9.84306C13.4005 9.93404 12.9662 9.99314 12.5305 10.0197L12.5252 8.83768C12.8665 8.81444 13.2026 8.77061 13.5313 8.70354ZM11.5241 8.84023C11.1529 8.81831 10.7883 8.7705 10.4311 8.69746L10.1283 9.83234C10.5885 9.93327 11.0559 9.99702 11.5288 10.0236L11.5241 8.84023ZM9.34902 12.7492C10.2063 12.9484 11.0936 13.0553 12.0007 13.0553C12.8812 13.0553 13.7445 12.9557 14.5779 12.7664L15.7759 17.4101C14.5526 17.699 13.2896 17.8471 12.006 17.8471H12.0026C10.6792 17.8471 9.37493 17.6877 8.11255 17.3789L9.34902 12.7492ZM16.0808 9.02472L15.503 8.01203C15.1783 8.17805 14.8423 8.32082 14.4963 8.43968L14.7905 9.57854C15.2341 9.42913 15.6651 9.24385 16.0808 9.02472Z" fill="currentColor"/> </g> <defs> <clipPath id="clip0_13142_82110"> <rect width="24" height="24" fill="white"/> </clipPath> </defs> </symbol>
  <symbol fill="none" id="betsTicketIcon" viewBox="0 0 10 17"><path d="M9.19579 0.5H6.66947C6.41684 0.5 6.19789 0.718947 6.19789 0.971579C6.19789 1.72947 5.59158 2.33579 4.83368 2.33579C4.07579 2.33579 3.46947 1.72947 3.46947 0.971579C3.46947 0.718947 3.25053 0.5 2.99789 0.5H0.471579C0.218948 0.5 0 0.718947 0 0.971579V16.0284C0 16.2811 0.218948 16.5 0.471579 16.5H2.99789C3.25053 16.5 3.46947 16.2811 3.46947 16.0284C3.46947 15.2705 4.07579 14.6642 4.83368 14.6642C5.59158 14.6642 6.19789 15.2705 6.19789 16.0284C6.19789 16.2811 6.41684 16.5 6.66947 16.5H9.19579C9.44842 16.5 9.66737 16.2811 9.66737 16.0284V0.971579C9.66737 0.718947 9.44842 0.5 9.19579 0.5ZM2.77895 5.36737L4.05895 5.28316C4.09263 5.28316 4.10947 5.26632 4.12632 5.23263L4.61474 4.05368C4.69895 3.83474 5.00211 3.83474 5.08632 4.05368L5.57474 5.23263C5.59158 5.26632 5.60842 5.28316 5.64211 5.28316L6.92211 5.36737C7.15789 5.38421 7.24211 5.67053 7.07368 5.82211L6.09684 6.64737C6.08 6.66421 6.06316 6.6979 6.06316 6.73158L6.36632 7.9779C6.41684 8.19684 6.18105 8.38211 5.97895 8.26421L4.90105 7.59053C4.88421 7.57368 4.85053 7.57368 4.81684 7.59053L3.73895 8.26421C3.53684 8.38211 3.30105 8.21368 3.35158 7.9779L3.65474 6.73158C3.65474 6.6979 3.65474 6.68105 3.62105 6.64737L2.62737 5.80526C2.45895 5.67053 2.54316 5.38421 2.77895 5.36737ZM7.49474 12.9295H2.17263C1.92 12.9295 1.70105 12.7105 1.70105 12.4579C1.70105 12.2053 1.92 11.9863 2.17263 11.9863H7.51158C7.76421 11.9863 7.98316 12.2053 7.98316 12.4579C7.98316 12.7105 7.76421 12.9295 7.49474 12.9295ZM7.49474 10.6726H2.17263C1.92 10.6726 1.70105 10.4537 1.70105 10.2011C1.70105 9.94842 1.92 9.72947 2.17263 9.72947H7.51158C7.76421 9.72947 7.98316 9.94842 7.98316 10.2011C7.98316 10.4537 7.76421 10.6726 7.49474 10.6726Z" fill="currentColor" /></symbol>
  <symbol fill="none" id="allBetsIcon" viewBox="0 0 17 17"><path d="M3.58659 6.33919C5.19903 6.33919 6.50618 5.03204 6.50618 3.41959C6.50618 1.80715 5.19903 0.5 3.58659 0.5C1.97414 0.5 0.666992 1.80715 0.666992 3.41959C0.666992 5.03204 1.97414 6.33919 3.58659 6.33919Z" fill="currentColor"/> <path d="M3.58659 16.4998C5.19903 16.4998 6.50618 15.1927 6.50618 13.5802C6.50618 11.9678 5.19903 10.6606 3.58659 10.6606C1.97414 10.6606 0.666992 11.9678 0.666992 13.5802C0.666992 15.1927 1.97414 16.4998 3.58659 16.4998Z" fill="currentColor"/> <path d="M13.7477 6.33919C15.3602 6.33919 16.6673 5.03204 16.6673 3.41959C16.6673 1.80715 15.3602 0.5 13.7477 0.5C12.1353 0.5 10.8281 1.80715 10.8281 3.41959C10.8281 5.03204 12.1353 6.33919 13.7477 6.33919Z" fill="currentColor"/> <path d="M13.7477 16.4998C15.3602 16.4998 16.6673 15.1927 16.6673 13.5802C16.6673 11.9678 15.3602 10.6606 13.7477 10.6606C12.1353 10.6606 10.8281 11.9678 10.8281 13.5802C10.8281 15.1927 12.1353 16.4998 13.7477 16.4998Z" fill="currentColor"/> </symbol>
  <symbol fill="none" id="topCrownIcon" viewBox="0 0 15 14"> <path d="M13.6974 2.37327C12.9871 2.37327 12.4076 2.95277 12.4076 3.66313C12.4076 4.22394 12.7815 4.70998 13.2862 4.87822L11.0616 7.15885C11.0429 7.17754 11.0429 7.17754 11.0242 7.19624L11.0056 7.21493C10.9869 7.21493 10.9682 7.23362 10.9682 7.23362C10.9682 7.23362 10.9495 7.25232 10.9308 7.25232C10.9121 7.25232 10.8934 7.27101 10.8747 7.27101C10.856 7.27101 10.856 7.27101 10.8373 7.27101C10.7999 7.27101 10.7812 7.28971 10.7438 7.28971C10.7065 7.28971 10.6691 7.28971 10.6317 7.27101H10.613C10.5756 7.25232 10.5569 7.25232 10.5195 7.23362C10.5195 7.23362 10.5195 7.23362 10.5008 7.23362C10.4634 7.21493 10.4447 7.19624 10.426 7.15885L10.4074 7.14016C10.3887 7.12146 10.37 7.08408 10.3513 7.06538C10.3513 7.06538 10.3513 7.06538 10.3513 7.04669L10.2952 6.95322L7.9211 2.878C8.42583 2.70976 8.7997 2.22372 8.7997 1.66291C8.7997 0.952551 8.22019 0.373047 7.50983 0.373047C6.79948 0.373047 6.21997 0.952551 6.21997 1.66291C6.21997 2.22372 6.59385 2.70976 7.09857 2.878L4.6684 7.08408C4.6684 7.08408 4.6684 7.08407 4.6684 7.10277C4.6497 7.12146 4.63101 7.15885 4.61232 7.17754C4.61232 7.17754 4.61232 7.19624 4.59362 7.19624C4.57493 7.21493 4.53754 7.23362 4.51885 7.27101C4.51885 7.27101 4.50015 7.27101 4.50015 7.28971C4.48146 7.3084 4.44407 7.3084 4.42538 7.32709C4.42538 7.32709 4.40668 7.32709 4.38799 7.32709C4.3506 7.32709 4.31322 7.34579 4.27583 7.34579C4.23844 7.34579 4.21975 7.34579 4.18236 7.32709C4.18236 7.32709 4.16367 7.32709 4.14497 7.32709C4.12628 7.32709 4.10759 7.3084 4.08889 7.3084C4.08889 7.3084 4.0702 7.28971 4.05151 7.28971C4.03281 7.27101 4.01412 7.27101 4.01412 7.25232C4.01412 7.25232 3.99542 7.23362 3.97673 7.23362C3.95804 7.21493 3.95804 7.21493 3.93934 7.19624C3.93934 7.19624 3.93934 7.19624 3.92065 7.17754L3.28506 6.52327L1.7148 4.89692C2.21953 4.72867 2.5934 4.24264 2.5934 3.68183C2.5934 2.97147 2.01389 2.39196 1.30354 2.39196C0.593176 2.39196 0.0136719 2.97147 0.0136719 3.68183C0.0136719 4.31741 0.46232 4.84083 1.07921 4.953L1.67741 11.3836H13.3049L13.9218 4.9343C14.52 4.82214 14.9873 4.29872 14.9873 3.66313C14.9873 2.95277 14.4078 2.37327 13.6974 2.37327Z" fill="currentColor"/> <path d="M13.2486 12.1875H1.75195V13.6269H13.2486V12.1875Z" fill="currentColor"/> </symbol>
  <symbol fill="none" id="goldenCupIcon" viewBox="0 0 18 18"> <path d="M6.50016 4.83295L7.02223 4.98211C7.11546 5.11263 7.20869 5.2245 7.30191 5.31773C7.63753 5.65335 8.02909 5.87709 8.49523 6.00761V6.32459C8.49523 6.9026 8.02909 7.38738 7.45108 7.38738H7.3392C7.24598 7.38738 7.17139 7.46196 7.17139 7.55519V8.24507C7.17139 8.3383 7.24598 8.41288 7.3392 8.41288H11.031C11.1242 8.41288 11.1988 8.3383 11.1988 8.24507V7.55519C11.1988 7.46196 11.1242 7.38738 11.031 7.38738H10.9191C10.3411 7.38738 9.87499 6.92124 9.87499 6.34323V6.02626C10.3411 5.91438 10.7327 5.69064 11.0683 5.33637C11.1615 5.24315 11.2361 5.13127 11.348 5.00075L11.8701 4.87024C13.1752 4.51597 14.0889 3.32266 14.0889 1.98018V1.42082C14.0889 1.23436 13.9397 1.06655 13.7346 1.06655H12.2057V0.488542C12.2057 0.302087 12.0565 0.134277 11.8514 0.134277H6.50016C6.3137 0.134277 6.14589 0.283441 6.14589 0.488542V1.0852H4.61696C4.4305 1.0852 4.2627 1.23436 4.2627 1.43946V1.96154C4.28134 3.30401 5.17633 4.49733 6.50016 4.83295ZM12.1684 1.99883H13.138C13.1193 2.81923 12.6159 3.54641 11.8701 3.86338C12.1125 3.09891 12.1684 2.33445 12.1684 1.99883ZM6.16454 1.99883C6.18318 2.35309 6.22047 3.09891 6.46287 3.86338C5.71704 3.54641 5.21362 2.81923 5.19497 1.99883H6.16454Z" fill="currentColor"/> <path d="M17.1841 12.6823H13.3245V10.0532C13.3245 9.77355 13.1007 9.5498 12.821 9.5498H5.51198C5.2323 9.5498 5.00856 9.77355 5.00856 10.0532V12.6823H1.14894C0.869254 12.6823 0.645508 12.906 0.645508 13.1857V17.3623C0.645508 17.642 0.869254 17.8657 1.14894 17.8657H17.1841C17.4638 17.8657 17.6875 17.642 17.6875 17.3623V13.1857C17.6875 12.906 17.4638 12.6823 17.1841 12.6823ZM11.2362 13.5772L10.453 14.2858C10.4158 14.3231 10.3785 14.3976 10.3971 14.4536L10.6022 15.4977C10.6581 15.7401 10.3785 15.9452 10.1734 15.8147L9.25973 15.2926C9.2038 15.2553 9.12921 15.2553 9.09192 15.2926L8.17829 15.8147C7.95455 15.9452 7.69351 15.7401 7.74945 15.4977L7.95455 14.4536C7.97319 14.3976 7.95455 14.3231 7.89861 14.2858L7.1155 13.5772C6.92904 13.4094 7.02227 13.0925 7.28331 13.0552L8.32746 12.9433C8.38339 12.9433 8.43933 12.906 8.47662 12.8314L8.90547 11.8618C9.01734 11.6381 9.33431 11.6381 9.44619 11.8618L9.87503 12.8314C9.89368 12.8874 9.94962 12.9246 10.0242 12.9433L11.0683 13.0552C11.3294 13.0925 11.4226 13.4094 11.2362 13.5772Z" fill="currentColor"/> </symbol>
</svg>
