<?xml version="1.0" encoding="UTF-8"?>
<!DOCTYPE svg PUBLIC "-//W3C//DTD SVG 1.1//EN" "http://www.w3.org/Graphics/SVG/1.1/DTD/svg11.dtd">
<svg class="h-0 opacity-0 pointer-events-none w-0" fill="none" xmlns="http://www.w3.org/2000/svg">
  <symbol fill="none" id="currency" viewBox="0 0 22 20"> <path d="M19.9025 5.875H2.0975C0.938586 5.875 0 6.82482 0 7.99761V17.5024C0 18.6743 0.938586 19.625 2.0975 19.625H19.9025C21.0614 19.625 22 18.6743 22 17.5024V7.99761C22 6.82482 21.0614 5.875 19.9025 5.875ZM4.03187 18.2099H2.09732C1.71133 18.2099 1.39815 17.893 1.39815 17.5024V15.6156H1.56111C2.21658 15.6156 2.84473 15.8782 3.30812 16.3471C3.7715 16.8161 4.03187 17.4527 4.03187 18.115L4.03187 18.2099ZM4.03187 7.38512V7.38419C4.01912 8.75596 2.91665 9.86057 1.56101 9.86057H1.39805V7.97381C1.39805 7.5832 1.71123 7.26627 2.09722 7.26627H4.03177L4.03187 7.38512ZM10.9998 16.6291C9.98015 16.6291 9.0015 16.2191 8.28047 15.4895C7.55944 14.7598 7.15435 13.7704 7.15435 12.7376C7.15435 11.7058 7.55947 10.7164 8.28047 9.98672C9.0015 9.25615 9.98015 8.8462 10.9998 8.8462C12.0194 8.8462 12.998 9.25617 13.7191 9.98672C14.4401 10.7164 14.8452 11.7058 14.8452 12.7376C14.8452 13.7704 14.4401 14.7598 13.7191 15.4895C12.9981 16.2191 12.0194 16.6291 10.9998 16.6291ZM20.6014 17.5015V17.5024C20.6014 17.893 20.2883 18.21 19.9023 18.21H17.9677V18.1151C17.9677 17.4527 18.2281 16.8161 18.6915 16.3471C19.1549 15.8782 19.783 15.6157 20.4385 15.6157H20.6014L20.6014 17.5015ZM20.6014 9.88347H20.4385V9.88439C19.0738 9.88439 17.9676 8.76505 17.9676 7.38396V7.28999H19.9022C20.2882 7.28999 20.6013 7.60692 20.6013 7.99753L20.6014 9.88347Z" fill="currentColor"/> <path d="M12.4989 13.1063C12.4019 12.9364 12.2661 12.7873 12.1013 12.6696C11.9364 12.5456 11.7521 12.4449 11.5552 12.3703L11.4058 12.3245L11.0344 12.2095V10.9209C11.1702 10.9227 11.2982 10.982 11.3816 11.0827C11.498 11.2202 11.5591 11.3909 11.5552 11.5652V11.6344H12.5231V11.5652H12.5241C12.5319 11.3523 12.4902 11.1402 12.4 10.9443C12.3195 10.7763 12.2011 10.6271 12.0518 10.5076C11.8985 10.3917 11.7211 10.3054 11.5309 10.2542C11.3787 10.203 11.2196 10.1725 11.0586 10.1626V9.72498H10.4631V10.1626C10.0945 10.1823 9.74052 10.3027 9.44471 10.5076C9.28758 10.6253 9.15957 10.7745 9.07227 10.9443C8.97431 11.1303 8.9229 11.3352 8.92387 11.5428C8.91708 11.7647 8.96849 11.9858 9.07227 12.1861C9.16926 12.3569 9.30504 12.506 9.46993 12.6237C9.63676 12.7396 9.82008 12.8322 10.016 12.8996L10.1653 12.9454L10.4883 13.0604V14.5556H10.4874C10.2924 14.5556 10.1081 14.4703 9.99077 14.3256C9.85886 14.1342 9.79776 13.9087 9.81716 13.6813V13.6121L8.79973 13.613V13.6822V13.6813C8.79197 13.9167 8.83464 14.1513 8.92387 14.3714C9.00631 14.5637 9.13337 14.7362 9.29631 14.8782C9.46022 15.0202 9.65517 15.1298 9.86662 15.1999C10.0577 15.2682 10.2584 15.3068 10.4631 15.3149V15.775H11.0586V15.3149C11.2458 15.3005 11.4301 15.2619 11.6046 15.1999C11.8064 15.1343 11.9916 15.0328 12.1517 14.9007C12.3001 14.7713 12.4184 14.6149 12.4989 14.4406C12.5988 14.2222 12.6502 13.9877 12.6482 13.7505C12.655 13.5277 12.6037 13.3066 12.4989 13.1063ZM10.4631 12.0711H10.4379L10.339 12.0253L10.1159 11.9103L9.96653 11.7261C9.92967 11.6551 9.91221 11.576 9.91706 11.496C9.89476 11.3262 9.95877 11.1564 10.0907 11.036C10.2022 10.9506 10.3419 10.9012 10.4874 10.8985L10.4631 12.0711ZM11.4815 14.3949H11.4805C11.3622 14.4928 11.2158 14.5566 11.0586 14.5791V13.1989H11.1081L11.207 13.2447L11.4553 13.3831H11.4563C11.6231 13.4936 11.7172 13.676 11.7046 13.8657C11.7162 14.0687 11.6241 14.2646 11.4563 14.3949L11.4815 14.3949Z" fill="currentColor"/> <path d="M2.20117 3.95C2.20117 4.40545 2.51075 4.775 2.89229 4.775H19.1101C19.4916 4.775 19.8012 4.40545 19.8012 3.95C19.8012 3.49454 19.4916 3.125 19.1101 3.125H2.89229C2.51075 3.125 2.20117 3.49454 2.20117 3.95Z" fill="currentColor"/> <path d="M16.8973 2.025C17.2849 2.025 17.5994 1.65655 17.5994 1.2C17.5994 0.744545 17.2849 0.375 16.8973 0.375H5.10157C4.71393 0.375 4.39941 0.744545 4.39941 1.2C4.39941 1.65655 4.71393 2.025 5.10157 2.025H16.8973Z" fill="currentColor"/> </symbol>
  <symbol fill="none" id="crown" viewBox="0 0 17 17"> <path d="M16.4111 4.55063C16.4121 4.7422 16.371 4.93166 16.2907 5.10558C16.2104 5.27951 16.0928 5.43367 15.9464 5.55713C15.7999 5.6806 15.6281 5.77037 15.443 5.82008C15.258 5.86979 15.0644 5.87823 14.8757 5.84481L13.7381 12.5007C13.7327 12.5367 13.7145 12.5695 13.687 12.5932C13.6594 12.617 13.6242 12.63 13.5879 12.63H2.82341C2.78703 12.63 2.75186 12.617 2.7243 12.5933C2.69673 12.5695 2.6786 12.5367 2.67319 12.5007L1.53555 5.84481C1.22533 5.89779 0.9064 5.8377 0.636735 5.67546C0.36707 5.51321 0.164574 5.2596 0.0660568 4.96071C-0.0324598 4.66181 -0.0204558 4.33749 0.0998865 4.0467C0.220229 3.75591 0.44092 3.51796 0.72184 3.3761C1.00276 3.23423 1.32526 3.19788 1.63071 3.27365C1.93616 3.34942 2.20429 3.53227 2.38634 3.78898C2.5684 4.04568 2.6523 4.35919 2.62279 4.67252C2.59328 4.98584 2.45232 5.27817 2.22554 5.49637L5.10996 8.49014L7.65316 3.00668C7.38149 2.88081 7.16094 2.66596 7.02802 2.39767C6.8951 2.12938 6.85777 1.82375 6.92222 1.53136C6.98666 1.23896 7.14901 0.977342 7.3824 0.78979C7.61579 0.602238 7.90622 0.500001 8.20563 0.5C8.50504 0.499999 8.79548 0.602234 9.02887 0.789784C9.26226 0.977335 9.42461 1.23896 9.48906 1.53135C9.5535 1.82374 9.51618 2.12937 9.38326 2.39766C9.25034 2.66595 9.02979 2.88081 8.75813 3.00668L11.3013 8.49013L14.1857 5.49636C14.0294 5.34572 13.9128 5.15868 13.8464 4.95197C13.78 4.74526 13.7659 4.52532 13.8053 4.31182C13.8447 4.09831 13.9364 3.8979 14.0722 3.7285C14.208 3.5591 14.3836 3.42599 14.5834 3.34107C14.7833 3.25616 15.001 3.22208 15.2172 3.24189C15.4334 3.26171 15.6413 3.33479 15.8224 3.45461C16.0034 3.57443 16.152 3.73725 16.2547 3.92851C16.3575 4.11978 16.4112 4.33352 16.4111 4.55063ZM13.8782 16.5C13.904 16.5 13.9295 16.4946 13.953 16.484C13.9765 16.4735 13.9975 16.4581 14.0146 16.4388C14.0318 16.4196 14.0446 16.3969 14.0524 16.3724C14.0602 16.3478 14.0626 16.3218 14.0597 16.2963L13.7342 13.4938C13.7299 13.4568 13.7122 13.4226 13.6844 13.3979C13.6566 13.3731 13.6206 13.3594 13.5834 13.3594H2.8279C2.79065 13.3594 2.7547 13.3731 2.72688 13.3979C2.69906 13.4226 2.68132 13.4568 2.67702 13.4938L2.3516 16.2963C2.34862 16.3218 2.3511 16.3478 2.35886 16.3724C2.36663 16.3969 2.3795 16.4196 2.39664 16.4388C2.41377 16.4581 2.43479 16.4735 2.4583 16.484C2.48181 16.4945 2.50728 16.5 2.53305 16.5H13.8782Z" fill="currentColor"/> </symbol>
  <symbol fill="none" id="loading" viewBox="0 0 24 24"> <circle cx="12" cy="12" r="10" stroke="currentColor" stroke-width="4" stroke-opacity="0.25"/> <path d="M4 12a8 8 0 018-8V0C5.373 0 0 5.373 0 12h4zm2 5.291A7.962 7.962 0 014 12H0c0 3.042 1.135 5.824 3 7.938l3-2.647z" fill="currentColor" fill-opacity="0.75"/> </symbol>
  <symbol id="popular" viewBox="0 0 16 20" fill="none" xmlns="http://www.w3.org/2000/svg">
    <path fill-rule="evenodd" clip-rule="evenodd" d="M12.3061 9.78239C12.9217 8.81964 14.0408 8.31407 15.2086 8.10604C15.2402 8.1012 15.2718 8.1133 15.2913 8.13749C15.3107 8.1641 15.3132 8.19554 15.301 8.22457C14.6733 9.50905 15.1234 10.4234 15.5492 11.4079C16.4785 13.5657 15.9117 15.7186 14.3936 17.482C13.4253 18.6092 12.1091 19.3736 10.6153 19.7582C10.5958 19.7631 10.5739 19.7534 10.5666 19.7341C10.5593 19.7147 10.5666 19.6929 10.5837 19.6808C11.5228 19.1148 12.2015 18.1787 12.3889 16.8966C12.5689 15.6726 11.4473 15.0582 11.968 13.885C11.9801 13.8559 11.9777 13.8245 11.9558 13.7979C11.9363 13.7737 11.9047 13.7616 11.8731 13.7689C11.3087 13.8801 10.7734 14.1244 10.4377 14.555C10.4134 14.5865 10.3744 14.5961 10.338 14.5816C10.3015 14.5671 10.282 14.5308 10.2869 14.4946C10.6421 11.5507 8.80038 10.2154 7.68855 9.36633C7.66179 9.34456 7.6253 9.34214 7.59367 9.36149C7.56448 9.37842 7.54745 9.41229 7.55231 9.44615C7.79317 11.1225 6.91733 11.7442 6.61322 12.4578C6.60106 12.4892 6.57186 12.5086 6.54024 12.5086C6.50618 12.5086 6.47698 12.4941 6.46239 12.465C6.25559 12.078 5.6863 11.7103 5.00023 11.616C4.97347 11.6111 4.94914 11.6208 4.92968 11.6402C4.91021 11.6595 4.90291 11.6837 4.90535 11.7103C5.23135 13.9575 3.48212 14.6179 3.59403 16.5797C3.65972 17.7263 4.36768 18.7616 5.37732 19.451C5.39435 19.4631 5.40165 19.4849 5.39192 19.5043C5.38219 19.5236 5.36029 19.5309 5.34083 19.5236C3.63539 18.9116 2.13674 17.8061 1.16602 16.4201C-0.546722 13.9769 -0.220717 11.8337 1.16115 9.35181C1.93238 7.96816 2.74495 6.57725 2.38976 4.2889C2.38489 4.26229 2.39462 4.2381 2.41165 4.21875C2.43111 4.1994 2.45544 4.18972 2.4822 4.19456C3.84948 4.35421 4.98077 5.12103 5.29704 5.88784C5.31164 5.92171 5.34083 5.94106 5.37732 5.94106C5.41382 5.94106 5.44301 5.91929 5.45518 5.88542C5.95391 4.50177 7.73234 3.38662 7.19225 0.0968158C7.18738 0.0629501 7.20198 0.0290846 7.23117 0.0121518C7.26037 -0.00478105 7.29686 -0.00478117 7.32605 0.0169896C9.36724 1.58207 12.9728 4.05668 12.1553 9.72675C12.1504 9.76546 12.1723 9.80416 12.2088 9.81867C12.2478 9.83319 12.2867 9.81868 12.3086 9.78481L12.3061 9.78239ZM8.25298 19.9735C8.33813 20.0195 8.44031 20.005 8.50843 19.9348C8.94392 19.4825 9.2164 19.0398 9.28452 18.6334C9.50348 17.2981 7.67882 16.7345 8.36976 14.959C8.36976 14.959 6.81758 16.2411 6.69837 17.6779C6.63269 18.4593 6.99275 19.2841 8.25541 19.9735H8.25298Z" fill="currentColor"/>
  </symbol>
  <symbol id="newest" viewBox="0 0 16 17" fill="none" xmlns="http://www.w3.org/2000/svg">
    <path d="M4.84627 12.6944C4.65844 13.0017 4.29985 13.1725 4.0608 13.2237C3.66806 13.3091 3.27532 13.3262 2.98504 13.5652C2.89966 13.6335 2.74598 13.5823 2.7289 13.4798C2.67768 13.1383 2.78013 12.7456 2.93381 12.5236C2.86551 12.5236 2.79721 12.5407 2.7289 12.5748C2.60937 12.6261 2.47277 12.5236 2.50692 12.4041C2.60937 12.0114 2.88258 11.4479 3.32655 11.2259L2.83136 10.7307C2.7289 10.6282 2.6606 10.5258 2.5923 10.4062C1.1921 10.5941 0.32125 12.2333 0.0138901 13.3603C-0.0714877 13.6677 0.252948 13.9067 0.543232 13.7701C0.679837 13.7018 0.850592 13.6677 1.00427 13.6677C0.645686 14.2141 0.406628 15.102 0.543232 15.9217C0.594459 16.1949 0.918894 16.3144 1.1238 16.1436C1.80682 15.5801 2.71183 15.5289 3.63391 15.3411C4.35108 15.2045 5.51222 14.5385 5.7342 13.4628C5.58052 13.3945 5.42684 13.3091 5.30731 13.1725L4.84627 12.6944Z" fill="currentColor"/>
    <path d="M14.8697 0.00333462L12.1888 0.208241C10.8398 0.310695 9.55916 0.891263 8.60293 1.86457L6.2465 4.20392L5.95622 4.10147C4.89753 3.70873 3.71932 4.03317 2.98507 4.88694L1.31167 6.85063C1.07261 7.12384 1.19214 7.55073 1.53365 7.68733C2.38743 7.99469 3.1729 8.42158 3.90715 8.93385L3.42903 9.41196C3.2412 9.5998 3.2412 9.89008 3.42903 10.0608L5.93914 12.5539C6.12697 12.7417 6.41726 12.7417 6.58801 12.5539L7.06613 12.0758C7.59547 12.81 8.00528 13.6126 8.31264 14.4493C8.43217 14.7908 8.85906 14.9103 9.14934 14.6712L11.113 12.9978C11.9668 12.2636 12.2742 11.0854 11.8985 10.0267L11.7961 9.7364L14.1354 7.39705C15.0916 6.44082 15.6893 5.16015 15.7917 3.81118L15.9966 1.13032C16.0479 0.498526 15.5185 -0.047892 14.8697 0.00333462ZM11.8644 6.35544C11.2496 6.97016 10.2593 6.97016 9.64454 6.35544C9.02982 5.74072 9.02982 4.75034 9.64454 4.13562C10.2593 3.5209 11.2496 3.5209 11.8644 4.13562C12.4791 4.75034 12.4791 5.74072 11.8644 6.35544Z" fill="currentColor"/>
  </symbol>
  <symbol id="a-z" viewBox="0 0 17 18" fill="none" xmlns="http://www.w3.org/2000/svg">
    <path d="M7.64915 12.6816H6L6 0.5C6 0.303268 5.64982 0 5.5 0H2.5C2.35033 0 2 0.3033 2 0.5V12.6816H0.350716C-0.0234489 12.6816 -0.11225 12.9636 0.152403 13.3114L3.52089 17.7391C3.78554 18.087 4.21445 18.087 4.4791 17.7391L7.84776 13.3114C8.11227 12.9636 8.02332 12.6816 7.64915 12.6816Z" fill="currentColor"/>
    <path d="M14.0226 0.186403C13.9776 0.0739209 13.8687 0 13.748 0H12.1716C12.0498 0 11.9402 0.075085 11.8959 0.189071L9.0202 7.59542C8.98471 7.68685 8.9965 7.78988 9.05153 7.87059C9.10689 7.95164 9.19832 8 9.29599 8H10.8773C11.0016 8 11.1128 7.92196 11.1555 7.80467L11.694 6.31777H14.2345L14.8061 7.80972C14.8499 7.92428 14.96 8 15.0825 8H16.7041C16.8023 8 16.8941 7.95101 16.9491 7.86938C17.0041 7.78774 17.0154 7.68414 16.9787 7.59271L14.0226 0.186403ZM13.5338 4.47619H12.3676L12.9448 2.88505L13.5338 4.47619Z" fill="currentColor"/>
    <path d="M15.7305 16.3886H12.4721L15.7976 12.44C15.8367 12.3938 15.8579 12.3358 15.8579 12.2764V11.2597C15.8579 11.1164 15.7373 11 15.5885 11H10.6684C10.5197 11 10.399 11.1164 10.399 11.2597V12.3561C10.399 12.4995 10.5197 12.6158 10.6684 12.6158H13.2355L10.0601 16.3967C10.0213 16.4428 10 16.5005 10 16.5601V17.7403C10 17.8837 10.1207 18 10.2694 18H15.7306C15.8793 18 16 17.8837 16 17.7403V16.6483C16 16.5049 15.8792 16.3886 15.7305 16.3886Z" fill="currentColor"/>
  </symbol>
  <symbol id="z-a" xmlns="http://www.w3.org/2000/svg" viewBox="0 0 17 18" fill="none">
    <path d="M7.64915 12.6816H6L6 0.5C6 0.303268 5.64982 0 5.5 0H2.5C2.35033 0 2 0.3033 2 0.5V12.6816H0.350716C-0.0234489 12.6816 -0.11225 12.9636 0.152403 13.3114L3.52089 17.7391C3.78554 18.087 4.21445 18.087 4.4791 17.7391L7.84776 13.3114C8.11227 12.9636 8.02332 12.6816 7.64915 12.6816Z" fill="currentColor"/>
    <path d="M15.7305 5.38859H12.4721L15.7976 1.43999C15.8367 1.39377 15.8579 1.33584 15.8579 1.27638V0.25974C15.8579 0.116374 15.7373 0 15.5885 0H10.6684C10.5197 0 10.399 0.116374 10.399 0.25974V1.35612C10.399 1.49949 10.5197 1.61582 10.6684 1.61582H13.2355L10.0601 5.39666C10.0213 5.44283 10 5.50051 10 5.56005V6.7403C10 6.88371 10.1207 7 10.2694 7H15.7306C15.8793 7 16 6.88371 16 6.7403V5.64829C16 5.50488 15.8792 5.38859 15.7305 5.38859Z" fill="currentColor"/>
    <path d="M14.0226 10.1864C13.9776 10.0739 13.8687 10 13.748 10H12.1716C12.0498 10 11.9402 10.0751 11.8959 10.1891L9.0202 17.5954C8.98471 17.6869 8.9965 17.7899 9.05153 17.8706C9.10689 17.9516 9.19832 18 9.29599 18H10.8773C11.0016 18 11.1128 17.922 11.1555 17.8047L11.694 16.3178H14.2345L14.8061 17.8097C14.8499 17.9243 14.96 18 15.0825 18H16.7041C16.8023 18 16.8941 17.951 16.9491 17.8694C17.0041 17.7877 17.0154 17.6841 16.9787 17.5927L14.0226 10.1864ZM13.5338 14.4762H12.3676L12.9448 12.8851L13.5338 14.4762Z" fill="currentColor"/>
  </symbol>
  <symbol id="rules" xmlns="http://www.w3.org/2000/svg" viewBox="0 0 21 22" fill="none">
    <path d="M7.71674 3.56299C7.71674 3.1553 7.71674 2.95103 7.78318 2.79025C7.87178 2.57616 8.04241 2.40553 8.2565 2.31693C8.41728 2.25049 8.62154 2.25049 9.02924 2.25049H11.9709C12.3786 2.25049 12.5829 2.25049 12.7437 2.31693C12.9578 2.40553 13.1284 2.57616 13.217 2.79025C13.2834 2.95103 13.2834 3.1553 13.2834 3.56299C13.2834 3.97068 13.2834 4.17413 13.217 4.33491C13.1284 4.54982 12.9578 4.71963 12.7437 4.80905C12.5829 4.87549 12.3786 4.87549 11.9709 4.87549H9.02924C8.62154 4.87549 8.41728 4.87549 8.2565 4.80905C8.04241 4.71963 7.87178 4.54982 7.78318 4.33491C7.71674 4.17413 7.71674 3.97068 7.71674 3.56299Z" fill="currentColor"/>
    <path fill-rule="evenodd" clip-rule="evenodd" d="M6.65036 2.94767C6.32387 2.97966 6.02775 3.03872 5.74473 3.15603C4.94001 3.48907 4.3018 4.1281 3.96876 4.932C3.83013 5.26586 3.77271 5.61941 3.74564 6.01892C3.71857 6.40775 3.71857 6.88435 3.71857 7.47661V14.1105C3.71857 15.3073 3.71857 16.2712 3.82111 17.0299C3.92693 17.8174 4.15333 18.4811 4.67996 19.0077C5.2066 19.5344 5.86942 19.7608 6.65692 19.8666C7.41572 19.9683 8.3804 19.9683 9.57719 19.9683H11.4229C12.6197 19.9683 13.5844 19.9683 14.3432 19.8666C15.1307 19.7608 15.7935 19.5344 16.3201 19.0077C16.8468 18.4811 17.0732 17.8174 17.179 17.0299C17.2815 16.2711 17.2815 15.3073 17.2815 14.1105V6.96148C17.2815 6.24534 17.2815 5.75726 17.1691 5.33808C16.8664 4.20605 15.9813 3.32174 14.8493 3.01821C14.6934 2.97637 14.5285 2.95012 14.3456 2.93372C14.3866 3.07071 14.4145 3.21425 14.4284 3.36111C14.4375 3.46529 14.4375 3.5752 14.4375 3.64412V3.68514C14.4375 3.75405 14.4375 3.86397 14.4284 3.96816C14.3317 5.01734 13.4998 5.84913 12.4507 5.94594C12.3465 5.95496 12.2374 5.95496 12.1685 5.95496H8.83136C8.76245 5.95496 8.65335 5.95496 8.54916 5.94594C7.49998 5.84914 6.66819 5.01734 6.57138 3.96816C6.56236 3.86398 6.56236 3.75406 6.56236 3.68514V3.64412C6.56236 3.57522 6.56236 3.4653 6.57138 3.36111C6.58451 3.21919 6.61158 3.08057 6.65013 2.94766L6.65036 2.94767ZM7.68478 7.44461H8.0654C8.20239 7.44461 8.35006 7.44461 8.47555 7.46184C8.62239 7.48152 8.80941 7.53156 8.96691 7.68988C9.12441 7.84738 9.17527 8.0344 9.19495 8.18123C9.21218 8.30592 9.21218 8.4544 9.21136 8.59139V8.97201C9.21218 9.109 9.21218 9.25748 9.19495 9.38216C9.17526 9.529 9.1244 9.71602 8.96691 9.87352C8.80942 10.031 8.62239 10.0819 8.47555 10.1016C8.35004 10.1188 8.20238 10.1188 8.0654 10.1188H7.68478C7.54778 10.1188 7.3993 10.1188 7.27463 10.1016C7.12779 10.0819 6.94077 10.031 6.78327 9.87352C6.62495 9.71602 6.57491 9.52899 6.55523 9.38216C6.538 9.25747 6.538 9.10899 6.538 8.97201V8.59139C6.538 8.45439 6.538 8.30591 6.55523 8.18123C6.57492 8.0344 6.62495 7.84738 6.78327 7.68988C6.94077 7.53156 7.12779 7.48152 7.27463 7.46184C7.39931 7.44461 7.54779 7.44461 7.68478 7.44461ZM7.27463 11.4019C7.39931 11.3854 7.54779 11.3854 7.68478 11.3854H8.0654C8.20239 11.3854 8.35006 11.3854 8.47555 11.4019C8.62239 11.4215 8.80941 11.4724 8.96691 11.6299C9.12441 11.7874 9.17527 11.9752 9.19495 12.1212C9.21218 12.2468 9.21218 12.3952 9.21136 12.5322V12.912C9.21218 13.0498 9.21218 13.1975 9.19495 13.323C9.17526 13.469 9.1244 13.6569 8.96691 13.8144C8.80942 13.9719 8.62239 14.0227 8.47555 14.0424C8.35004 14.0588 8.20238 14.0588 8.0654 14.0588H7.68478C7.54778 14.0588 7.3993 14.0588 7.27463 14.0424C7.12779 14.0227 6.94077 13.9718 6.78327 13.8144C6.62495 13.6569 6.57491 13.469 6.55523 13.323C6.538 13.1975 6.538 13.049 6.538 12.912V12.5322C6.538 12.3952 6.538 12.2467 6.55523 12.1212C6.57492 11.9752 6.62495 11.7874 6.78327 11.6299C6.94077 11.4724 7.12779 11.4215 7.27463 11.4019ZM7.68478 15.3263C7.54778 15.3263 7.3993 15.3263 7.27463 15.3427C7.12779 15.3624 6.94077 15.4133 6.78327 15.5708C6.62495 15.7283 6.57491 15.9153 6.55523 16.0621C6.538 16.1876 6.538 16.3353 6.538 16.4731V16.8529C6.538 16.9899 6.538 17.1384 6.55523 17.2639C6.57492 17.4099 6.62495 17.5969 6.78327 17.7552C6.94077 17.9127 7.12779 17.9636 7.27463 17.9833C7.39931 17.9997 7.54779 17.9997 7.68478 17.9997H8.0654C8.20239 17.9997 8.35006 17.9997 8.47555 17.9833C8.62239 17.9636 8.80941 17.9127 8.96691 17.7552C9.12441 17.5969 9.17527 17.4099 9.19495 17.2639C9.21218 17.1384 9.21218 16.9899 9.21136 16.8529V16.4731C9.21218 16.3353 9.21218 16.1876 9.19495 16.0621C9.17526 15.9153 9.1244 15.7283 8.96691 15.5708C8.80942 15.4133 8.62239 15.3624 8.47555 15.3427C8.35004 15.3263 8.20238 15.3263 8.0654 15.3263H7.68478ZM11.0882 8.28398H13.9298C14.2234 8.28398 14.4621 8.52187 14.4621 8.81637C14.4621 9.11004 14.2234 9.34877 13.9298 9.34877H11.0882C10.7946 9.34877 10.5559 9.11006 10.5559 8.81637C10.5559 8.52189 10.7946 8.28398 11.0882 8.28398ZM13.9298 12.1896H11.0882C10.7946 12.1896 10.5559 12.4283 10.5559 12.7228C10.5559 13.0164 10.7946 13.2552 11.0882 13.2552H13.9298C14.2234 13.2552 14.4621 13.0165 14.4621 12.7228C14.4621 12.4283 14.2234 12.1896 13.9298 12.1896ZM11.0882 16.096H13.9298C14.2234 16.096 14.4621 16.3347 14.4621 16.6284C14.4621 16.9229 14.2234 17.1616 13.9298 17.1616H11.0882C10.7946 17.1616 10.5559 16.9229 10.5559 16.6284C10.5559 16.3347 10.7946 16.096 11.0882 16.096Z" fill="currentColor"/>
  </symbol>
  <symbol id="rain" viewBox="0 0 12 16" fill="none">
    <path
      d="M7.47972 1.764C7.11024 1.22065 6.78422 0.720756 6.47994 0.264335C6.43647 0.199132 6.37127 0.133929 6.30607 0.0904599C6.04525 -0.0834148 5.69751 0.00352253 5.52363 0.264335C5.24108 0.720756 4.91507 1.19891 4.52385 1.764C2.80684 4.28519 0.242188 8.08869 0.242188 10.2621C0.242188 11.8487 0.894217 13.2832 1.93747 14.3264C2.98071 15.348 4.41518 16 6.00179 16C7.58839 16 9.02286 15.348 10.0661 14.3047C11.1094 13.2615 11.7614 11.827 11.7614 10.2404C11.7614 8.06696 9.19673 4.28519 7.47972 1.764ZM9.28367 13.5223C8.43603 14.3699 7.28411 14.8698 6.00179 14.8698C4.71946 14.8698 3.56754 14.3482 2.7199 13.5223C1.87226 12.6746 1.37237 11.5227 1.37237 10.2404C1.37237 8.41471 3.82835 4.78508 5.45843 2.37256C5.65404 2.09002 5.82791 1.80747 6.00179 1.56839C6.17566 1.80747 6.34953 2.09002 6.54514 2.37256C8.17522 4.80681 10.6312 8.41471 10.6312 10.2404C10.6312 11.5227 10.1096 12.6746 9.28367 13.5223Z"
      fill="currentColor" />
    <path
      d="M9.37238 9.84903C9.0681 9.82729 8.80729 10.0664 8.78555 10.3707C8.76382 10.8488 8.61168 11.3052 8.3726 11.6964C8.13352 12.0877 7.78577 12.4354 7.37282 12.6528C7.11201 12.8049 7.00334 13.1526 7.15548 13.4135C7.32935 13.7177 7.6771 13.8047 7.93791 13.6525C8.52474 13.3265 9.00289 12.8484 9.32891 12.305C9.67666 11.7617 9.87227 11.1096 9.894 10.4359C9.91574 10.1316 9.67666 9.87076 9.37238 9.84903Z"
      fill="currentColor" />
  </symbol>
  <symbol id="messenger" xmlns="http://www.w3.org/2000/svg" viewBox="0 0 18 16" fill="none">
    <path d="M9.0013 0.165605C8.9263 0.163 8.83776 0.161438 8.7487 0.161438C4.37995 0.161438 0.820573 3.62654 0.66849 7.95831L0.667969 7.97238C0.670936 9.82782 1.36503 11.6156 2.61484 12.987L2.60964 12.9807C2.43047 14.0297 2.11745 14.9693 1.68464 15.8385L1.7112 15.7791C2.91797 15.676 4.02318 15.3286 5.00651 14.787L4.9638 14.8083C6.12891 15.4203 7.50911 15.7791 8.9737 15.7791H9.00286H9.0013C9.07943 15.7818 9.17161 15.7833 9.2638 15.7833C13.6305 15.7833 17.1878 12.3172 17.3341 7.98592L17.3346 7.97238C17.182 3.62654 13.6227 0.161959 9.25391 0.161959C9.16484 0.161959 9.07682 0.163521 8.9888 0.166125L9.00182 0.165605H9.0013ZM4.87057 9.45936C4.45976 9.45936 4.06578 9.29616 3.77529 9.00568C3.48481 8.71519 3.32161 8.32121 3.32161 7.9104C3.32161 7.49959 3.48481 7.1056 3.77529 6.81512C4.06578 6.52463 4.45976 6.36144 4.87057 6.36144C5.28138 6.36144 5.67537 6.52463 5.96585 6.81512C6.25634 7.1056 6.41953 7.49959 6.41953 7.9104C6.41953 8.32121 6.25634 8.71519 5.96585 9.00568C5.67537 9.29616 5.28138 9.45936 4.87057 9.45936ZM9.0013 9.45936C8.59049 9.45936 8.19651 9.29616 7.90602 9.00568C7.61554 8.71519 7.45234 8.32121 7.45234 7.9104C7.45234 7.49959 7.61554 7.1056 7.90602 6.81512C8.19651 6.52463 8.59049 6.36144 9.0013 6.36144C9.41211 6.36144 9.80609 6.52463 10.0966 6.81512C10.3871 7.1056 10.5503 7.49959 10.5503 7.9104C10.5503 8.32121 10.3871 8.71519 10.0966 9.00568C9.80609 9.29616 9.41211 9.45936 9.0013 9.45936ZM13.132 9.45936C12.7212 9.45936 12.3272 9.29616 12.0368 9.00568C11.7463 8.71519 11.5831 8.32121 11.5831 7.9104C11.5831 7.49959 11.7463 7.1056 12.0368 6.81512C12.3272 6.52463 12.7212 6.36144 13.132 6.36144C13.5428 6.36144 13.9368 6.52463 14.2273 6.81512C14.5178 7.1056 14.681 7.49959 14.681 7.9104C14.681 8.32121 14.5178 8.71519 14.2273 9.00568C13.9368 9.29616 13.5428 9.45936 13.132 9.45936Z" fill="currentColor"/>
  </symbol>
  <symbol id="charitiesIcon" xmlns="http://www.w3.org/2000/svg" viewBox="0 0 20 20" fill="none">
    <path fill="currentColor" d="M18.2,7.8c-.7-.5-1.4,0-1.7.3l-1.7,2.5s-.3.5-.8.3c-.4,0-.5-.9-.5-1.2l.7-7.1c0,0,0-.5-.2-.8-.2-.2-.5-.4-.8-.4-.3,0-.6,0-.8.2-.4.4-.5,1-.5,1.2l-.7,5.1s0,.6-.4.6-.2-.2-.2-.8c-.1-1.1-.6-6.7-.6-6.7,0,0,0-.5-.5-.8-.3-.2-.6-.2-1-.1-1,.2-1.1,1.2-1,1.8l.5,6.3s0,.4,0,.6c0,0,0,0-.1,0-.2,0-.4-.5-.5-.8l-1.6-5.4s-.2-.5-.6-.7c-.2-.1-.5-.1-.8,0-1,.4-.5,2-.5,2l1.2,5.1c0,.1.2.6,0,.8,0,0,0,.1-.1.1-.3,0-1-1.5-1.6-3.1,0,0-.2-.4-.6-.6-.3-.1-.6-.1-.9,0-.3.1-.5.3-.6.6-.1.5,0,.9.1,1l2.6,8s.9,3.2,4.4,3.9c.3,0,1.2,0,1.5,0,3,0,4.6-3,4.6-3.1l3.9-7.3c.2-.4.3-1.3-.3-1.8h0ZM12.1,14.5c-.4.8-2.6,2.8-2.8,3h0c-.3-.3-2.3-2.3-2.7-3,0,0-1.1-1.4,0-2.3,0,0,1.6-1.4,2.8.5,1.2-1.8,2.8-.5,2.8-.5,1.1,1,0,2.4,0,2.4h0Z"/>
  </symbol>
  <symbol id="leaderboardIcon" xmlns="http://www.w3.org/2000/svg" viewBox="0 0 16 17" fill="none">
    <path d="M5.28284 5.19678L5.75393 5.33137C5.83805 5.44914 5.92217 5.55009 6.00629 5.63421C6.30913 5.93705 6.66244 6.13895 7.08305 6.25672V6.54273C7.08305 7.06429 6.66244 7.50172 6.14089 7.50172H6.03994C5.95582 7.50172 5.88852 7.56902 5.88852 7.65314V8.27564C5.88852 8.35977 5.95582 8.42706 6.03994 8.42706H9.37117C9.45529 8.42706 9.52259 8.35977 9.52259 8.27564V7.65314C9.52259 7.56902 9.45529 7.50172 9.37117 7.50172H9.27023C8.74867 7.50172 8.32806 7.08111 8.32806 6.55956V6.27354C8.74867 6.17259 9.10198 5.9707 9.40482 5.65104C9.48894 5.56692 9.55624 5.46597 9.65719 5.3482L10.1283 5.23043C11.306 4.91076 12.1304 3.834 12.1304 2.62265V2.11791C12.1304 1.94967 11.9958 1.79825 11.8107 1.79825H10.4311V1.27669C10.4311 1.10845 10.2965 0.957031 10.1114 0.957031H5.28284C5.1146 0.957031 4.96318 1.09163 4.96318 1.27669V1.81508H3.58358C3.41534 1.81508 3.26392 1.94967 3.26392 2.13474V2.60582C3.28074 3.81718 4.08831 4.89394 5.28284 5.19678ZM10.3975 2.63947H11.2723C11.2555 3.37974 10.8012 4.0359 10.1283 4.32191C10.347 3.63211 10.3975 2.94231 10.3975 2.63947ZM4.98 2.63947C4.99683 2.95913 5.03048 3.63211 5.24919 4.32191C4.57622 4.0359 4.12196 3.37974 4.10514 2.63947H4.98Z" fill="currentColor"/>
    <path d="M14.9232 12.2799H11.4406V9.90763C11.4406 9.65526 11.2387 9.45337 10.9863 9.45337H4.39117C4.1388 9.45337 3.93691 9.65526 3.93691 9.90763V12.2799H0.454259C0.201893 12.2799 0 12.4818 0 12.7341V16.5028C0 16.7552 0.201893 16.957 0.454259 16.957H14.9232C15.1756 16.957 15.3775 16.7552 15.3775 16.5028V12.7341C15.3775 12.4818 15.1756 12.2799 14.9232 12.2799ZM9.55626 13.0874L8.84963 13.7268C8.81598 13.7604 8.78233 13.8277 8.79916 13.8782L8.98423 14.8204C9.0347 15.0391 8.78234 15.2241 8.59727 15.1064L7.77287 14.6353C7.7224 14.6016 7.6551 14.6016 7.62145 14.6353L6.79706 15.1064C6.59516 15.2241 6.35962 15.0391 6.4101 14.8204L6.59516 13.8782C6.61199 13.8277 6.59516 13.7604 6.54469 13.7268L5.83807 13.0874C5.66982 12.936 5.75394 12.65 5.98949 12.6164L6.93165 12.5154C6.98212 12.5154 7.0326 12.4818 7.06625 12.4145L7.45321 11.5396C7.55415 11.3377 7.84017 11.3377 7.94111 11.5396L8.32808 12.4145C8.3449 12.4649 8.39537 12.4986 8.46267 12.5154L9.40484 12.6164C9.64038 12.65 9.7245 12.936 9.55626 13.0874Z" fill="currentColor"/>
  </symbol>
</svg>
