<?xml version="1.0" encoding="UTF-8"?>
<!DOCTYPE svg PUBLIC "-//W3C//DTD SVG 1.1//EN" "http://www.w3.org/Graphics/SVG/1.1/DTD/svg11.dtd">
<svg class="h-0 opacity-0 pointer-events-none w-0" fill="none" xmlns="http://www.w3.org/2000/svg">
  <symbol fill="none" id="bitCoin1Icon" viewBox="0 0 20 20"> <g clip-path="url(#clip0_1191_77273)"> <path d="M19.6986 12.419C18.363 17.7762 12.937 21.0365 7.57919 19.7006C2.22361 18.365 -1.03667 12.9387 0.299485 7.58197C1.63447 2.22419 7.06044 -1.03634 12.4166 0.299234C17.7741 1.63481 21.0341 7.0617 19.6984 12.4191L19.6985 12.419H19.6986Z" fill="white"/> <path d="M14.4089 8.57528C14.6079 7.2445 13.5947 6.52915 12.2093 6.05194L12.6588 4.24928L11.5614 3.97585L11.1239 5.73105C10.8354 5.6591 10.5392 5.59131 10.2447 5.5241L10.6854 3.75732L9.58876 3.48389L9.13907 5.28596C8.90035 5.23161 8.66588 5.17789 8.43839 5.12129L8.43966 5.11562L6.92642 4.73773L6.63451 5.90976C6.63451 5.90976 7.44864 6.09638 7.43148 6.10786C7.87584 6.21877 7.9562 6.51292 7.94286 6.74608L7.4309 8.79973C7.4615 8.8075 7.50118 8.81875 7.54498 8.83634C7.50837 8.82725 7.46941 8.81733 7.42899 8.80765L6.7114 11.6845C6.65709 11.8195 6.51925 12.0221 6.20858 11.9452C6.21958 11.9611 5.41102 11.7462 5.41102 11.7462L4.86621 13.0023L6.29421 13.3582C6.55987 13.4249 6.8202 13.4946 7.07657 13.5601L6.62249 15.3835L7.71855 15.6569L8.16824 13.8529C8.46767 13.9342 8.75826 14.0092 9.04273 14.0798L8.59456 15.8753L9.69195 16.1488L10.146 14.3288C12.0172 14.683 13.4242 14.5402 14.0164 12.8477C14.4936 11.4851 13.9926 10.6991 13.0082 10.1865C13.7252 10.0212 14.2653 9.54959 14.4093 8.57543L14.4089 8.57518L14.4089 8.57528ZM11.9017 12.091C11.5626 13.4536 9.26831 12.717 8.52447 12.5323L9.12705 10.1167C9.87084 10.3024 12.2561 10.6698 11.9018 12.091H11.9017ZM12.2411 8.55553C11.9317 9.79501 10.0222 9.1653 9.40273 9.01089L9.94905 6.82008C10.5685 6.97449 12.5633 7.26268 12.2412 8.55553H12.2411Z" fill="#259F4F"/> </g> <defs> <clipPath id="clip0_1191_77273"> <rect fill="white" height="20" width="19.9978"/> </clipPath> </defs> </symbol>
  <symbol fill="none" id="bitCoin2Icon" viewBox="0 0 20 20"> <g clip-path="url(#clip0_1191_77278)"> <path d="M9.99745 18.9174C14.9225 18.9174 18.9151 14.9248 18.9151 9.99971C18.9151 5.07461 14.9225 1.08203 9.99745 1.08203C5.07235 1.08203 1.07977 5.07461 1.07977 9.99971C1.07977 14.9248 5.07235 18.9174 9.99745 18.9174Z" fill="#259F4F"/> <path d="M9.99775 0C8.01993 0 6.08653 0.58649 4.44204 1.6853C2.79755 2.78412 1.51583 4.3459 0.758951 6.17317C0.00207451 8.00043 -0.195959 10.0111 0.189893 11.9509C0.575746 13.8907 1.52815 15.6725 2.92668 17.0711C4.3252 18.4696 6.10703 19.422 8.04684 19.8079C9.98665 20.1937 11.9973 19.9957 13.8246 19.2388C15.6518 18.4819 17.2136 17.2002 18.3124 15.5557C19.4113 13.9112 19.9977 11.9778 19.9977 10C20.0016 8.69059 19.7474 7.39326 19.2499 6.18207C18.7523 4.97087 18.0211 3.86954 17.0979 2.94096C16.1747 2.01237 15.0776 1.27471 13.8694 0.770101C12.6611 0.265491 11.3653 0.00381009 10.0559 0H9.99775ZM10.1672 10.339L9.12607 13.8499H14.6951C14.732 13.8486 14.7688 13.8546 14.8033 13.8675C14.8379 13.8804 14.8696 13.9001 14.8966 13.9252C14.9236 13.9504 14.9453 13.9807 14.9606 14.0143C14.9759 14.0479 14.9844 14.0842 14.9856 14.1211V14.2131L14.5014 15.8838C14.48 15.9628 14.4324 16.0322 14.3664 16.0806C14.3004 16.129 14.22 16.1535 14.1382 16.1501H5.61518L7.04375 11.2833L5.44569 11.7676L5.80888 10.6538L7.40695 10.1695L9.41663 3.3414C9.43876 3.26284 9.48653 3.19394 9.55235 3.14567C9.61817 3.0974 9.69825 3.07255 9.77983 3.07506H11.9348C11.9717 3.07377 12.0085 3.07976 12.043 3.09269C12.0776 3.10562 12.1093 3.12524 12.1363 3.15043C12.1633 3.17561 12.185 3.20587 12.2003 3.23947C12.2156 3.27307 12.2241 3.30936 12.2253 3.34625V3.43826L10.5304 9.20097L12.1285 8.71671L11.7895 9.87893L10.1672 10.339Z" fill="white"/> </g> <defs> <clipPath id="clip0_1191_77278"> <rect fill="white" height="20" width="20" transform="translate(-0.0022583)"/> </clipPath> </defs> </symbol>
  <symbol fill="none" id="bitCoin3Icon" viewBox="0 0 20 20"> <g clip-path="url(#clip0_1191_77281)"> <path d="M19.6963 12.419C18.3607 17.7762 12.9348 21.0365 7.57694 19.7006C2.22135 18.365 -1.03893 12.9387 0.297227 7.58197C1.63221 2.22419 7.05818 -1.03634 12.4144 0.299234C17.7718 1.63481 21.0319 7.0617 19.6962 12.4191L19.6963 12.419H19.6963Z" fill="white"/> <g clip-path="url(#clip1_1191_77281)"> <path d="M9.99665 3.75L9.9147 4.03486V12.3001L9.99665 12.3837L13.7455 10.1159L9.99665 3.75Z" fill="#259F4F"/> <path d="M9.99664 3.75L6.24774 10.1159L9.99664 12.3837V8.37202V3.75Z" fill="#259F4F"/> <path d="M9.99705 13.1104L9.95087 13.168V16.1122L9.99705 16.2502L13.7482 10.8438L9.99705 13.1104Z" fill="#259F4F"/> <path d="M9.99664 16.2497V13.1099L6.24774 10.8433L9.99664 16.2497Z" fill="#259F4F"/> <path d="M9.99664 12.3838L13.7454 10.116L9.99664 8.37207V12.3838Z" fill="#259F4F"/> <path d="M6.24774 10.116L9.99664 12.3838V8.37207L6.24774 10.116Z" fill="#259F4F"/> </g> </g> <defs> <clipPath id="clip0_1191_77281"> <rect fill="white" height="20" width="19.9978" transform="translate(-0.0022583)"/> </clipPath> <clipPath id="clip1_1191_77281"> <rect fill="white" height="12.5" width="7.5" transform="translate(6.24774 3.75)"/> </clipPath> </defs> </symbol>
  <symbol id="currency_inr" viewBox="0 0 18 18" fill="none" xmlns="http://www.w3.org/2000/svg">
    <path d="M9 18C13.9706 18 18 13.9706 18 9C18 4.02944 13.9706 0 9 0C4.02944 0 0 4.02944 0 9C0 13.9706 4.02944 18 9 18Z" fill="#FF9A32"/>
    <path d="M5.72314 3H12.9545L12.2314 4.38889H9.87397C10.2211 4.79167 10.4814 5.26389 10.6333 5.77778H12.9545L12.2314 7.16667H10.7851C10.6955 8.03247 10.3039 8.84379 9.67384 9.46903C9.04377 10.0943 8.21221 10.4967 7.31405 10.6111V10.6389H6.80785L11.1467 15.5H9.33884L5 10.6389V9.25H6.80785C8.08058 9.25 9.13636 8.34722 9.30992 7.16667H5L5.72314 5.77778H9.09297C8.68802 4.95833 7.82025 4.38889 6.80785 4.38889H5L5.72314 3Z" fill="white"/>
  </symbol>
  <symbol id="currency_brl" viewBox="0 0 18 18" fill="none" xmlns="http://www.w3.org/2000/svg">
    <path d="M15.364 2.63602C13.6641 0.936141 11.404 0 9 0C6.59602 0 4.33589 0.936141 2.63602 2.63602C0.936141 4.33589 0 6.59602 0 9C0 11.404 0.936176 13.6641 2.63602 15.364C4.33586 17.0639 6.59602 18 9 18C11.404 18 13.6641 17.0639 15.364 15.364C17.0639 13.6641 18 11.404 18 9C18 6.59602 17.0638 4.33593 15.364 2.63602ZM11.8125 10.6875C11.8125 11.5905 11.2775 12.3705 10.5081 12.7284C10.446 12.7573 10.4062 12.8192 10.4062 12.8875V13.4841C10.4062 13.787 10.1735 14.0476 9.87093 14.0619C9.54788 14.0771 9.28125 13.8197 9.28125 13.5V13.1133C9.28125 13.0162 9.20254 12.9375 9.10547 12.9375H8.33203C8.23496 12.9375 8.15625 13.0162 8.15625 13.1133V13.4841C8.15625 13.787 7.92348 14.0476 7.62093 14.0619C7.29787 14.0771 7.03125 13.8197 7.03125 13.5V13.1133C7.03125 13.0162 6.95254 12.9375 6.85547 12.9375H5.92214C5.61927 12.9375 5.35866 12.7047 5.34438 12.4022C5.32916 12.0792 5.58654 11.8125 5.90625 11.8125H6.29297C6.39004 11.8125 6.46875 11.7338 6.46875 11.6367V9V6.36328C6.46875 6.26621 6.39004 6.1875 6.29297 6.1875H5.92214C5.61927 6.1875 5.35866 5.95473 5.34438 5.65221C5.32916 5.3292 5.58654 5.0625 5.90625 5.0625H6.85547C6.95254 5.0625 7.03125 4.98379 7.03125 4.88672V4.51589C7.03125 4.21298 7.26402 3.95237 7.56657 3.93813C7.88963 3.92295 8.15625 4.18032 8.15625 4.5V4.88672C8.15625 4.98379 8.23496 5.0625 8.33203 5.0625H9.10547C9.20254 5.0625 9.28125 4.98379 9.28125 4.88672V4.51589C9.28125 4.21298 9.51402 3.95237 9.81657 3.93813C10.1396 3.92295 10.4062 4.18032 10.4062 4.5V5.11246C10.4062 5.18084 10.446 5.24275 10.5081 5.27157C11.2775 5.62947 11.8125 6.40948 11.8125 7.3125C11.8125 7.92014 11.5701 8.47199 11.1772 8.87716C11.1106 8.94582 11.1106 9.05414 11.1772 9.1228C11.5701 9.52801 11.8125 10.0799 11.8125 10.6875Z" fill="#279904"/>
    <path d="M11.8125 10.6875C11.8125 11.5905 11.2775 12.3705 10.5081 12.7284C10.446 12.7573 10.4062 12.8192 10.4062 12.8875V13.4841C10.4062 13.787 10.1735 14.0476 9.87093 14.0619C9.54788 14.0771 9.28125 13.8197 9.28125 13.5V13.1133C9.28125 13.0162 9.20254 12.9375 9.10547 12.9375H8.33203C8.23496 12.9375 8.15625 13.0162 8.15625 13.1133V13.4841C8.15625 13.787 7.92348 14.0476 7.62093 14.0619C7.29787 14.0771 7.03125 13.8197 7.03125 13.5V13.1133C7.03125 13.0162 6.95254 12.9375 6.85547 12.9375H5.92214C5.61927 12.9375 5.35866 12.7047 5.34438 12.4022C5.32916 12.0792 5.58654 11.8125 5.90625 11.8125H6.29297C6.39004 11.8125 6.46875 11.7338 6.46875 11.6367V9V6.36328C6.46875 6.26621 6.39004 6.1875 6.29297 6.1875H5.92214C5.61927 6.1875 5.35866 5.95473 5.34438 5.65221C5.32916 5.3292 5.58654 5.0625 5.90625 5.0625H6.85547C6.95254 5.0625 7.03125 4.98379 7.03125 4.88672V4.51589C7.03125 4.21298 7.26402 3.95237 7.56657 3.93813C7.88963 3.92295 8.15625 4.18032 8.15625 4.5V4.88672C8.15625 4.98379 8.23496 5.0625 8.33203 5.0625H9.10547C9.20254 5.0625 9.28125 4.98379 9.28125 4.88672V4.51589C9.28125 4.21298 9.51402 3.95237 9.81657 3.93813C10.1396 3.92295 10.4062 4.18032 10.4062 4.5V5.11246C10.4062 5.18084 10.446 5.24275 10.5081 5.27157C11.2775 5.62947 11.8125 6.40948 11.8125 7.3125C11.8125 7.92014 11.5701 8.47199 11.1772 8.87716C11.1106 8.94582 11.1106 9.05414 11.1772 9.1228C11.5701 9.52801 11.8125 10.0799 11.8125 10.6875Z" fill="#279904"/>
    <g clip-path="url(#clip0_3871_3546)"> <g clip-path="url(#clip1_3871_3546)">
        <path d="M12.2737 8.36954V5.04191C13.0027 5.24471 13.5046 5.89779 13.5046 6.65972H14.4637C14.4637 5.35932 13.5398 4.27718 12.2737 4.05845V3.0918H11.3146V4.06507C10.1253 4.29805 9.17578 5.36628 9.17578 6.65012C9.17578 7.93395 10.1253 9.00589 11.3146 9.23978V12.5633C10.6624 12.3482 10.1477 11.7046 10.1477 10.9566H9.18855C9.18855 12.2435 10.1253 13.3168 11.3146 13.5509V14.4861H12.2737V13.558C13.5398 13.3398 14.4509 12.2611 14.4509 10.9638C14.4509 9.66652 13.5398 8.58764 12.2737 8.36954ZM10.1349 6.65253C10.1349 5.90059 10.6624 5.2642 11.3146 5.05188V8.25314C10.6624 8.04086 10.1349 7.40444 10.1349 6.65253ZM12.2737 12.5753V9.35217C13.0027 9.55227 13.4918 10.1978 13.4918 10.9637C13.4918 11.7296 13.0027 12.3752 12.2737 12.5753Z" fill="white"/>
        <path d="M7.218 8.84442C7.87903 8.36333 8.31567 7.58096 8.31876 6.69795H8.32378C8.32378 6.28642 8.22945 5.89716 8.06141 5.55027C7.63713 4.66404 6.73325 4.05078 5.68621 4.05078C4.23388 4.05078 3.05198 5.23064 3.04864 6.68221L3.03921 7.06989L3.03906 13.5652H3.9854V9.34512H5.69581C6.65266 9.34512 7.36148 10.0254 7.36148 10.9277V13.5652H8.32059V10.9277C8.32061 10.0559 7.89312 9.30028 7.218 8.84442ZM3.9854 8.38599V7.08743L4.00064 6.70002L4.00693 6.69791H4.00777C4.00777 5.77716 4.7607 5.01947 5.68621 5.01947C6.40521 5.01947 7.01984 5.47686 7.2584 6.11263C7.32404 6.2923 7.35988 6.48615 7.35988 6.68834C7.35988 7.62439 6.60698 8.38597 5.68623 8.38597H3.9854V8.38599Z" fill="white"/>
      </g></g>
    <defs> <clipPath id="clip0_3871_3546"> <rect width="13.5" height="13.5" fill="white" transform="translate(2 1)"/> </clipPath>
      <clipPath id="clip1_3871_3546"> <rect width="11.4231" height="11.4231" fill="white" transform="translate(3.03906 3.07715)"/> </clipPath>
    </defs>
  </symbol>
  <symbol id="currency_idr" viewBox="0 0 18 18" fill="none" xmlns="http://www.w3.org/2000/svg">
    <path d="M15.364 2.63602C13.6641 0.936141 11.404 0 9 0C6.59602 0 4.33589 0.936141 2.63602 2.63602C0.936141 4.33589 0 6.59602 0 9C0 11.404 0.936176 13.6641 2.63602 15.364C4.33586 17.0639 6.59602 18 9 18C11.404 18 13.6641 17.0639 15.364 15.364C17.0639 13.6641 18 11.404 18 9C18 6.59602 17.0638 4.33593 15.364 2.63602ZM11.8125 10.6875C11.8125 11.5905 11.2775 12.3705 10.5081 12.7284C10.446 12.7573 10.4062 12.8192 10.4062 12.8875V13.4841C10.4062 13.787 10.1735 14.0476 9.87093 14.0619C9.54788 14.0771 9.28125 13.8197 9.28125 13.5V13.1133C9.28125 13.0162 9.20254 12.9375 9.10547 12.9375H8.33203C8.23496 12.9375 8.15625 13.0162 8.15625 13.1133V13.4841C8.15625 13.787 7.92348 14.0476 7.62093 14.0619C7.29787 14.0771 7.03125 13.8197 7.03125 13.5V13.1133C7.03125 13.0162 6.95254 12.9375 6.85547 12.9375H5.92214C5.61927 12.9375 5.35866 12.7047 5.34438 12.4022C5.32916 12.0792 5.58654 11.8125 5.90625 11.8125H6.29297C6.39004 11.8125 6.46875 11.7338 6.46875 11.6367V9V6.36328C6.46875 6.26621 6.39004 6.1875 6.29297 6.1875H5.92214C5.61927 6.1875 5.35866 5.95473 5.34438 5.65221C5.32916 5.3292 5.58654 5.0625 5.90625 5.0625H6.85547C6.95254 5.0625 7.03125 4.98379 7.03125 4.88672V4.51589C7.03125 4.21298 7.26402 3.95237 7.56657 3.93813C7.88963 3.92295 8.15625 4.18032 8.15625 4.5V4.88672C8.15625 4.98379 8.23496 5.0625 8.33203 5.0625H9.10547C9.20254 5.0625 9.28125 4.98379 9.28125 4.88672V4.51589C9.28125 4.21298 9.51402 3.95237 9.81657 3.93813C10.1396 3.92295 10.4062 4.18032 10.4062 4.5V5.11246C10.4062 5.18084 10.446 5.24275 10.5081 5.27157C11.2775 5.62947 11.8125 6.40948 11.8125 7.3125C11.8125 7.92014 11.5701 8.47199 11.1772 8.87716C11.1106 8.94582 11.1106 9.05414 11.1772 9.1228C11.5701 9.52801 11.8125 10.0799 11.8125 10.6875Z" fill="#FF0000"/>
    <path d="M11.8125 10.6875C11.8125 11.5905 11.2775 12.3705 10.5081 12.7284C10.446 12.7573 10.4062 12.8192 10.4062 12.8875V13.4841C10.4062 13.787 10.1735 14.0476 9.87093 14.0619C9.54788 14.0771 9.28125 13.8197 9.28125 13.5V13.1133C9.28125 13.0162 9.20254 12.9375 9.10547 12.9375H8.33203C8.23496 12.9375 8.15625 13.0162 8.15625 13.1133V13.4841C8.15625 13.787 7.92348 14.0476 7.62093 14.0619C7.29787 14.0771 7.03125 13.8197 7.03125 13.5V13.1133C7.03125 13.0162 6.95254 12.9375 6.85547 12.9375H5.92214C5.61927 12.9375 5.35866 12.7047 5.34438 12.4022C5.32916 12.0792 5.58654 11.8125 5.90625 11.8125H6.29297C6.39004 11.8125 6.46875 11.7338 6.46875 11.6367V9V6.36328C6.46875 6.26621 6.39004 6.1875 6.29297 6.1875H5.92214C5.61927 6.1875 5.35866 5.95473 5.34438 5.65221C5.32916 5.3292 5.58654 5.0625 5.90625 5.0625H6.85547C6.95254 5.0625 7.03125 4.98379 7.03125 4.88672V4.51589C7.03125 4.21298 7.26402 3.95237 7.56657 3.93813C7.88963 3.92295 8.15625 4.18032 8.15625 4.5V4.88672C8.15625 4.98379 8.23496 5.0625 8.33203 5.0625H9.10547C9.20254 5.0625 9.28125 4.98379 9.28125 4.88672V4.51589C9.28125 4.21298 9.51402 3.95237 9.81657 3.93813C10.1396 3.92295 10.4062 4.18032 10.4062 4.5V5.11246C10.4062 5.18084 10.446 5.24275 10.5081 5.27157C11.2775 5.62947 11.8125 6.40948 11.8125 7.3125C11.8125 7.92014 11.5701 8.47199 11.1772 8.87716C11.1106 8.94582 11.1106 9.05414 11.1772 9.1228C11.5701 9.52801 11.8125 10.0799 11.8125 10.6875Z" fill="#FF0000"/>
    <path d="M13.3125 8.375H11.75C11.5842 8.375 11.4253 8.44085 11.3081 8.55806C11.1908 8.67527 11.125 8.83424 11.125 9V14.625C11.125 14.7908 11.1908 14.9497 11.3081 15.0669C11.4253 15.1842 11.5842 15.25 11.75 15.25C11.9158 15.25 12.0747 15.1842 12.1919 15.0669C12.3092 14.9497 12.375 14.7908 12.375 14.625V12.75H13.3125C13.8927 12.75 14.4491 12.5195 14.8593 12.1093C15.2695 11.6991 15.5 11.1427 15.5 10.5625C15.5 9.98234 15.2695 9.42594 14.8593 9.0157C14.4491 8.60547 13.8927 8.375 13.3125 8.375ZM13.3125 11.5H12.375V9.625H13.3125C13.5611 9.625 13.7996 9.72377 13.9754 9.89959C14.1512 10.0754 14.25 10.3139 14.25 10.5625C14.25 10.8111 14.1512 11.0496 13.9754 11.2254C13.7996 11.4012 13.5611 11.5 13.3125 11.5ZM9.875 7.125C9.875 6.2962 9.54576 5.50134 8.95971 4.91529C8.37366 4.32924 7.5788 4 6.75 4H3.625C3.45924 4 3.30027 4.06585 3.18306 4.18306C3.06585 4.30027 3 4.45924 3 4.625V13.375C3 13.5408 3.06585 13.6997 3.18306 13.8169C3.30027 13.9342 3.45924 14 3.625 14C3.79076 14 3.94973 13.9342 4.06694 13.8169C4.18415 13.6997 4.25 13.5408 4.25 13.375V10.25H6.3625L8.06875 13.6563C8.12069 13.7593 8.20015 13.846 8.29833 13.9067C8.39652 13.9673 8.50958 13.9997 8.625 14C8.72305 14.0012 8.8198 13.9775 8.90625 13.9312C9.05345 13.8563 9.16501 13.7262 9.21654 13.5692C9.26807 13.4123 9.25538 13.2414 9.18125 13.0937L7.6875 10.1063C8.32189 9.90674 8.8761 9.51006 9.26951 8.97389C9.66293 8.43772 9.87504 7.79002 9.875 7.125ZM6.75 9H4.25V5.25H6.75C7.24728 5.25 7.72419 5.44754 8.07583 5.79917C8.42746 6.15081 8.625 6.62772 8.625 7.125C8.625 7.62228 8.42746 8.09919 8.07583 8.45083C7.72419 8.80246 7.24728 9 6.75 9Z" fill="white"/>
  </symbol>
  <symbol id="currency_php" viewBox="0 0 18 18" fill="none" xmlns="http://www.w3.org/2000/svg">
    <path d="M15.364 2.63602C13.6641 0.936141 11.404 0 9 0C6.59602 0 4.33589 0.936141 2.63602 2.63602C0.936141 4.33589 0 6.59602 0 9C0 11.404 0.936176 13.6641 2.63602 15.364C4.33586 17.0639 6.59602 18 9 18C11.404 18 13.6641 17.0639 15.364 15.364C17.0639 13.6641 18 11.404 18 9C18 6.59602 17.0638 4.33593 15.364 2.63602ZM11.8125 10.6875C11.8125 11.5905 11.2775 12.3705 10.5081 12.7284C10.446 12.7573 10.4062 12.8192 10.4062 12.8875V13.4841C10.4062 13.787 10.1735 14.0476 9.87093 14.0619C9.54788 14.0771 9.28125 13.8197 9.28125 13.5V13.1133C9.28125 13.0162 9.20254 12.9375 9.10547 12.9375H8.33203C8.23496 12.9375 8.15625 13.0162 8.15625 13.1133V13.4841C8.15625 13.787 7.92348 14.0476 7.62093 14.0619C7.29787 14.0771 7.03125 13.8197 7.03125 13.5V13.1133C7.03125 13.0162 6.95254 12.9375 6.85547 12.9375H5.92214C5.61927 12.9375 5.35866 12.7047 5.34438 12.4022C5.32916 12.0792 5.58654 11.8125 5.90625 11.8125H6.29297C6.39004 11.8125 6.46875 11.7338 6.46875 11.6367V9V6.36328C6.46875 6.26621 6.39004 6.1875 6.29297 6.1875H5.92214C5.61927 6.1875 5.35866 5.95473 5.34438 5.65221C5.32916 5.3292 5.58654 5.0625 5.90625 5.0625H6.85547C6.95254 5.0625 7.03125 4.98379 7.03125 4.88672V4.51589C7.03125 4.21298 7.26402 3.95237 7.56657 3.93813C7.88963 3.92295 8.15625 4.18032 8.15625 4.5V4.88672C8.15625 4.98379 8.23496 5.0625 8.33203 5.0625H9.10547C9.20254 5.0625 9.28125 4.98379 9.28125 4.88672V4.51589C9.28125 4.21298 9.51402 3.95237 9.81657 3.93813C10.1396 3.92295 10.4062 4.18032 10.4062 4.5V5.11246C10.4062 5.18084 10.446 5.24275 10.5081 5.27157C11.2775 5.62947 11.8125 6.40948 11.8125 7.3125C11.8125 7.92014 11.5701 8.47199 11.1772 8.87716C11.1106 8.94582 11.1106 9.05414 11.1772 9.1228C11.5701 9.52801 11.8125 10.0799 11.8125 10.6875Z" fill="#FCD116"/>
    <path d="M11.8125 10.6875C11.8125 11.5905 11.2775 12.3705 10.5081 12.7284C10.446 12.7573 10.4062 12.8192 10.4062 12.8875V13.4841C10.4062 13.787 10.1735 14.0476 9.87093 14.0619C9.54788 14.0771 9.28125 13.8197 9.28125 13.5V13.1133C9.28125 13.0162 9.20254 12.9375 9.10547 12.9375H8.33203C8.23496 12.9375 8.15625 13.0162 8.15625 13.1133V13.4841C8.15625 13.787 7.92348 14.0476 7.62093 14.0619C7.29787 14.0771 7.03125 13.8197 7.03125 13.5V13.1133C7.03125 13.0162 6.95254 12.9375 6.85547 12.9375H5.92214C5.61927 12.9375 5.35866 12.7047 5.34438 12.4022C5.32916 12.0792 5.58654 11.8125 5.90625 11.8125H6.29297C6.39004 11.8125 6.46875 11.7338 6.46875 11.6367V9V6.36328C6.46875 6.26621 6.39004 6.1875 6.29297 6.1875H5.92214C5.61927 6.1875 5.35866 5.95473 5.34438 5.65221C5.32916 5.3292 5.58654 5.0625 5.90625 5.0625H6.85547C6.95254 5.0625 7.03125 4.98379 7.03125 4.88672V4.51589C7.03125 4.21298 7.26402 3.95237 7.56657 3.93813C7.88963 3.92295 8.15625 4.18032 8.15625 4.5V4.88672C8.15625 4.98379 8.23496 5.0625 8.33203 5.0625H9.10547C9.20254 5.0625 9.28125 4.98379 9.28125 4.88672V4.51589C9.28125 4.21298 9.51402 3.95237 9.81657 3.93813C10.1396 3.92295 10.4062 4.18032 10.4062 4.5V5.11246C10.4062 5.18084 10.446 5.24275 10.5081 5.27157C11.2775 5.62947 11.8125 6.40948 11.8125 7.3125C11.8125 7.92014 11.5701 8.47199 11.1772 8.87716C11.1106 8.94582 11.1106 9.05414 11.1772 9.1228C11.5701 9.52801 11.8125 10.0799 11.8125 10.6875Z" fill="#FCD116"/>
    <g clip-path="url(#clip0_3871_3648)">
      <path d="M14.5 7.65317H13.2C13.2667 7.20732 13.2667 6.75286 13.2 6.30702H14.5C14.6658 6.30702 14.8247 6.2361 14.9419 6.10988C15.0592 5.98365 15.125 5.81245 15.125 5.63394C15.125 5.45543 15.0592 5.28423 14.9419 5.158C14.8247 5.03178 14.6658 4.96086 14.5 4.96086H12.8187C12.4646 4.1568 11.9062 3.4772 11.2083 3.00073C10.5103 2.52426 9.70136 2.27041 8.875 2.26855H7C6.83424 2.26855 6.67527 2.33947 6.55806 2.46569C6.44085 2.59192 6.375 2.76312 6.375 2.94163V4.96086H4.5C4.33424 4.96086 4.17527 5.03178 4.05806 5.158C3.94085 5.28423 3.875 5.45543 3.875 5.63394C3.875 5.81245 3.94085 5.98365 4.05806 6.10988C4.17527 6.2361 4.33424 6.30702 4.5 6.30702H6.375V7.65317H4.5C4.33424 7.65317 4.17527 7.72408 4.05806 7.85031C3.94085 7.97654 3.875 8.14774 3.875 8.32625C3.875 8.50476 3.94085 8.67596 4.05806 8.80218C4.17527 8.92841 4.33424 8.99932 4.5 8.99932H6.375V15.057C6.375 15.2355 6.44085 15.4067 6.55806 15.533C6.67527 15.6592 6.83424 15.7301 7 15.7301C7.16576 15.7301 7.32473 15.6592 7.44194 15.533C7.55915 15.4067 7.625 15.2355 7.625 15.057V11.6916H8.875C9.70136 11.6898 10.5103 11.4359 11.2083 10.9595C11.9062 10.483 12.4646 9.80338 12.8187 8.99932H14.5C14.6658 8.99932 14.8247 8.92841 14.9419 8.80218C15.0592 8.67596 15.125 8.50476 15.125 8.32625C15.125 8.14774 15.0592 7.97654 14.9419 7.85031C14.8247 7.72408 14.6658 7.65317 14.5 7.65317ZM7.625 3.61471H8.875C9.36014 3.61471 9.83862 3.73635 10.2725 3.97C10.7065 4.20365 11.0839 4.54289 11.375 4.96086H7.625V3.61471ZM7.625 6.30702H11.9375C12.0208 6.75125 12.0208 7.20894 11.9375 7.65317H7.625V6.30702ZM8.875 10.3455H7.625V8.99932H11.375C11.0839 9.41729 10.7065 9.75653 10.2725 9.99018C9.83862 10.2238 9.36014 10.3455 8.875 10.3455Z" fill="white"/>
      <path d="M14.5 7.65317H13.2C13.2667 7.20732 13.2667 6.75286 13.2 6.30702H14.5C14.6658 6.30702 14.8247 6.2361 14.9419 6.10988C15.0592 5.98365 15.125 5.81245 15.125 5.63394C15.125 5.45543 15.0592 5.28423 14.9419 5.158C14.8247 5.03178 14.6658 4.96086 14.5 4.96086H12.8187C12.4646 4.1568 11.9062 3.4772 11.2083 3.00073C10.5103 2.52426 9.70136 2.27041 8.875 2.26855H7C6.83424 2.26855 6.67527 2.33947 6.55806 2.46569C6.44085 2.59192 6.375 2.76312 6.375 2.94163V4.96086H4.5C4.33424 4.96086 4.17527 5.03178 4.05806 5.158C3.94085 5.28423 3.875 5.45543 3.875 5.63394C3.875 5.81245 3.94085 5.98365 4.05806 6.10988C4.17527 6.2361 4.33424 6.30702 4.5 6.30702H6.375V7.65317H4.5C4.33424 7.65317 4.17527 7.72408 4.05806 7.85031C3.94085 7.97654 3.875 8.14774 3.875 8.32625C3.875 8.50476 3.94085 8.67596 4.05806 8.80218C4.17527 8.92841 4.33424 8.99932 4.5 8.99932H6.375V15.057C6.375 15.2355 6.44085 15.4067 6.55806 15.533C6.67527 15.6592 6.83424 15.7301 7 15.7301C7.16576 15.7301 7.32473 15.6592 7.44194 15.533C7.55915 15.4067 7.625 15.2355 7.625 15.057V11.6916H8.875C9.70136 11.6898 10.5103 11.4359 11.2083 10.9595C11.9062 10.483 12.4646 9.80338 12.8187 8.99932H14.5C14.6658 8.99932 14.8247 8.92841 14.9419 8.80218C15.0592 8.67596 15.125 8.50476 15.125 8.32625C15.125 8.14774 15.0592 7.97654 14.9419 7.85031C14.8247 7.72408 14.6658 7.65317 14.5 7.65317ZM7.625 3.61471H8.875C9.36014 3.61471 9.83862 3.73635 10.2725 3.97C10.7065 4.20365 11.0839 4.54289 11.375 4.96086H7.625V3.61471ZM7.625 6.30702H11.9375C12.0208 6.75125 12.0208 7.20894 11.9375 7.65317H7.625V6.30702ZM8.875 10.3455H7.625V8.99932H11.375C11.0839 9.41729 10.7065 9.75653 10.2725 9.99018C9.83862 10.2238 9.36014 10.3455 8.875 10.3455Z" fill="white"/>
    </g>
    <defs> <clipPath id="clip0_3871_3648"> <rect width="14" height="14" fill="white" transform="translate(2 2)"/> </clipPath> </defs>
  </symbol>
  <symbol id="currency_pln" viewBox="0 0 16 16" fill="none" xmlns="http://www.w3.org/2000/svg">
    <rect x="0.916016" width="16" height="16" rx="8" fill="#EDF6FF"/>
    <path d="M9.93723 5.02577C9.9225 5.03681 9.91146 5.68466 9.91146 6.46135V7.87485L9.3814 8.43436L8.84766 8.99387L9.03907 9.18528C9.14213 9.29202 9.2452 9.38037 9.26729 9.38037C9.28569 9.38037 9.44029 9.23681 9.60594 9.06012L9.90778 8.7362L9.91146 9.86626V11H10.482H11.0526V9.2589V7.52147L11.6599 6.8773C11.9912 6.52393 12.2673 6.22577 12.2673 6.21472C12.2673 6.20368 12.1753 6.10429 12.0648 5.99387L11.8661 5.79877L11.4612 6.2184L11.0562 6.63804L11.0526 5.81718V5H10.5078C10.2059 5 9.94827 5.01104 9.93723 5.02577Z" fill="#F70808"/>
    <path d="M5.67684 6.73006V7.2454L6.70015 7.25276L7.72346 7.2638L6.64862 8.71779L5.57009 10.1718V10.584L5.56641 11H7.46211H9.35782V10.4847V9.96933L8.26089 9.96196L7.16395 9.95092L8.22408 8.51534L9.28052 7.07975L9.2842 6.6454V6.21472H7.48052H5.67684V6.73006Z" fill="#F70808"/>
  </symbol>
  <symbol id="currency_try" viewBox="0 0 16 16" fill="none" xmlns="http://www.w3.org/2000/svg">
    <rect width="16" height="16" rx="8" fill="#EB0A29"/>
    <path d="M6.2319 4.05108C6.18934 4.09649 6.18366 4.19582 6.18366 4.85421V5.60625L5.49689 5.81342C5.11661 5.92694 4.79025 6.03478 4.77322 6.04897C4.74484 6.07167 4.73633 6.20505 4.73633 6.54276C4.73633 7.00534 4.73633 7.00818 4.80728 7.05359C4.84984 7.08196 4.90376 7.09332 4.94066 7.08196C4.97755 7.07345 5.26985 6.98264 5.59621 6.88331L6.18366 6.70169V6.97696V7.2494L5.49689 7.45657C5.11661 7.57008 4.79309 7.67792 4.77038 7.69495C4.74484 7.71766 4.73633 7.83685 4.742 8.19726L4.75052 8.66835L4.8243 8.70241C4.88957 8.73363 4.9662 8.7166 5.49689 8.55484C5.82892 8.45267 6.11839 8.36186 6.14109 8.35335C6.17798 8.33916 6.18366 8.54349 6.18366 10.1214C6.18366 11.8525 6.1865 11.9092 6.23758 11.9575C6.28866 12.0029 6.35961 12.0057 7.08328 11.9944C7.93465 11.9802 8.06235 11.9632 8.54763 11.8014C9.93253 11.3417 10.974 10.127 11.2181 8.68538C11.2777 8.32781 11.2777 7.93617 11.2181 7.87658C11.1812 7.83969 11.0876 7.83117 10.642 7.83117C10.1709 7.83117 10.1028 7.83685 10.0659 7.87942C10.0375 7.91347 10.0148 8.02131 10.0035 8.2001C9.98078 8.54632 9.90131 8.85282 9.75942 9.15647C9.60617 9.48567 9.44441 9.70419 9.1294 10.0022C8.83142 10.286 8.54763 10.4619 8.18722 10.5925C7.97154 10.6691 7.50045 10.7599 7.45504 10.7343C7.44085 10.7287 7.43234 10.1043 7.43234 9.34661V7.97307L7.49761 7.94469C7.53166 7.9305 8.04533 7.76874 8.63845 7.58711C9.23157 7.40549 9.73955 7.23805 9.76793 7.21251C9.8105 7.17562 9.81618 7.11318 9.81618 6.7329C9.81618 6.3356 9.8105 6.29303 9.75942 6.24194C9.7282 6.21073 9.6828 6.18519 9.66009 6.18519C9.62036 6.18519 8.61007 6.49168 7.77856 6.75561C7.63383 6.80101 7.49761 6.8379 7.47491 6.8379C7.43801 6.8379 7.43234 6.79534 7.43801 6.57682L7.44653 6.31289L8.2979 6.05181C8.76615 5.90707 9.27698 5.74815 9.43306 5.6999C9.58915 5.65166 9.73955 5.59206 9.7651 5.56652C9.8105 5.52963 9.81618 5.4672 9.81618 5.08692C9.81618 4.68961 9.8105 4.64704 9.75942 4.59596C9.7282 4.56474 9.68563 4.5392 9.66577 4.5392C9.63171 4.5392 8.14181 4.99327 7.66788 5.14935C7.55721 5.18624 7.45788 5.20895 7.44937 5.1976C7.44085 5.18908 7.43234 4.93651 7.43234 4.63569C7.43234 4.17595 7.42382 4.0823 7.38693 4.04541C7.35004 4.00851 7.25639 4 6.81084 4C6.33123 4 6.27163 4.00568 6.2319 4.05108Z" fill="white"/>
  </symbol>
  <symbol id="currency_mxn" viewBox="0 0 18 18" fill="none" xmlns="http://www.w3.org/2000/svg">
    <path d="M15.364 2.63602C13.6641 0.936141 11.404 0 9 0C6.59602 0 4.33589 0.936141 2.63602 2.63602C0.936141 4.33589 0 6.59602 0 9C0 11.404 0.936176 13.6641 2.63602 15.364C4.33586 17.0639 6.59602 18 9 18C11.404 18 13.6641 17.0639 15.364 15.364C17.0639 13.6641 18 11.404 18 9C18 6.59602 17.0638 4.33593 15.364 2.63602ZM11.8125 10.6875C11.8125 11.5905 11.2775 12.3705 10.5081 12.7284C10.446 12.7573 10.4062 12.8192 10.4062 12.8875V13.4841C10.4062 13.787 10.1735 14.0476 9.87093 14.0619C9.54788 14.0771 9.28125 13.8197 9.28125 13.5V13.1133C9.28125 13.0162 9.20254 12.9375 9.10547 12.9375H8.33203C8.23496 12.9375 8.15625 13.0162 8.15625 13.1133V13.4841C8.15625 13.787 7.92348 14.0476 7.62093 14.0619C7.29787 14.0771 7.03125 13.8197 7.03125 13.5V13.1133C7.03125 13.0162 6.95254 12.9375 6.85547 12.9375H5.92214C5.61927 12.9375 5.35866 12.7047 5.34438 12.4022C5.32916 12.0792 5.58654 11.8125 5.90625 11.8125H6.29297C6.39004 11.8125 6.46875 11.7338 6.46875 11.6367V9V6.36328C6.46875 6.26621 6.39004 6.1875 6.29297 6.1875H5.92214C5.61927 6.1875 5.35866 5.95473 5.34438 5.65221C5.32916 5.3292 5.58654 5.0625 5.90625 5.0625H6.85547C6.95254 5.0625 7.03125 4.98379 7.03125 4.88672V4.51589C7.03125 4.21298 7.26402 3.95237 7.56657 3.93813C7.88963 3.92295 8.15625 4.18032 8.15625 4.5V4.88672C8.15625 4.98379 8.23496 5.0625 8.33203 5.0625H9.10547C9.20254 5.0625 9.28125 4.98379 9.28125 4.88672V4.51589C9.28125 4.21298 9.51402 3.95237 9.81657 3.93813C10.1396 3.92295 10.4062 4.18032 10.4062 4.5V5.11246C10.4062 5.18084 10.446 5.24275 10.5081 5.27157C11.2775 5.62947 11.8125 6.40948 11.8125 7.3125C11.8125 7.92014 11.5701 8.47199 11.1772 8.87716C11.1106 8.94582 11.1106 9.05414 11.1772 9.1228C11.5701 9.52801 11.8125 10.0799 11.8125 10.6875Z" fill="#006431"/>
    <path d="M11.8125 10.6875C11.8125 11.5905 11.2775 12.3705 10.5081 12.7284C10.446 12.7573 10.4062 12.8192 10.4062 12.8875V13.4841C10.4062 13.787 10.1735 14.0476 9.87093 14.0619C9.54788 14.0771 9.28125 13.8197 9.28125 13.5V13.1133C9.28125 13.0162 9.20254 12.9375 9.10547 12.9375H8.33203C8.23496 12.9375 8.15625 13.0162 8.15625 13.1133V13.4841C8.15625 13.787 7.92348 14.0476 7.62093 14.0619C7.29787 14.0771 7.03125 13.8197 7.03125 13.5V13.1133C7.03125 13.0162 6.95254 12.9375 6.85547 12.9375H5.92214C5.61927 12.9375 5.35866 12.7047 5.34438 12.4022C5.32916 12.0792 5.58654 11.8125 5.90625 11.8125H6.29297C6.39004 11.8125 6.46875 11.7338 6.46875 11.6367V9V6.36328C6.46875 6.26621 6.39004 6.1875 6.29297 6.1875H5.92214C5.61927 6.1875 5.35866 5.95473 5.34438 5.65221C5.32916 5.3292 5.58654 5.0625 5.90625 5.0625H6.85547C6.95254 5.0625 7.03125 4.98379 7.03125 4.88672V4.51589C7.03125 4.21298 7.26402 3.95237 7.56657 3.93813C7.88963 3.92295 8.15625 4.18032 8.15625 4.5V4.88672C8.15625 4.98379 8.23496 5.0625 8.33203 5.0625H9.10547C9.20254 5.0625 9.28125 4.98379 9.28125 4.88672V4.51589C9.28125 4.21298 9.51402 3.95237 9.81657 3.93813C10.1396 3.92295 10.4062 4.18032 10.4062 4.5V5.11246C10.4062 5.18084 10.446 5.24275 10.5081 5.27157C11.2775 5.62947 11.8125 6.40948 11.8125 7.3125C11.8125 7.92014 11.5701 8.47199 11.1772 8.87716C11.1106 8.94582 11.1106 9.05414 11.1772 9.1228C11.5701 9.52801 11.8125 10.0799 11.8125 10.6875Z" fill="#006431"/>
    <g clip-path="url(#clip0_3871_3603)">
      <path d="M14.5 7.65317H13.2C13.2667 7.20732 13.2667 6.75286 13.2 6.30702H14.5C14.6658 6.30702 14.8247 6.2361 14.9419 6.10988C15.0592 5.98365 15.125 5.81245 15.125 5.63394C15.125 5.45543 15.0592 5.28423 14.9419 5.158C14.8247 5.03178 14.6658 4.96086 14.5 4.96086H12.8187C12.4646 4.1568 11.9062 3.4772 11.2083 3.00073C10.5103 2.52426 9.70136 2.27041 8.875 2.26855H7C6.83424 2.26855 6.67527 2.33947 6.55806 2.46569C6.44085 2.59192 6.375 2.76312 6.375 2.94163V4.96086H4.5C4.33424 4.96086 4.17527 5.03178 4.05806 5.158C3.94085 5.28423 3.875 5.45543 3.875 5.63394C3.875 5.81245 3.94085 5.98365 4.05806 6.10988C4.17527 6.2361 4.33424 6.30702 4.5 6.30702H6.375V7.65317H4.5C4.33424 7.65317 4.17527 7.72408 4.05806 7.85031C3.94085 7.97654 3.875 8.14774 3.875 8.32625C3.875 8.50476 3.94085 8.67596 4.05806 8.80218C4.17527 8.92841 4.33424 8.99932 4.5 8.99932H6.375V15.057C6.375 15.2355 6.44085 15.4067 6.55806 15.533C6.67527 15.6592 6.83424 15.7301 7 15.7301C7.16576 15.7301 7.32473 15.6592 7.44194 15.533C7.55915 15.4067 7.625 15.2355 7.625 15.057V11.6916H8.875C9.70136 11.6898 10.5103 11.4359 11.2083 10.9595C11.9062 10.483 12.4646 9.80338 12.8187 8.99932H14.5C14.6658 8.99932 14.8247 8.92841 14.9419 8.80218C15.0592 8.67596 15.125 8.50476 15.125 8.32625C15.125 8.14774 15.0592 7.97654 14.9419 7.85031C14.8247 7.72408 14.6658 7.65317 14.5 7.65317ZM7.625 3.61471H8.875C9.36014 3.61471 9.83862 3.73635 10.2725 3.97C10.7065 4.20365 11.0839 4.54289 11.375 4.96086H7.625V3.61471ZM7.625 6.30702H11.9375C12.0208 6.75125 12.0208 7.20894 11.9375 7.65317H7.625V6.30702ZM8.875 10.3455H7.625V8.99932H11.375C11.0839 9.41729 10.7065 9.75653 10.2725 9.99018C9.83862 10.2238 9.36014 10.3455 8.875 10.3455Z" fill="white"/>
      <path d="M14.5 7.65317H13.2C13.2667 7.20732 13.2667 6.75286 13.2 6.30702H14.5C14.6658 6.30702 14.8247 6.2361 14.9419 6.10988C15.0592 5.98365 15.125 5.81245 15.125 5.63394C15.125 5.45543 15.0592 5.28423 14.9419 5.158C14.8247 5.03178 14.6658 4.96086 14.5 4.96086H12.8187C12.4646 4.1568 11.9062 3.4772 11.2083 3.00073C10.5103 2.52426 9.70136 2.27041 8.875 2.26855H7C6.83424 2.26855 6.67527 2.33947 6.55806 2.46569C6.44085 2.59192 6.375 2.76312 6.375 2.94163V4.96086H4.5C4.33424 4.96086 4.17527 5.03178 4.05806 5.158C3.94085 5.28423 3.875 5.45543 3.875 5.63394C3.875 5.81245 3.94085 5.98365 4.05806 6.10988C4.17527 6.2361 4.33424 6.30702 4.5 6.30702H6.375V7.65317H4.5C4.33424 7.65317 4.17527 7.72408 4.05806 7.85031C3.94085 7.97654 3.875 8.14774 3.875 8.32625C3.875 8.50476 3.94085 8.67596 4.05806 8.80218C4.17527 8.92841 4.33424 8.99932 4.5 8.99932H6.375V15.057C6.375 15.2355 6.44085 15.4067 6.55806 15.533C6.67527 15.6592 6.83424 15.7301 7 15.7301C7.16576 15.7301 7.32473 15.6592 7.44194 15.533C7.55915 15.4067 7.625 15.2355 7.625 15.057V11.6916H8.875C9.70136 11.6898 10.5103 11.4359 11.2083 10.9595C11.9062 10.483 12.4646 9.80338 12.8187 8.99932H14.5C14.6658 8.99932 14.8247 8.92841 14.9419 8.80218C15.0592 8.67596 15.125 8.50476 15.125 8.32625C15.125 8.14774 15.0592 7.97654 14.9419 7.85031C14.8247 7.72408 14.6658 7.65317 14.5 7.65317ZM7.625 3.61471H8.875C9.36014 3.61471 9.83862 3.73635 10.2725 3.97C10.7065 4.20365 11.0839 4.54289 11.375 4.96086H7.625V3.61471ZM7.625 6.30702H11.9375C12.0208 6.75125 12.0208 7.20894 11.9375 7.65317H7.625V6.30702ZM8.875 10.3455H7.625V8.99932H11.375C11.0839 9.41729 10.7065 9.75653 10.2725 9.99018C9.83862 10.2238 9.36014 10.3455 8.875 10.3455Z" fill="white"/>
    </g> <defs> <clipPath id="clip0_3871_3603"> <rect width="14" height="14" fill="white" transform="translate(2 2)"/> </clipPath> </defs>
  </symbol>
  <symbol id="currency_krw" viewBox="0 0 18 18" fill="none" xmlns="http://www.w3.org/2000/svg">
    <path d="M15.364 2.63602C13.6641 0.936141 11.404 0 9 0C6.59602 0 4.33589 0.936141 2.63602 2.63602C0.936141 4.33589 0 6.59602 0 9C0 11.404 0.936176 13.6641 2.63602 15.364C4.33586 17.0639 6.59602 18 9 18C11.404 18 13.6641 17.0639 15.364 15.364C17.0639 13.6641 18 11.404 18 9C18 6.59602 17.0638 4.33593 15.364 2.63602ZM11.8125 10.6875C11.8125 11.5905 11.2775 12.3705 10.5081 12.7284C10.446 12.7573 10.4062 12.8192 10.4062 12.8875V13.4841C10.4062 13.787 10.1735 14.0476 9.87093 14.0619C9.54788 14.0771 9.28125 13.8197 9.28125 13.5V13.1133C9.28125 13.0162 9.20254 12.9375 9.10547 12.9375H8.33203C8.23496 12.9375 8.15625 13.0162 8.15625 13.1133V13.4841C8.15625 13.787 7.92348 14.0476 7.62093 14.0619C7.29787 14.0771 7.03125 13.8197 7.03125 13.5V13.1133C7.03125 13.0162 6.95254 12.9375 6.85547 12.9375H5.92214C5.61927 12.9375 5.35866 12.7047 5.34438 12.4022C5.32916 12.0792 5.58654 11.8125 5.90625 11.8125H6.29297C6.39004 11.8125 6.46875 11.7338 6.46875 11.6367V9V6.36328C6.46875 6.26621 6.39004 6.1875 6.29297 6.1875H5.92214C5.61927 6.1875 5.35866 5.95473 5.34438 5.65221C5.32916 5.3292 5.58654 5.0625 5.90625 5.0625H6.85547C6.95254 5.0625 7.03125 4.98379 7.03125 4.88672V4.51589C7.03125 4.21298 7.26402 3.95237 7.56657 3.93813C7.88963 3.92295 8.15625 4.18032 8.15625 4.5V4.88672C8.15625 4.98379 8.23496 5.0625 8.33203 5.0625H9.10547C9.20254 5.0625 9.28125 4.98379 9.28125 4.88672V4.51589C9.28125 4.21298 9.51402 3.95237 9.81657 3.93813C10.1396 3.92295 10.4062 4.18032 10.4062 4.5V5.11246C10.4062 5.18084 10.446 5.24275 10.5081 5.27157C11.2775 5.62947 11.8125 6.40948 11.8125 7.3125C11.8125 7.92014 11.5701 8.47199 11.1772 8.87716C11.1106 8.94582 11.1106 9.05414 11.1772 9.1228C11.5701 9.52801 11.8125 10.0799 11.8125 10.6875Z" fill="#0F64CD"/>
    <path d="M11.8125 10.6875C11.8125 11.5905 11.2775 12.3705 10.5081 12.7284C10.446 12.7573 10.4062 12.8192 10.4062 12.8875V13.4841C10.4062 13.787 10.1735 14.0476 9.87093 14.0619C9.54788 14.0771 9.28125 13.8197 9.28125 13.5V13.1133C9.28125 13.0162 9.20254 12.9375 9.10547 12.9375H8.33203C8.23496 12.9375 8.15625 13.0162 8.15625 13.1133V13.4841C8.15625 13.787 7.92348 14.0476 7.62093 14.0619C7.29787 14.0771 7.03125 13.8197 7.03125 13.5V13.1133C7.03125 13.0162 6.95254 12.9375 6.85547 12.9375H5.92214C5.61927 12.9375 5.35866 12.7047 5.34438 12.4022C5.32916 12.0792 5.58654 11.8125 5.90625 11.8125H6.29297C6.39004 11.8125 6.46875 11.7338 6.46875 11.6367V9V6.36328C6.46875 6.26621 6.39004 6.1875 6.29297 6.1875H5.92214C5.61927 6.1875 5.35866 5.95473 5.34438 5.65221C5.32916 5.3292 5.58654 5.0625 5.90625 5.0625H6.85547C6.95254 5.0625 7.03125 4.98379 7.03125 4.88672V4.51589C7.03125 4.21298 7.26402 3.95237 7.56657 3.93813C7.88963 3.92295 8.15625 4.18032 8.15625 4.5V4.88672C8.15625 4.98379 8.23496 5.0625 8.33203 5.0625H9.10547C9.20254 5.0625 9.28125 4.98379 9.28125 4.88672V4.51589C9.28125 4.21298 9.51402 3.95237 9.81657 3.93813C10.1396 3.92295 10.4062 4.18032 10.4062 4.5V5.11246C10.4062 5.18084 10.446 5.24275 10.5081 5.27157C11.2775 5.62947 11.8125 6.40948 11.8125 7.3125C11.8125 7.92014 11.5701 8.47199 11.1772 8.87716C11.1106 8.94582 11.1106 9.05414 11.1772 9.1228C11.5701 9.52801 11.8125 10.0799 11.8125 10.6875Z" fill="#0F64CD"/>
    <g clip-path="url(#clip0_3871_3637)"> <g clip-path="url(#clip1_3871_3637)"> <g clip-path="url(#clip2_3871_3637)"> <path d="M5.95794 13.1372L6.58161 10.8354H5.35774L5.93581 13.1449C5.94077 13.1503 5.94348 13.1576 5.94348 13.1657V13.1684V13.1711C5.94348 13.1788 5.94619 13.186 5.95116 13.1919C5.95161 13.1819 5.95342 13.1725 5.95523 13.1639V13.1648C5.95703 13.1571 5.95794 13.1476 5.95839 13.1381L5.95794 13.1372ZM6.85077 9.8495L7.12039 8.86408H4.87226L5.11884 9.8495H6.85077ZM8.3289 9.8495H9.39923L9.12961 8.86408H8.59039L8.3289 9.8495ZM11.7855 13.144L12.3862 10.8345H11.1388L11.7625 13.1363C11.763 13.1463 11.7648 13.1558 11.7666 13.1643V13.1634C11.7679 13.1738 11.772 13.1833 11.7783 13.1905C11.7788 13.1819 11.7801 13.1743 11.7824 13.1666V13.1675C11.7842 13.1607 11.7855 13.153 11.786 13.1454L11.7855 13.144ZM12.64 9.8495L12.8929 8.86408H10.6073L10.8688 9.8495H12.64ZM15.7959 10.0961V10.5888V10.5983C15.7959 10.7292 15.6897 10.8354 15.5588 10.8354C15.5556 10.8354 15.552 10.8354 15.5488 10.8354H13.9095L12.6472 15.5773C12.6255 15.6834 12.533 15.7625 12.4223 15.7625C12.4174 15.7625 12.4128 15.7625 12.4079 15.762H11.1845C11.1804 15.7625 11.1754 15.7625 11.1709 15.7625C11.0598 15.7625 10.9672 15.6834 10.946 15.5791L10.9455 15.5778L9.66748 10.8358H8.05884L6.77355 15.5787C6.75187 15.6848 6.65929 15.7638 6.54865 15.7638C6.54368 15.7638 6.53916 15.7638 6.53419 15.7634H5.31077C5.30987 15.7634 5.30942 15.7634 5.30852 15.7634C5.25206 15.7634 5.20058 15.743 5.16039 15.7092L5.16084 15.7096C5.12019 15.6776 5.09129 15.6324 5.08 15.5805L5.07955 15.5791L3.848 10.8372H2.24658C2.24387 10.8372 2.24026 10.8372 2.2371 10.8372C2.10613 10.8372 2 10.731 2 10.6001C2 10.5969 2 10.5933 2 10.5901V10.5906V10.0979C2 10.0952 2 10.0916 2 10.0884C2 9.95743 2.10613 9.8513 2.2371 9.8513H2.24703H3.59374L3.34084 8.86588H2.24658C2.24387 8.86588 2.24026 8.86588 2.2371 8.86588C2.10613 8.86588 2 8.75975 2 8.62879C2 8.62563 2 8.62201 2 8.61885V8.12659C2 8.12388 2 8.12027 2 8.11711C2 7.98614 2.10613 7.88001 2.2371 7.88001H2.24703H3.08387L2.39742 5.23175C2.38929 5.20963 2.38432 5.18388 2.38432 5.15679C2.38432 5.10259 2.40374 5.05292 2.43626 5.01453L2.43581 5.01498C2.48187 4.95943 2.55052 4.92421 2.62774 4.92421C2.63135 4.92421 2.63542 4.92421 2.63903 4.92466H2.63858H3.69355C3.70077 4.92375 3.70936 4.9233 3.71794 4.9233C3.82677 4.9233 3.9171 5.00369 3.93245 5.10801V5.10937L4.62523 7.88046H7.38865L8.13561 5.10937C8.15729 5.00324 8.24987 4.92421 8.36052 4.92421C8.36548 4.92421 8.37 4.92421 8.37497 4.92466H8.37452H9.34458C9.34865 4.92421 9.35361 4.92421 9.35813 4.92421C9.46923 4.92421 9.56181 5.00324 9.58303 5.10756L9.58349 5.10892L10.3377 7.88001H13.1476L13.8639 5.10892C13.8797 5.00324 13.9695 4.92285 14.0784 4.92285C14.087 4.92285 14.0955 4.9233 14.1037 4.92421H14.1028H15.1573H15.1641C15.2422 4.92421 15.3117 4.96034 15.3569 5.01634L15.3574 5.01679C15.3894 5.05472 15.4093 5.1044 15.4093 5.15859C15.4093 5.18524 15.4043 5.21098 15.3957 5.23492L15.3962 5.23356L14.6957 7.88182H15.5488H15.5583C15.6893 7.88182 15.7954 7.98795 15.7954 8.11892V8.12885V8.62111V8.63059C15.7954 8.76156 15.6893 8.86769 15.5583 8.86769C15.5552 8.86769 15.5515 8.86769 15.5484 8.86769H15.5488H14.4329L14.1714 9.85311H15.5488H15.5583C15.6893 9.85311 15.7954 9.95924 15.7954 10.0902V10.1001L15.7959 10.0961Z" fill="white"/> </g> </g> </g>
    <defs> <clipPath id="clip0_3871_3637"> <rect width="14" height="15.0769" fill="white" transform="translate(2 2)"/> </clipPath> <clipPath id="clip1_3871_3637"> <rect width="15.0769" height="15.0769" fill="white" transform="translate(2 3.07715)"/> </clipPath> <clipPath id="clip2_3871_3637"> <rect width="14" height="14" fill="white" transform="translate(2 0.922852)"/> </clipPath> </defs>
  </symbol>
</svg>
