<?xml version="1.0" encoding="UTF-8"?>
<!DOCTYPE svg PUBLIC "-//W3C//DTD SVG 1.1//EN" "http://www.w3.org/Graphics/SVG/1.1/DTD/svg11.dtd">
<svg class="h-0 opacity-0 pointer-events-none w-0" fill="none" xmlns="http://www.w3.org/2000/svg">
  <symbol fill="none" id="OnAirIcon" viewBox="0 0 22 15"> <path d="M10.7029 2.91472C12.9649 2.91472 14.7984 4.74829 14.7984 7.01025C14.7984 9.27222 12.9649 11.1058 10.7029 11.1058C8.44092 11.1058 6.60735 9.27222 6.60735 7.01025C6.60735 4.74829 8.44092 2.91472 10.7029 2.91472ZM15.5141 2.93518C15.3256 2.71287 15.3532 2.37975 15.5762 2.19131C15.7985 2.00287 16.1316 2.0311 16.32 2.25342C16.8741 2.90695 17.3159 3.65788 17.6165 4.47657C17.9066 5.26773 18.0647 6.1217 18.0647 7.00955C18.0647 7.8981 17.9066 8.75137 17.6165 9.54253C17.3166 10.3619 16.8741 11.1128 16.32 11.7657C16.1316 11.988 15.7985 12.0162 15.5762 11.8278C15.3539 11.6393 15.3256 11.3062 15.5141 11.0839C15.9883 10.5242 16.3666 9.88129 16.6242 9.17836C16.8712 8.50365 17.0068 7.77248 17.0068 7.00884C17.0068 6.2445 16.872 5.51404 16.6242 4.83933C16.3666 4.13709 15.9876 3.49344 15.5141 2.93377V2.93518ZM3.25992 13.149C3.44483 13.3734 3.41236 13.7058 3.18793 13.89C2.96279 14.0749 2.63108 14.0425 2.44617 13.818C1.66913 12.8773 1.05017 11.7996 0.628834 10.6266C0.221609 9.49312 0 8.27498 0 7.01025C0 5.74482 0.221609 4.52738 0.628834 3.39393C1.05017 2.22095 1.66913 1.14396 2.44617 0.202471C2.63108 -0.0226676 2.96279 -0.0544266 3.18793 0.130483C3.41236 0.314687 3.44483 0.647101 3.25992 0.871533C2.55839 1.72127 1.99942 2.69311 1.62043 3.74893C1.25626 4.76381 1.05723 5.86127 1.05723 7.01025C1.05723 8.15924 1.25555 9.25669 1.62043 10.2716C1.99942 11.3274 2.55839 12.2985 3.25992 13.149ZM5.08713 2.25342C5.27557 2.0311 5.60869 2.00287 5.83101 2.19131C6.05332 2.37975 6.08155 2.71287 5.89311 2.93518C5.41884 3.49485 5.04055 4.1378 4.78295 4.84074C4.53593 5.51545 4.40043 6.24662 4.40043 7.01025C4.40043 7.77459 4.53523 8.50506 4.78295 9.17977C5.04055 9.882 5.41955 10.5257 5.89311 11.0853C6.08155 11.3076 6.05403 11.6408 5.83101 11.8292C5.60869 12.0176 5.27557 11.9894 5.08713 11.7671C4.53311 11.1136 4.0913 10.3626 3.79065 9.54394C3.50058 8.75278 3.34249 7.89881 3.34249 7.01096C3.34249 6.1224 3.50058 5.26914 3.79065 4.47798C4.0906 3.65859 4.53311 2.90766 5.08713 2.25483V2.25342ZM18.961 13.818C18.7761 14.0432 18.4444 14.0749 18.2193 13.89C17.9948 13.7058 17.9624 13.3734 18.1473 13.149C18.8488 12.2992 19.4078 11.3274 19.7868 10.2716C20.1509 9.25669 20.3499 8.15924 20.3499 7.01025C20.3499 5.86127 20.1516 4.76381 19.7868 3.74893C19.4078 2.69311 18.8488 1.72198 18.1473 0.871533C17.9624 0.647101 17.9948 0.314687 18.2193 0.130483C18.4444 -0.0544266 18.7761 -0.0219618 18.961 0.202471C19.7381 1.14325 20.357 2.22095 20.7783 3.39393C21.1856 4.52738 21.4072 5.74553 21.4072 7.01025C21.4072 8.27569 21.1856 9.49312 20.7783 10.6266C20.357 11.7996 19.7381 12.8765 18.961 13.818ZM9.50379 4.7377L12.9063 7.01025L9.50379 9.2821V4.7377Z" fill="currentColor" clip-rule="evenodd" fill-rule="evenodd"/> </symbol>
  <symbol fill="none" id="CalendarIcon" viewBox="0 0 16 16"> <path d="M4.55597 3.46448H4.82389C5.23411 3.46448 5.56486 3.1331 5.56486 2.72351V1.30441C5.56486 0.862786 5.20207 0.5 4.76045 0.5H4.61878C4.17716 0.5 3.81437 0.862786 3.81437 1.30441V2.72351C3.79897 3.13311 4.13036 3.46448 4.55597 3.46448ZM13.8266 1.7608H12.4863V2.72289C12.4863 3.55871 11.8082 4.23685 10.9724 4.23685H10.7044C9.86861 4.23685 9.19047 3.55871 9.19047 2.72289V1.7608H6.33681V2.72289C6.33681 3.55871 5.65867 4.23685 4.82285 4.23685H4.5389C3.70308 4.23685 3.02494 3.55871 3.02494 2.72289V1.7608H1.68467C0.97512 1.7608 0.407227 2.32869 0.407227 3.03824V14.202C0.407227 14.9116 0.97512 15.4795 1.68467 15.4795H13.8098C14.5194 15.4795 15.0873 14.9116 15.0873 14.202L15.0879 3.03824C15.1039 2.32869 14.5361 1.7608 13.8266 1.7608ZM13.1799 12.9246C13.1799 13.2713 12.8959 13.5553 12.5491 13.5553H2.96278C2.61601 13.5553 2.33207 13.2713 2.33207 12.9246V7.34245C2.33207 6.97966 2.61601 6.71173 2.96278 6.71173H12.5337C12.8805 6.71173 13.1644 6.99568 13.1644 7.34245V12.9246H13.1799ZM10.9573 3.46448H10.6894C10.2792 3.46448 9.9478 3.13311 9.9478 2.72351V1.30441C9.9478 0.862786 10.3106 0.5 10.7522 0.5H10.8939C11.3355 0.5 11.6983 0.862786 11.6983 1.30441V2.72351C11.6983 3.1331 11.3675 3.46448 10.9573 3.46448ZM5.23369 7.81566H3.86201C3.64152 7.81566 3.4518 8.00474 3.4518 8.22587V9.23476C3.4518 9.45526 3.64089 9.64497 3.86201 9.64497H5.23369C5.45418 9.64497 5.6439 9.45589 5.6439 9.23476V8.22587C5.6439 8.00537 5.4702 7.81566 5.23369 7.81566ZM7.07573 7.81566H8.4474C8.66853 7.81566 8.85762 8.00537 8.85762 8.22587V9.23476C8.85762 9.45589 8.6679 9.64497 8.4474 9.64497H7.07573C6.8546 9.64497 6.66551 9.45526 6.66551 9.23476V8.22587C6.66551 8.00474 6.85523 7.81566 7.07573 7.81566ZM11.6492 7.81566H10.2776C10.0571 7.81566 9.86734 8.00474 9.86734 8.22587V9.23476C9.86734 9.45526 10.0564 9.64497 10.2776 9.64497H11.6492C11.8697 9.64497 12.0594 9.45589 12.0594 9.23476V8.22587C12.0594 8.00537 11.8857 7.81566 11.6492 7.81566ZM3.86201 10.6074H5.23369C5.4702 10.6074 5.6439 10.7965 5.6439 11.017V12.0259C5.6439 12.247 5.45418 12.4361 5.23369 12.4361L3.86201 12.4367C3.64089 12.4367 3.4518 12.247 3.4518 12.0265V11.0176C3.4518 10.7965 3.64152 10.6074 3.86201 10.6074ZM8.4474 10.6074H7.07573C6.85523 10.6074 6.66551 10.7965 6.66551 11.0176V12.0265C6.66551 12.247 6.8546 12.4367 7.07573 12.4367H8.4474C8.6679 12.4367 8.85762 12.2477 8.85762 12.0265V11.0176C8.85762 10.7965 8.66853 10.6074 8.4474 10.6074ZM10.2776 10.6074H11.6492C11.8857 10.6074 12.0594 10.7965 12.0594 11.0176V12.0265C12.0594 12.2477 11.8697 12.4367 11.6492 12.4367H10.2776C10.0564 12.4367 9.86734 12.247 9.86734 12.0265V11.0176C9.86734 10.7965 10.0571 10.6074 10.2776 10.6074Z" fill="currentColor" clip-rule="evenodd" fill-rule="evenodd"/> </symbol>
  <symbol fill="none" id="WeeklyRaffleIcon" viewBox="0 0 18 16"> <path d="M16.1174 5.78842C15.1928 5.94869 14.2425 5.53619 13.7316 4.74999C13.2198 3.96282 13.2301 2.92633 13.7512 2.14809L12.4648 0.169403C12.4109 0.0865534 12.3271 0.0293154 12.2287 0.00855447C12.1303 -0.0125945 12.0308 0.00583808 11.9475 0.0597776L3.162 5.77096L3.86903 6.85868C3.99224 7.04805 3.9383 7.30242 3.74893 7.42504C3.56499 7.54417 3.3015 7.4881 3.18237 7.30494L2.47514 6.21722L0.170296 7.71569C0.087252 7.76963 0.0300141 7.85345 0.00944722 7.95183C-0.0115077 8.0502 0.00673083 8.14993 0.0606703 8.23297L1.34668 10.2117C2.26986 10.0514 3.22176 10.4637 3.73263 11.2501C4.24428 12.0373 4.234 13.0738 3.71303 13.852L4.99905 15.8307C5.05298 15.9133 5.1368 15.9706 5.23537 15.9915C5.33316 16.0125 5.43289 15.9942 5.51632 15.9403L7.82136 14.4418L7.29438 13.6312C7.23462 13.5394 7.21445 13.4302 7.23734 13.3229C7.25985 13.216 7.32291 13.1242 7.41468 13.0646C7.50646 13.0049 7.61569 12.9851 7.7228 13.007C7.8299 13.0297 7.92167 13.0928 7.98143 13.1845L8.50822 13.9952L17.294 8.28419C17.3768 8.23025 17.4342 8.14643 17.4548 8.04806C17.4758 7.94989 17.4575 7.84996 17.4036 7.76692L16.1174 5.78842ZM5.53437 9.64064C5.51166 9.74774 5.4488 9.83951 5.35703 9.89908L5.35683 9.89927C5.29009 9.94235 5.21286 9.96524 5.13409 9.96524C4.99478 9.96524 4.86633 9.89539 4.79047 9.77878L4.07878 8.68389C3.95557 8.49452 4.00951 8.24034 4.19907 8.11753C4.29104 8.05757 4.40047 8.03759 4.50738 8.0599C4.61448 8.0826 4.70626 8.14566 4.76602 8.23743L5.47732 9.33233C5.53669 9.4241 5.55707 9.53353 5.53437 9.64064ZM7.14227 12.1141C7.11957 12.2212 7.0567 12.313 6.96493 12.3725C6.89838 12.4158 6.82115 12.4387 6.74199 12.4387C6.60287 12.4387 6.47423 12.369 6.39817 12.2524L5.68668 11.1575C5.62692 11.0658 5.60654 10.9563 5.62944 10.8492C5.65214 10.7421 5.7152 10.6504 5.80697 10.5906C5.99615 10.468 6.25033 10.5215 6.37353 10.7111L7.08503 11.806C7.14479 11.8976 7.16516 12.0072 7.14227 12.1141ZM12.3961 9.22134L10.5034 9.38957L8.79712 10.2249L8.05225 8.47686L6.73015 7.11227L8.16227 5.86351L9.05169 4.1846L10.6817 5.16114L12.5533 5.48826L12.1284 7.34006L12.3961 9.22134Z" fill="currentColor"/> </symbol>
  <symbol fill="none" id="MyBetsIcon" viewBox="0 0 18 16"> <path d="M0.000976562 0.00112457V2.00288H2.00273V16H3.74977C3.9685 15.1223 4.74953 14.4824 5.68012 14.4824C6.61071 14.4824 7.39173 15.1223 7.60765 15.9859L7.61047 15.9994H10.4146C10.6333 15.1217 11.4144 14.4818 12.345 14.4818C13.2756 14.4818 14.0566 15.1217 14.2725 15.9854L14.2753 15.9989H16.0072V2.00176H17.9937V0L0.000976562 0.00112457ZM9.99458 10.4974H5.00143V8.99779H9.99458V10.4974ZM12.9938 6.50121H5.002V5.00158H12.9938V6.50121Z" fill="currentColor"/> </symbol>
  <symbol fill="none" id="RegistrationPackIcon" viewBox="0 0 24 24"> <g clip-path="url(#clip0_698_9549)"> <path d="M16.9402 6.31055H14.8794V6.63047C14.8794 7.86734 13.8314 8.87359 12.5434 8.87359H12.2809C10.9929 8.87359 9.94498 7.86734 9.94498 6.63047V6.31055H7.88098C7.39457 6.31055 7.00098 6.68812 7.00098 7.15215V19.1585C7.00098 19.6225 7.39457 20.0002 7.88098 20.0002H16.9434C17.4298 20.0002 17.8234 19.6225 17.8234 19.1585V7.15531C17.8234 6.68812 17.4266 6.31055 16.9402 6.31055ZM12.4122 9.23852C13.0714 9.23852 13.6058 9.77293 13.6058 10.4321C13.6058 11.0913 13.0714 11.6289 12.4122 11.6289C11.753 11.6289 11.2154 11.0913 11.2154 10.4321C11.2154 9.77293 11.753 9.23852 12.4122 9.23852ZM10.1178 13.4209C10.1178 12.7521 10.6618 12.2081 11.3306 12.2081H13.4938C14.1626 12.2081 14.7066 12.7521 14.7066 13.4209V15.3538C14.7066 15.5298 14.5626 15.6737 14.3866 15.6737H10.4378C10.2618 15.6737 10.1178 15.5298 10.1178 15.3538V13.4209ZM16.1622 18.5545H8.66076C8.48404 18.5545 8.34076 18.4114 8.34076 18.2345C8.34076 18.0577 8.48404 17.9145 8.66076 17.9145H16.1622C16.3389 17.9145 16.4822 18.0577 16.4822 18.2345C16.4822 18.4114 16.3389 18.5545 16.1622 18.5545ZM16.1622 17.0273H8.66076C8.48404 17.0273 8.34076 16.8842 8.34076 16.7073C8.34076 16.5305 8.48404 16.3873 8.66076 16.3873H16.1622C16.3389 16.3873 16.4822 16.5305 16.4822 16.7073C16.4822 16.8842 16.3389 17.0273 16.1622 17.0273Z" fill="currentColor"/> <path d="M12.281 8.23359H12.5434C13.4778 8.23359 14.2394 7.5168 14.2394 6.63039V4.32C14.2394 4.14398 14.0954 4 13.9194 4H10.905C10.7289 4 10.585 4.14398 10.585 4.32V6.63039C10.585 7.5168 11.3466 8.23359 12.281 8.23359Z" fill="currentColor"/> </g> <defs> <clipPath id="clip0_698_9549"> <rect fill="white" height="24" width="24" transform="translate(0.000976562)"/> </clipPath> </defs> </symbol>
  <symbol fill="none" id="BattlesIcon" viewBox="0 0 16 16"> <path d="M15.6683 0.00950222L11.6418 1.08841L8.35975 4.60808L11.2833 7.74229L14.9116 4.35819L15.9905 0.331662C16.0155 0.238604 15.991 0.146019 15.9225 0.0775243C15.8545 0.00950223 15.7619 -0.0155337 15.6683 0.00950222ZM0.331726 0.00950222L4.35825 1.08841L12.8483 10.1916L13.5422 9.49811L14.4902 10.4462L12.9144 12.022L14.519 13.6267C14.9116 13.5336 15.3415 13.6404 15.6476 13.9465C16.1176 14.416 16.1176 15.1779 15.6476 15.6475C15.178 16.1175 14.4161 16.1175 13.9465 15.6475C13.6404 15.3414 13.5337 14.9115 13.6267 14.519L12.0221 12.9143L10.4462 14.4902L9.49817 13.5421L10.1916 12.8482L1.08847 4.35819L0.00956561 0.331662C-0.0154703 0.238604 0.00956561 0.146019 0.0775877 0.0775243C0.146082 0.00950223 0.238668 -0.0155337 0.331726 0.00950222ZM4.74324 8.48533L3.15181 10.1916L2.45836 9.49811L1.50983 10.4462L3.08567 12.022L1.48102 13.6267C1.08847 13.5336 0.658609 13.6404 0.35251 13.9465C-0.117503 14.416 -0.117503 15.1779 0.35251 15.6475C0.822051 16.1175 1.58399 16.1175 2.05401 15.6475C2.36011 15.3414 2.46639 14.9115 2.3738 14.519L3.97799 12.9143L5.55384 14.4902L6.50237 13.5421L5.80845 12.8482L7.61481 11.1637L4.74324 8.48533Z" fill="currentColor" clip-rule="evenodd" fill-rule="evenodd"/> </symbol>
  <symbol fill="none" id="affiliate" viewBox="0 0 20 20"> <g clip-path="url(#clip0_11374_86900)"> <g clip-path="url(#clip1_11374_86900)"> <g clip-path="url(#clip2_11374_86900)"> <path d="M10.208 2.36133C11.0135 2.36133 11.6665 3.06533 11.6665 3.93383C11.6665 3.94583 11.6665 3.95783 11.666 3.96983C12.1945 4.13883 12.6925 4.38783 13.1475 4.70233C13.406 4.45033 13.749 4.29633 14.125 4.29633C14.9305 4.29633 15.5835 5.00033 15.5835 5.86883C15.5835 6.31583 15.4105 6.71933 15.1325 7.00583C15.389 7.51633 15.582 8.07033 15.7 8.65433C16.471 8.69533 17.084 9.38233 17.084 10.2238C17.084 11.0923 16.431 11.7963 15.6255 11.7963C15.614 11.7963 15.603 11.7963 15.592 11.7958C15.4565 12.2903 15.2645 12.7603 15.0255 13.1963C15.2685 13.4758 15.4175 13.8533 15.4175 14.2678C15.4175 15.1363 14.7645 15.8403 13.959 15.8403C13.5745 15.8403 13.225 15.6803 12.9645 15.4183C12.561 15.6758 12.125 15.8823 11.6655 16.0298L11.6665 16.0653C11.6665 16.9338 11.0135 17.6378 10.208 17.6378C9.40252 17.6378 8.74952 16.9338 8.74952 16.0653L8.75202 16.1458C8.21052 16.0188 7.69702 15.8103 7.22352 15.5333C6.95852 15.8333 6.58402 16.0203 6.16952 16.0203C5.36402 16.0203 4.71102 15.3163 4.71102 14.4478C4.71102 14.0423 4.85352 13.6723 5.08752 13.3933C4.79552 12.9033 4.56502 12.3663 4.40752 11.7953L4.37452 11.7968C3.56902 11.7968 2.91602 11.0928 2.91602 10.2243C2.91602 9.35583 3.56902 8.65183 4.37452 8.65183L4.30002 8.65483C4.43402 7.99233 4.66452 7.36883 4.97502 6.80233C4.73152 6.52233 4.58302 6.14533 4.58302 5.73083C4.58302 4.86233 5.23602 4.15833 6.04152 4.15833C6.42602 4.15833 6.77552 4.31883 7.03652 4.58083C7.56052 4.24633 8.13852 3.99733 8.75302 3.85333C8.79152 3.02183 9.42902 2.36133 10.209 2.36133H10.208ZM8.83852 4.47683L8.80852 4.48333C8.29902 4.61333 7.81802 4.82433 7.37752 5.10383C7.45602 5.29583 7.49902 5.50783 7.49902 5.73083C7.49902 6.59933 6.84602 7.30333 6.04052 7.30333C5.84152 7.30333 5.65152 7.26033 5.47852 7.18233C5.22252 7.66783 5.02952 8.19983 4.91452 8.76383C5.45252 8.99483 5.83252 9.56133 5.83252 10.2238C5.83252 10.8458 5.49802 11.3833 5.01202 11.6383C5.14702 12.1248 5.34052 12.5843 5.58452 13.0063C5.76402 12.9213 5.96152 12.8743 6.16902 12.8743C6.97452 12.8743 7.62752 13.5783 7.62752 14.4468C7.62752 14.6383 7.59602 14.8218 7.53752 14.9913C7.94202 15.2283 8.37902 15.4083 8.83902 15.5228C9.04352 14.9208 9.57902 14.4923 10.208 14.4923C10.7975 14.4923 11.3055 14.8698 11.5355 15.4123C11.9185 15.2848 12.282 15.1098 12.6215 14.8943C12.543 14.7023 12.5 14.4903 12.5 14.2673C12.5 13.3988 13.153 12.6948 13.9585 12.6948C14.1575 12.6948 14.3475 12.7378 14.5205 12.8158C14.7145 12.4483 14.8725 12.0528 14.9875 11.6373C14.5015 11.3828 14.1665 10.8453 14.1665 10.2238C14.1665 9.56133 14.546 8.99483 15.0835 8.76283C14.982 8.26483 14.82 7.79133 14.606 7.35233C14.4555 7.41033 14.2935 7.44133 14.1245 7.44133C13.319 7.44133 12.666 6.73733 12.666 5.86883C12.666 5.63733 12.7125 5.41783 12.7955 5.21983C12.408 4.95033 11.9845 4.73533 11.5355 4.58433C11.3055 5.12783 10.7975 5.50533 10.2075 5.50533C9.57902 5.50533 9.04352 5.07683 8.83802 4.47583L8.83852 4.47683Z" fill="white"/> <path d="M10.208 2.36133C11.0135 2.36133 11.6665 3.06533 11.6665 3.93383C11.6665 3.94583 11.6665 3.95783 11.666 3.96983C12.1945 4.13883 12.6925 4.38783 13.1475 4.70233C13.406 4.45033 13.749 4.29633 14.125 4.29633C14.9305 4.29633 15.5835 5.00033 15.5835 5.86883C15.5835 6.31583 15.4105 6.71933 15.1325 7.00583C15.389 7.51633 15.582 8.07033 15.7 8.65433C16.471 8.69533 17.084 9.38233 17.084 10.2238C17.084 11.0923 16.431 11.7963 15.6255 11.7963C15.614 11.7963 15.603 11.7963 15.592 11.7958C15.4565 12.2903 15.2645 12.7603 15.0255 13.1963C15.2685 13.4758 15.4175 13.8533 15.4175 14.2678C15.4175 15.1363 14.7645 15.8403 13.959 15.8403C13.5745 15.8403 13.225 15.6803 12.9645 15.4183C12.561 15.6758 12.125 15.8823 11.6655 16.0298L11.6665 16.0653C11.6665 16.9338 11.0135 17.6378 10.208 17.6378C9.40252 17.6378 8.74952 16.9338 8.74952 16.0653L8.75202 16.1458C8.21052 16.0188 7.69702 15.8103 7.22352 15.5333C6.95852 15.8333 6.58402 16.0203 6.16952 16.0203C5.36402 16.0203 4.71102 15.3163 4.71102 14.4478C4.71102 14.0423 4.85352 13.6723 5.08752 13.3933C4.79552 12.9033 4.56502 12.3663 4.40752 11.7953L4.37452 11.7968C3.56902 11.7968 2.91602 11.0928 2.91602 10.2243C2.91602 9.35583 3.56902 8.65183 4.37452 8.65183L4.30002 8.65483C4.43402 7.99233 4.66452 7.36883 4.97502 6.80233C4.73152 6.52233 4.58302 6.14533 4.58302 5.73083C4.58302 4.86233 5.23602 4.15833 6.04152 4.15833C6.42602 4.15833 6.77552 4.31883 7.03652 4.58083C7.56052 4.24633 8.13852 3.99733 8.75302 3.85333C8.79152 3.02183 9.42902 2.36133 10.209 2.36133H10.208ZM8.83852 4.47683L8.80852 4.48333C8.29902 4.61333 7.81802 4.82433 7.37752 5.10383C7.45602 5.29583 7.49902 5.50783 7.49902 5.73083C7.49902 6.59933 6.84602 7.30333 6.04052 7.30333C5.84152 7.30333 5.65152 7.26033 5.47852 7.18233C5.22252 7.66783 5.02952 8.19983 4.91452 8.76383C5.45252 8.99483 5.83252 9.56133 5.83252 10.2238C5.83252 10.8458 5.49802 11.3833 5.01202 11.6383C5.14702 12.1248 5.34052 12.5843 5.58452 13.0063C5.76402 12.9213 5.96152 12.8743 6.16902 12.8743C6.97452 12.8743 7.62752 13.5783 7.62752 14.4468C7.62752 14.6383 7.59602 14.8218 7.53752 14.9913C7.94202 15.2283 8.37902 15.4083 8.83902 15.5228C9.04352 14.9208 9.57902 14.4923 10.208 14.4923C10.7975 14.4923 11.3055 14.8698 11.5355 15.4123C11.9185 15.2848 12.282 15.1098 12.6215 14.8943C12.543 14.7023 12.5 14.4903 12.5 14.2673C12.5 13.3988 13.153 12.6948 13.9585 12.6948C14.1575 12.6948 14.3475 12.7378 14.5205 12.8158C14.7145 12.4483 14.8725 12.0528 14.9875 11.6373C14.5015 11.3828 14.1665 10.8453 14.1665 10.2238C14.1665 9.56133 14.546 8.99483 15.0835 8.76283C14.982 8.26483 14.82 7.79133 14.606 7.35233C14.4555 7.41033 14.2935 7.44133 14.1245 7.44133C13.319 7.44133 12.666 6.73733 12.666 5.86883C12.666 5.63733 12.7125 5.41783 12.7955 5.21983C12.408 4.95033 11.9845 4.73533 11.5355 4.58433C11.3055 5.12783 10.7975 5.50533 10.2075 5.50533C9.57902 5.50533 9.04352 5.07683 8.83802 4.47583L8.83852 4.47683Z" fill="currentColor"/> </g> </g> </g> <defs> <clipPath id="clip0_11374_86900"> <rect fill="white" height="20" width="20"/> </clipPath> <clipPath id="clip1_11374_86900"> <rect fill="white" height="16" width="16" transform="translate(2 2)"/> </clipPath> <clipPath id="clip2_11374_86900"> <rect fill="white" height="16" width="16" transform="translate(2 2)"/> </clipPath> </defs> </symbol>
  <symbol fill="none" id="playersCharity" viewBox="0 0 20 20"> <g clip-path="url(#clip0_11374_86931)"> <path d="M9.40501 5.50928C8.78931 5.50928 8.21184 5.83315 7.82218 6.25206C7.43195 5.83315 6.7887 5.50928 6.173 5.50928C5.42909 5.50928 4.73017 5.84496 4.30227 6.40781C3.94634 6.87563 3.58817 7.7438 3.98345 9.16638C4.7566 11.5465 7.74683 13.3813 7.74683 13.3813C7.74683 13.3813 10.822 11.5465 11.5951 9.16638C11.9898 7.7438 11.6317 6.87563 11.2763 6.40781C10.8484 5.84496 10.1489 5.50928 9.40501 5.50928Z" fill="currentColor"/> <path d="M18.1975 3.31934L14.4949 2.21051V2.13629C14.4949 1.51553 13.9911 1.01172 13.3703 1.01172H2.12457C1.50381 1.01172 1 1.51553 1 2.13629V16.1934C1 16.8142 1.50381 17.318 2.12457 17.318H8.10617L13.5193 18.9396C14.1142 19.1179 14.7411 18.7799 14.9188 18.1851L18.9527 4.71943C19.1303 4.12453 18.7924 3.49758 18.1975 3.31934ZM2.12457 2.13629H13.3703V16.1934H2.12457V2.13629Z" fill="currentColor"/> </g> <defs> <clipPath id="clip0_11374_86931"> <rect fill="white" height="20" width="20"/> </clipPath> </defs> </symbol>
  <symbol fill="none" id="promotions" viewBox="0 0 20 20"> <g clip-path="url(#clip0_11374_86880)"> <path d="M6.43401 6.40914L3.16527 7.13118C2.81347 7.20901 2.51251 7.41865 2.31862 7.72276C2.18636 7.93015 2.11978 8.16453 2.11213 8.40431C1.78192 8.55546 1.50031 8.79569 1.30012 9.1088C1.02615 9.53798 0.935722 10.0486 1.04549 10.5452C1.24118 11.4328 2.03025 12.0392 2.9039 12.0406C2.9075 12.0406 2.91154 12.0392 2.91514 12.0392C3.12208 12.4468 3.52292 12.7149 3.97368 12.7635L7.56229 12.0455L6.43446 6.40869L6.43401 6.40914ZM4.02272 8.4331L5.44475 8.11909C5.68768 8.06826 5.92746 8.21851 5.981 8.46189C6.03453 8.70437 5.88158 8.9446 5.63865 8.99813L4.21661 9.31214C4.18377 9.31934 4.15093 9.32249 4.11854 9.32249C3.91205 9.32249 3.72671 9.17943 3.68037 8.96934C3.62683 8.72686 3.77979 8.48663 4.02272 8.4331ZM6.05748 10.8943L4.63544 11.2083C4.6026 11.2155 4.56931 11.2187 4.53737 11.2187C4.33088 11.2187 4.14553 11.0756 4.0992 10.8655C4.04566 10.6231 4.19862 10.3828 4.44155 10.3293L5.86358 10.0153C6.10696 9.96445 6.34629 10.1147 6.39983 10.3581C6.45336 10.6006 6.3004 10.8408 6.05748 10.8943Z" fill="currentColor"/> <path d="M18.1277 10.3684L16.4961 9.7341C16.2639 9.64458 16.0035 9.75884 15.9135 9.99008C15.8235 10.2218 15.9382 10.4827 16.1695 10.5727L17.8011 11.207C17.8547 11.2277 17.9096 11.2376 17.9635 11.2376C18.1435 11.2376 18.3144 11.1287 18.3837 10.951C18.4737 10.7193 18.359 10.4584 18.1277 10.3684Z" fill="currentColor"/> <path d="M18.9889 6.58472C18.9349 6.34179 18.6911 6.19063 18.4526 6.24192L16.5564 6.66074C16.3139 6.71428 16.1605 6.95451 16.2136 7.19699C16.2604 7.40707 16.4458 7.54968 16.6518 7.55013C16.6842 7.55013 16.7175 7.54653 16.7499 7.53979L18.6461 7.12096C18.8885 7.06742 19.0419 6.82719 18.9889 6.58472Z" fill="currentColor"/> <path d="M16.6031 2.8793C16.4245 2.70655 16.1398 2.7124 15.9675 2.8919L14.7546 4.15378C14.5823 4.33283 14.5877 4.6176 14.7672 4.78944C14.854 4.87357 14.9661 4.91496 15.0781 4.91496C15.1964 4.91496 15.3147 4.86862 15.4029 4.77685L16.6157 3.51497C16.788 3.33592 16.7826 3.05115 16.6031 2.8793Z" fill="currentColor"/> <path d="M15.1982 7.42079C14.9472 6.28352 13.9201 5.51649 12.7959 5.54754L12.4104 3.8016C12.2997 3.29864 11.9394 2.90681 11.4481 2.7525C10.9568 2.59775 10.4372 2.71516 10.0589 3.06426L7.20898 5.69464L8.5316 12.3037L12.3717 13.5368C12.517 13.5835 12.6641 13.6065 12.8098 13.6069C13.1571 13.6074 13.4945 13.4787 13.7631 13.2344C14.1437 12.888 14.3043 12.3806 14.1936 11.8781L13.8081 10.1326C14.841 9.68813 15.4492 8.55851 15.1982 7.42079ZM13.607 9.22161L12.997 6.45807C13.6273 6.51565 14.1761 6.96552 14.3196 7.61468C14.4631 8.26429 14.1536 8.90445 13.607 9.22161Z" fill="currentColor"/> <path d="M4.21334 13.6347L4.79187 16.2556C4.8697 16.6074 5.07979 16.9084 5.38345 17.1023C5.60253 17.2422 5.85131 17.3142 6.10459 17.3146C6.20266 17.3146 6.30208 17.3038 6.40015 17.2827L7.01332 17.1473C7.73986 16.9862 8.20053 16.2646 8.04037 15.5385L7.47579 12.9819L4.21334 13.6347Z" fill="currentColor"/> </g> <defs> <clipPath id="clip0_11374_86880"> <rect fill="white" height="20" width="20"/> </clipPath> </defs> </symbol>
  <symbol fill="none" id="vip" viewBox="0 0 20 20"> <g clip-path="url(#clip0_11374_86890)"> <path d="M5.09153 9.83506H4.10977C3.3723 9.83418 2.66529 9.54083 2.14382 9.01936C1.62235 8.49789 1.329 7.79088 1.32812 7.05341V6.07165C1.32849 5.76799 1.44929 5.47687 1.66401 5.26215C1.87873 5.04743 2.16985 4.92664 2.47351 4.92627H5.09153C5.22171 4.9263 5.34654 4.97803 5.43859 5.07008C5.53064 5.16213 5.58237 5.28697 5.58241 5.41715V9.34418C5.58237 9.47436 5.53064 9.59919 5.43859 9.69124C5.34654 9.78329 5.22171 9.83502 5.09153 9.83506ZM2.47351 5.90803C2.43014 5.90811 2.38857 5.92538 2.3579 5.95604C2.32723 5.98671 2.30997 6.02828 2.30988 6.07165V7.05341C2.31037 7.53062 2.50015 7.98815 2.83759 8.32559C3.17503 8.66303 3.63256 8.85281 4.10977 8.8533H4.60065V5.90803H2.47351Z" fill="currentColor"/> <path d="M15.8906 9.83506H14.9088C14.7787 9.83502 14.6538 9.78329 14.5618 9.69124C14.4697 9.59919 14.418 9.47436 14.418 9.34418V5.41715C14.418 5.28697 14.4697 5.16213 14.5618 5.07008C14.6538 4.97803 14.7787 4.9263 14.9088 4.92627H17.5269C17.8305 4.92664 18.1216 5.04743 18.3364 5.26215C18.5511 5.47687 18.6719 5.76799 18.6722 6.07165V7.05341C18.6714 7.79088 18.378 8.49789 17.8566 9.01936C17.3351 9.54083 16.6281 9.83418 15.8906 9.83506ZM15.3997 8.8533H15.8906C16.3678 8.85281 16.8253 8.66303 17.1628 8.32559C17.5002 7.98815 17.69 7.53062 17.6905 7.05341V6.07165C17.6904 6.02828 17.6731 5.98671 17.6425 5.95604C17.6118 5.92538 17.5702 5.90811 17.5269 5.90803H15.3997V8.8533Z" fill="currentColor"/> <path d="M10.9817 12.126H9.01822C8.74712 12.126 8.52734 12.3458 8.52734 12.6169V15.8894C8.52734 16.1605 8.74712 16.3803 9.01822 16.3803H10.9817C11.2528 16.3803 11.4726 16.1605 11.4726 15.8894V12.6169C11.4726 12.3458 11.2528 12.126 10.9817 12.126Z" fill="currentColor"/> <path d="M14.9081 2.96484H5.09049C4.96031 2.96488 4.83547 3.01661 4.74342 3.10866C4.65137 3.20071 4.59964 3.32554 4.59961 3.45572V8.03726C4.60111 9.38208 5.13601 10.6714 6.08695 11.6223C7.03788 12.5733 8.3272 13.1082 9.67202 13.1097H10.3265C11.6714 13.1082 12.9607 12.5733 13.9116 11.6223C14.8625 10.6714 15.3974 9.38208 15.3989 8.03726V3.45572C15.3989 3.32554 15.3472 3.20071 15.2551 3.10866C15.1631 3.01661 15.0382 2.96488 14.9081 2.96484ZM11.9914 7.08246L11.3923 7.6818C11.3537 7.72049 11.3257 7.76852 11.3111 7.82121C11.2965 7.87391 11.2957 7.9295 11.3089 7.98257L11.5921 9.11545C11.6072 9.17563 11.6042 9.23892 11.5836 9.29745C11.563 9.35598 11.5257 9.40716 11.4763 9.44464C11.4268 9.48213 11.3675 9.50425 11.3055 9.50826C11.2436 9.51228 11.1819 9.49801 11.128 9.46722L10.1564 8.91179C10.1085 8.88444 10.0544 8.87005 9.99927 8.87005C9.94417 8.87005 9.89003 8.88444 9.84219 8.91179L8.87066 9.46722C8.81678 9.498 8.75505 9.51227 8.69313 9.50826C8.63121 9.50424 8.57183 9.48212 8.52238 9.44465C8.47293 9.40717 8.43558 9.35599 8.41497 9.29746C8.39436 9.23893 8.39141 9.17564 8.40647 9.11545L8.68962 7.98257C8.70282 7.9295 8.70208 7.87391 8.68746 7.82121C8.67285 7.76852 8.64486 7.72049 8.60621 7.6818L8.00715 7.08246C7.96288 7.03817 7.93273 6.98175 7.92051 6.92033C7.9083 6.85891 7.91456 6.79525 7.93852 6.73739C7.96247 6.67952 8.00304 6.63006 8.0551 6.59525C8.10716 6.56044 8.16837 6.54184 8.23099 6.54181H9.03074C9.09271 6.54182 9.15331 6.52364 9.20503 6.48953C9.25676 6.45541 9.29733 6.40686 9.32172 6.3499L9.70826 5.44756C9.73265 5.39059 9.77322 5.34203 9.82494 5.30791C9.87667 5.27379 9.93727 5.2556 9.99924 5.2556C10.0612 5.2556 10.1218 5.27379 10.1735 5.30791C10.2253 5.34203 10.2658 5.39059 10.2902 5.44756L10.6768 6.3499C10.7011 6.40686 10.7417 6.45541 10.7934 6.48953C10.8452 6.52364 10.9058 6.54182 10.9677 6.54181H11.7675C11.8301 6.54183 11.8913 6.56042 11.9434 6.59523C11.9955 6.63003 12.036 6.67949 12.06 6.73736C12.084 6.79522 12.0902 6.85889 12.078 6.92032C12.0658 6.98174 12.0357 7.03817 11.9914 7.08246Z" fill="currentColor"/> <path d="M16.0547 1H3.94639C3.76566 1 3.61914 1.14652 3.61914 1.32725V2.96351C3.61914 3.14425 3.76566 3.29077 3.94639 3.29077H16.0547C16.2355 3.29077 16.382 3.14425 16.382 2.96351V1.32725C16.382 1.14652 16.2355 1 16.0547 1Z" fill="currentColor"/> <path d="M13.7678 19.0004H6.23654C6.13853 19.0004 6.04177 18.9784 5.9534 18.936C5.86504 18.8936 5.78732 18.8319 5.726 18.7555C5.66467 18.679 5.62129 18.5898 5.59907 18.4943C5.57685 18.3989 5.57636 18.2996 5.59762 18.204L5.96123 16.5677C5.99353 16.4223 6.07444 16.2923 6.19061 16.1991C6.30677 16.106 6.45123 16.0552 6.60015 16.0552H13.4042C13.5531 16.0552 13.6975 16.106 13.8137 16.1991C13.9299 16.2923 14.0108 16.4223 14.0431 16.5677L14.4067 18.204C14.4279 18.2996 14.4275 18.3989 14.4052 18.4943C14.383 18.5898 14.3396 18.679 14.2783 18.7555C14.217 18.8319 14.1393 18.8936 14.0509 18.936C13.9625 18.9784 13.8658 19.0004 13.7678 19.0004Z" fill="currentColor"/> </g> <defs> <clipPath id="clip0_11374_86890"> <rect fill="white" height="20" width="20"/> </clipPath> </defs> </symbol>
  <symbol fill="none" id="favoritesIcon" viewBox="0 0 16 16"> <g clip-path="url(#clip0_13125_105048)"> <path d="M11.2987 1.00751C9.64752 1.00751 8.60496 1.81125 8 2.53813C7.39501 1.81125 6.35248 1.00751 4.70064 1.00751C1.8888 1.00751 0 3.61247 0 6.04495C0 9.58687 6.8032 14.3331 7.57872 14.8624C7.7056 14.9486 7.85309 14.9924 7.99997 14.9924C8.14747 14.9924 8.29434 14.9493 8.42122 14.8624C9.19685 14.333 15.9999 9.58671 15.9999 6.04495C15.9999 3.61247 14.1106 1.00751 11.2987 1.00751ZM7.99936 13.3344C5.32064 11.4288 1.49504 8.01871 1.49504 6.04495C1.49504 4.55996 2.60941 2.50239 4.70064 2.50239C6.6032 2.50239 7.27504 4.14559 7.30128 4.21055C7.41066 4.4993 7.68691 4.68805 7.99565 4.69055H8.00065C8.30753 4.69055 8.58377 4.50055 8.69691 4.21554C8.72441 4.14554 9.39628 2.50242 11.2988 2.50242C13.3907 2.50242 14.5051 4.55986 14.5051 6.04498C14.5051 8.01618 10.6787 11.4275 7.99936 13.3344Z" fill="currentColor"/> </g> <defs> <clipPath id="clip0_13125_105048"> <rect width="16" height="16" fill="white"/> </clipPath> </defs> </symbol>
</svg>
