<?xml version="1.0" encoding="UTF-8"?>
<!DOCTYPE svg PUBLIC "-//W3C//DTD SVG 1.1//EN" "http://www.w3.org/Graphics/SVG/1.1/DTD/svg11.dtd">
<svg class="h-0 opacity-0 pointer-events-none w-0" fill="none" xmlns="http://www.w3.org/2000/svg">
  <symbol fill="none" id="masterCard" viewBox="0 0 39 24"> <path d="M25.2759 2.56738H13.6855V21.4324H25.2759V2.56738Z" fill="#FF5F00"/> <path d="M14.879 12.0015C14.8761 8.32086 16.5716 4.8433 19.477 2.57081C14.5412 -1.29475 7.45317 -0.731695 3.19421 3.86427C-1.06474 8.46024 -1.06474 15.5461 3.19421 20.142C7.45317 24.738 14.5412 25.301 19.477 21.4355C16.5707 19.1623 14.875 15.6833 14.879 12.0015Z" fill="#EB001B"/> <path d="M37.8055 19.7787V19.1068H37.9727V18.9678H37.5747V19.1068H37.7319V19.7787H37.8055ZM38.5779 19.7787V18.9678H38.4575L38.3171 19.547L38.1766 18.9678H38.0563V19.7787H38.1432V19.1647L38.2736 19.6918H38.3639L38.4943 19.1647V19.7787H38.5779ZM38.9558 11.9998C38.9558 16.5929 36.3239 20.7828 32.1781 22.79C28.0323 24.7972 23.1005 24.2693 19.4771 21.4304C22.3812 19.156 24.0768 15.6789 24.0768 11.9981C24.0768 8.31727 22.3812 4.84018 19.4771 2.56576C23.1005 -0.273068 28.0323 -0.801 32.1781 1.20618C36.3239 3.21336 38.9558 7.40327 38.9558 11.9964V11.9998Z" fill="#F79E1B"/> </symbol>
  <symbol fill="none" id="googlePay" viewBox="0 0 46 18"> <path d="M21.7643 8.75986V13.9394H20.1148V1.14893H24.4877C25.5959 1.14893 26.5409 1.51706 27.3141 2.25332C28.1045 2.98959 28.4997 3.88852 28.4997 4.95011C28.4997 6.03739 28.1045 6.93632 27.3141 7.66402C26.5495 8.39173 25.6045 8.7513 24.4877 8.7513H21.7643V8.75986ZM21.7643 2.72419V7.18459H24.522C25.175 7.18459 25.7248 6.962 26.1543 6.52538C26.5925 6.08876 26.8158 5.55796 26.8158 4.95867C26.8158 4.36795 26.5925 3.84571 26.1543 3.40909C25.7248 2.95535 25.1835 2.73275 24.522 2.73275H21.7643V2.72419ZM32.8124 4.89874C34.0323 4.89874 34.9945 5.22407 35.699 5.87472C36.4034 6.52538 36.7557 7.41575 36.7557 8.54583V13.9394H35.1835V12.7237H35.1148C34.4361 13.7254 33.5254 14.2219 32.3914 14.2219C31.4206 14.2219 30.6131 13.9394 29.9602 13.3658C29.3072 12.7922 28.9808 12.0816 28.9808 11.2255C28.9808 10.318 29.3244 9.59886 30.0117 9.06806C30.699 8.52871 31.6182 8.26331 32.7608 8.26331C33.7402 8.26331 34.5478 8.44309 35.1749 8.80266V8.42597C35.1749 7.85237 34.9515 7.37294 34.4962 6.97056C34.0409 6.56818 33.5082 6.37128 32.8983 6.37128C31.979 6.37128 31.2488 6.75653 30.7162 7.5356L29.2643 6.62811C30.0632 5.47235 31.2488 4.89874 32.8124 4.89874ZM30.6818 11.2512C30.6818 11.6792 30.8622 12.0388 31.2316 12.3213C31.5924 12.6038 32.022 12.7494 32.5117 12.7494C33.2076 12.7494 33.8261 12.4926 34.3673 11.9789C34.9086 11.4652 35.1835 10.8659 35.1835 10.1725C34.668 9.77008 33.955 9.56461 33.0357 9.56461C32.3656 9.56461 31.8072 9.72728 31.3605 10.044C30.9052 10.3779 30.6818 10.7803 30.6818 11.2512Z" fill="#ECF0EC"/> <path d="M45.7244 5.18066L40.2264 17.7832H38.5253L40.5697 13.3741L36.9444 5.18066H38.7401L41.3517 11.465H41.3863L43.9294 5.18066H45.7244Z" fill="#ECF0EC"/> <path d="M15.2034 7.71522C15.2034 7.17928 15.1553 6.66647 15.066 6.17334H8.15192V8.99855L12.1339 8.9994C11.9723 9.93942 11.4526 10.7408 10.6562 11.275V13.1079H13.0265C14.4105 11.8315 15.2034 9.94456 15.2034 7.71522Z" fill="#4285F4"/> <path d="M10.6572 11.2751C9.99737 11.7185 9.14772 11.9779 8.15374 11.9779C6.23364 11.9779 4.60478 10.6886 4.02145 8.95068H1.57645V10.841C2.78778 13.2364 5.27746 14.8802 8.15374 14.8802C10.1417 14.8802 11.8118 14.2287 13.0274 13.1072L10.6572 11.2751Z" fill="#34A853"/> <path d="M3.79111 7.54839C3.79111 7.0604 3.87272 6.58867 4.02135 6.1452V4.25488H1.57634C1.07549 5.24542 0.793701 6.36351 0.793701 7.54839C0.793701 8.73326 1.07635 9.85136 1.57634 10.8419L4.02135 8.95157C3.87272 8.5081 3.79111 8.03638 3.79111 7.54839Z" fill="#FABB05"/> <path d="M8.15373 3.11808C9.23878 3.11808 10.2104 3.49049 10.9776 4.21819L13.0781 2.12669C11.8023 0.942669 10.1391 0.21582 8.15373 0.21582C5.27832 0.21582 2.78778 1.85958 1.57645 4.25501L4.02145 6.14533C4.60478 4.4074 6.23364 3.11808 8.15373 3.11808Z" fill="#E94235"/> </symbol>
  <symbol fill="none" id="applePay" viewBox="0 0 42 18"> <path d="M8.29689 2.48127C8.78616 1.87143 9.11818 1.05258 9.03061 0.21582C8.31439 0.25131 7.44038 0.686697 6.93437 1.29702C6.48003 1.81967 6.0779 2.6728 6.18273 3.47449C6.98673 3.54398 7.78998 3.07401 8.29689 2.48127ZM9.02148 3.63102C7.85388 3.56171 6.86114 4.29138 6.30355 4.29138C5.74566 4.29138 4.89182 3.66594 3.96831 3.6828C2.76631 3.70039 1.65099 4.37766 1.04103 5.45482C-0.213561 7.60968 0.709945 10.8061 1.92997 12.5611C2.52244 13.4294 3.23647 14.3854 4.17731 14.3511C5.06625 14.3163 5.41468 13.7774 6.49522 13.7774C7.57497 13.7774 7.88882 14.3511 8.82982 14.3337C9.80565 14.3163 10.4157 13.465 11.0082 12.5959C11.6879 11.6061 11.9661 10.6504 11.9836 10.5979C11.9661 10.5806 10.1019 9.86789 10.0846 7.73093C10.067 5.94163 11.5482 5.09054 11.6179 5.03776C10.7815 3.80495 9.47456 3.66594 9.02148 3.63102Z" fill="#F8F5F6"/> <path d="M19.188 1.20947C21.7257 1.20947 23.4929 2.9527 23.4929 5.4907C23.4929 8.03777 21.6894 9.79005 19.1243 9.79005H16.3146V14.2429H14.2845V1.20947H19.188ZM16.3146 8.09195H18.6439C20.4114 8.09195 21.4173 7.14368 21.4173 5.49976C21.4173 3.85602 20.4114 2.91664 18.653 2.91664H16.3146V8.09195ZM24.0233 11.5423C24.0233 9.8803 25.3012 8.85973 27.5673 8.73325L30.1774 8.57976V7.84822C30.1774 6.79142 29.4614 6.15918 28.2652 6.15918C27.132 6.15918 26.425 6.701 26.253 7.55014H24.404C24.5128 5.83391 25.9809 4.56944 28.3376 4.56944C30.6488 4.56944 32.126 5.78879 32.126 7.69456V14.2429H30.2498V12.6803H30.2047C29.6519 13.7371 28.4463 14.4054 27.1956 14.4054C25.3285 14.4054 24.0233 13.2493 24.0233 11.5423ZM30.1774 10.6843V9.93466L27.8299 10.0791C26.6607 10.1604 25.9991 10.6753 25.9991 11.4882C25.9991 12.319 26.6879 12.861 27.7393 12.861C29.1079 12.861 30.1774 11.9216 30.1774 10.6843ZM33.8973 17.7384V16.1577C34.0421 16.1938 34.3683 16.1938 34.5316 16.1938C35.4379 16.1938 35.9274 15.8145 36.2263 14.8391C36.2263 14.8209 36.3987 14.261 36.3987 14.2519L32.9547 4.74105H35.0753L37.4865 12.4727H37.5225L39.9337 4.74105H42.0001L38.4288 14.7396C37.6134 17.0429 36.6707 17.7835 34.6949 17.7835C34.5316 17.7835 34.0421 17.7654 33.8973 17.7384Z" fill="#F8F5F6"/> </symbol>
  <symbol fill="none" id="samsungPay" viewBox="0 0 47 22"> <path d="M15.2861 11.8821H17.6802C19.1261 11.8821 20.1985 12.989 20.1985 14.3631C20.1985 15.7469 19.1261 16.8538 17.6705 16.8538H16.5884V18.8485H15.2861V11.8821ZM16.5884 13.0843V15.6516H17.5842C18.3602 15.6516 18.8869 15.0789 18.8869 14.3631C18.8869 13.657 18.3602 13.0843 17.5842 13.0843H16.5884ZM20.4478 16.0617C20.4478 14.2105 21.8077 13.1511 23.225 13.1511C23.9626 13.1511 24.6229 13.4565 25.025 13.9336V13.2656H26.318V18.8482H25.025V18.1228C24.6136 18.6384 23.9432 18.9628 23.2056 18.9628C21.8557 18.9628 20.4478 17.8844 20.4478 16.0617ZM25.0923 16.0428C25.0923 15.0979 24.374 14.3247 23.4165 14.3247C22.459 14.3247 21.7214 15.0787 21.7214 16.0428C21.7214 17.0159 22.459 17.7795 23.4165 17.7795C24.374 17.7795 25.0923 17.0066 25.0923 16.0428Z" fill="#F8F5F6" clip-rule="evenodd" fill-rule="evenodd"/> <path d="M29.0379 18.5714L26.7393 13.2657H28.1189L29.6797 17.0256L31.1546 13.2657H32.5141L29.1718 21.4245H27.8603L29.0379 18.5714Z" fill="#F8F5F6" clip-rule="evenodd" fill-rule="evenodd"/> <path d="M38.5673 0.783569L38.6562 5.898H38.6204L37.1175 0.783569H34.6914V7.23176H36.2988L36.2085 1.94112H36.2444L37.8582 7.23176H40.1869V0.783569H38.5673Z" fill="#F8F5F6" clip-rule="evenodd" fill-rule="evenodd"/> <path d="M7.78986 0.783569L6.57715 7.29838H8.34499L9.23895 1.38742L9.27548 1.3867L10.1472 7.29838H11.9036L10.6981 0.783569H7.78986Z" fill="#F8F5F6" clip-rule="evenodd" fill-rule="evenodd"/> <path d="M17.6687 0.783569L16.8621 5.76548H16.8256L16.0205 0.783569H13.353L13.209 7.29838H14.845L14.8859 1.44186H14.9231L16.0148 7.29838H17.6737L18.7661 1.44257L18.8019 1.44186L18.8427 7.29838H20.4788L20.3341 0.783569H17.6687Z" fill="#F8F5F6" clip-rule="evenodd" fill-rule="evenodd"/> <path d="M3.82576 5.46051C3.88973 5.61821 3.86941 5.82006 3.83876 5.94257C3.78545 6.15937 3.63753 6.38081 3.20176 6.38081C2.79298 6.38081 2.54478 6.14509 2.54478 5.79018L2.54344 5.15872H0.790039V5.66103C0.790039 7.1142 1.9371 7.55344 3.16611 7.55344C4.34849 7.55344 5.3213 7.15139 5.47689 6.06375C5.55618 5.50134 5.49821 5.13282 5.46989 4.9957C5.19371 3.63118 2.71335 3.22448 2.52845 2.46154C2.49713 2.32907 2.5048 2.19195 2.52112 2.11925C2.56776 1.90975 2.70969 1.68167 3.11847 1.68167C3.50127 1.68167 3.72582 1.91706 3.72582 2.27163V2.67568H5.35762V2.21652C5.35762 0.797548 4.07796 0.575439 3.15279 0.575439C1.99107 0.575439 1.04057 0.959565 0.866998 2.02197C0.820023 2.31247 0.81336 2.57243 0.882323 2.90078C1.16584 4.23243 3.48894 4.61722 3.82576 5.46051ZM25.0824 5.44802C25.1447 5.60473 25.1257 5.80326 25.0951 5.92511C25.0421 6.13958 24.8958 6.35837 24.4647 6.35837C24.0596 6.35837 23.8134 6.12564 23.8134 5.77338L23.8121 5.14922H22.0767L22.076 5.64656C22.076 7.08545 23.2127 7.51938 24.4287 7.51938C25.6001 7.51938 26.5629 7.12197 26.7169 6.04463C26.7955 5.48819 26.7379 5.12399 26.7099 4.9872C26.4357 3.63596 23.9803 3.23357 23.7981 2.47827C23.7661 2.34779 23.7741 2.21234 23.7897 2.13996C23.8361 1.93313 23.977 1.70637 24.3811 1.70637C24.7612 1.70637 24.9831 1.93877 24.9831 2.29102V2.69009H26.5986V2.23624C26.5986 0.831213 25.3316 0.612092 24.4154 0.612092C23.2657 0.612092 22.3245 0.990906 22.1533 2.04368C22.106 2.33119 22.0996 2.5885 22.1683 2.91286C22.4485 4.23223 24.7492 4.61271 25.0824 5.44802ZM30.571 6.32324C31.0258 6.32324 31.1654 6.01116 31.198 5.85081C31.2117 5.78075 31.214 5.6858 31.2133 5.60214V0.782143H32.8685V5.45373C32.8701 5.57359 32.8578 5.8186 32.8518 5.88235C32.7375 7.09813 31.7727 7.49255 30.571 7.49255C29.3687 7.49255 28.4042 7.09813 28.2896 5.88235C28.2839 5.8186 28.2712 5.57359 28.2746 5.45373V0.782143H29.9284V5.60214C29.9264 5.6858 29.9297 5.78075 29.9437 5.85081C29.9757 6.01116 30.1159 6.32324 30.571 6.32324ZM44.2077 6.25548C44.6811 6.25548 44.846 5.95668 44.876 5.78271C44.8893 5.70901 44.893 5.61804 44.8916 5.53537V4.58917H44.2213V3.63931H46.5371V5.38597C46.5361 5.50848 46.5331 5.59812 46.5134 5.81459C46.4055 7.00149 45.373 7.42512 44.2143 7.42512C43.0549 7.42512 42.0235 7.00149 41.9142 5.81459C41.8959 5.59812 41.8922 5.50848 41.8919 5.38597L41.8922 2.64464C41.8922 2.5291 41.9062 2.32492 41.9199 2.21602C42.0655 0.997911 43.0549 0.605818 44.2147 0.605818C45.374 0.605818 46.3892 0.994259 46.5094 2.21602C46.5308 2.42352 46.5248 2.64464 46.5248 2.64464V2.8621H44.876V2.4969C44.876 2.4969 44.875 2.34218 44.8553 2.24856C44.8257 2.10514 44.7014 1.77579 44.2017 1.77579C43.7262 1.77579 43.5867 2.08787 43.55 2.24856C43.5317 2.33455 43.524 2.45075 43.524 2.55699V5.53537C43.5234 5.61804 43.5264 5.70901 43.539 5.78271C43.5697 5.95668 43.7349 6.25548 44.2077 6.25548Z" fill="#F8F5F6" clip-rule="evenodd" fill-rule="evenodd"/> </symbol>
</svg>
