<?xml version="1.0" encoding="UTF-8"?>
<!DOCTYPE svg PUBLIC "-//W3C//DTD SVG 1.1//EN" "http://www.w3.org/Graphics/SVG/1.1/DTD/svg11.dtd">
<svg class="h-0 opacity-0 pointer-events-none w-0" fill="none" xmlns="http://www.w3.org/2000/svg">
  <symbol fill="none" id="buyCrypto" viewBox="0 0 20 20"> <path d="M14.4005 8.73199C14.2305 8.73199 14.0412 8.75121 13.8704 8.7697V8.50502C13.8704 4.94655 10.9937 2.06982 7.4352 2.06982C3.87672 2.06982 1 4.94655 1 8.50502C1 12.0635 3.87672 14.9402 7.4352 14.9402C8.32462 14.9402 9.15786 14.7509 9.91502 14.4293C10.4259 16.4352 12.2432 17.9301 14.4005 17.9301C16.9364 17.9301 19 15.8674 19 13.3306C19 10.7948 16.9373 8.73199 14.4005 8.73199ZM7.18967 7.86104H7.73826C8.89311 7.86104 9.82023 8.8451 9.70629 10.0183C9.63088 10.8893 8.94921 11.5517 8.11672 11.741V12.4227C8.11672 12.5365 8.02209 12.612 7.92745 12.612H7.0188C6.90494 12.612 6.82953 12.5365 6.82953 12.4227V11.7602C5.99704 11.5902 5.3346 10.8893 5.25843 10.0376C5.23921 9.92372 5.33385 9.82908 5.4477 9.82908H6.35635C6.45099 9.82908 6.5264 9.88601 6.54562 9.96142C6.60255 10.2646 6.88646 10.4915 7.20807 10.4915H7.75665C8.13519 10.4915 8.43833 10.1884 8.43833 9.80985C8.43833 9.43131 8.13519 9.12817 7.75665 9.12817H7.30271C6.28095 9.12817 5.35303 8.37109 5.2584 7.34933C5.16376 6.30835 5.86391 5.41897 6.82949 5.22969V4.56725C6.82949 4.45339 6.92413 4.37798 7.01876 4.37798H7.92741C8.02205 4.37798 8.11668 4.47261 8.11668 4.56725V5.22969C8.94917 5.39974 9.61162 6.10064 9.70625 6.95236C9.72547 7.06622 9.61162 7.16086 9.51698 7.16086H8.60833C8.5137 7.16086 8.43828 7.10393 8.41906 7.02852C8.34365 6.72538 8.07822 6.49841 7.75662 6.49841H7.20803C6.82949 6.49841 6.52636 6.80154 6.52636 7.18009C6.50787 7.5394 6.81113 7.86104 7.18967 7.86104ZM14.4005 16.6814C12.5455 16.6814 11.0506 15.1865 11.0506 13.3315C11.0506 11.4765 12.5455 9.98163 14.4005 9.98163C16.2555 9.98163 17.7504 11.4766 17.7504 13.3315C17.7504 15.1858 16.2555 16.6814 14.4005 16.6814Z" fill="currentColor"/> <path d="M16.0865 12.7067H15.0262V11.6465C15.0262 11.3056 14.7423 11.0217 14.4015 11.0217C14.0607 11.0217 13.7768 11.3056 13.7768 11.6465V12.7067H12.7165C12.3757 12.7067 12.0918 12.9906 12.0918 13.3314C12.0918 13.6723 12.3757 13.9562 12.7165 13.9562H13.7768V15.0164C13.7768 15.3572 14.0607 15.6411 14.4015 15.6411C14.7423 15.6411 15.0262 15.3572 15.0262 15.0164V13.9562H16.0865C16.4273 13.9562 16.7112 13.6723 16.7112 13.3314C16.7105 12.9906 16.4266 12.7067 16.0865 12.7067Z" fill="currentColor"/> </symbol>
  <symbol fill="none" id="deposit" viewBox="0 0 20 20"> <path d="M17.4544 12.3877H14.6123V14.4149H15.5974C15.8061 14.4149 15.9571 14.5851 15.9571 14.7746V16.5938C15.9571 16.8025 15.7869 16.9535 15.5974 16.9535H4.41855C4.20983 16.9535 4.05886 16.7833 4.05886 16.5938V14.7746C4.05886 14.5658 4.22909 14.4149 4.41855 14.4149H5.40366V12.3877H2.56157C2.29661 12.3877 2.08789 12.5964 2.08789 12.8614V18.5262C2.08789 18.7912 2.29661 18.9999 2.56157 18.9999H17.4352C17.7001 18.9999 17.9088 18.7912 17.9088 18.5262V12.8614C17.9281 12.5957 17.7194 12.3877 17.4544 12.3877Z" fill="currentColor"/> <path d="M13.583 7.74567C13.583 7.21499 13.1471 6.77905 12.6164 6.77905H7.36896C6.83828 6.77905 6.40234 7.21499 6.40234 7.74567V15.9684H13.5646V7.74567H13.583ZM10.419 13.657V14.1877C10.419 14.2632 10.362 14.3394 10.2673 14.3394H9.71812C9.64262 14.3394 9.56639 14.2824 9.56639 14.1877V13.6763C8.99797 13.6193 8.54354 13.1833 8.48655 12.6149C8.48655 12.5772 8.48655 12.5394 8.5243 12.5009C8.54354 12.4632 8.59979 12.4439 8.63827 12.4439H9.18744C9.26293 12.4439 9.31992 12.4817 9.31992 12.5579C9.35767 12.7097 9.49015 12.8421 9.66113 12.8421H10.1541C10.4383 12.8421 10.6655 12.6334 10.7032 12.3877C10.7225 12.236 10.6655 12.1035 10.5707 11.9895C10.476 11.8755 10.3243 11.8193 10.1918 11.8193H9.77511C9.39616 11.8193 9.03647 11.6491 8.77075 11.3649C8.5058 11.0806 8.39181 10.7017 8.42955 10.3228C8.48654 9.73508 8.96023 9.24291 9.56639 9.12892V8.59825C9.56639 8.52276 9.62338 8.44652 9.71811 8.44652H10.2673C10.3428 8.44652 10.419 8.50351 10.419 8.59825V9.10967C10.9874 9.16666 11.4419 9.60261 11.4988 10.171C11.4988 10.2088 11.4988 10.2465 11.4611 10.285C11.4419 10.3227 11.3856 10.342 11.3471 10.342H10.798C10.7225 10.342 10.6655 10.3042 10.6655 10.228C10.6277 10.0763 10.4952 9.9438 10.3243 9.9438H9.83134C9.54713 9.9438 9.31991 10.1525 9.28217 10.3982C9.26293 10.55 9.31992 10.6824 9.41465 10.7964C9.50939 10.9104 9.66112 10.9667 9.7936 10.9667H10.1533C10.8734 10.9667 11.4989 11.4973 11.5551 12.179C11.6321 12.8991 11.1392 13.543 10.419 13.657Z" fill="currentColor"/> <path d="M9.82143 5.81234C9.91617 5.92631 10.1056 5.92631 10.2004 5.81234L11.9626 3.70881C12.0951 3.53858 11.9819 3.29212 11.7732 3.29212H10.8065V1.26496C10.8065 1.13248 10.6926 1 10.5416 1H9.49948C9.34776 1 9.23452 1.11398 9.23452 1.26496V3.31145H8.26791C8.05919 3.31145 7.94596 3.55792 8.07844 3.72814L9.82143 5.81234Z" fill="currentColor"/> </symbol>
  <symbol fill="none" id="sendTip" viewBox="0 0 20 20"> <path d="M13.8191 2C16.6744 2 19 4.50565 19 7.58384C19 9.4092 17.771 11.1816 16.9387 12.04C15.3508 13.7227 10 18 10 18C10 18 4.64908 13.7229 3.06126 12.04C2.22891 11.1814 1 9.4092 1 7.58384C1 4.50565 3.32577 2 6.18094 2C7.69352 2 9.09227 3.27031 10.0376 4.39791C10.983 3.27022 12.3065 2 13.8191 2ZM10.2622 5.56769H9.51038V6.31924C8.98009 6.40383 8.55689 6.60728 8.2408 6.92958C7.92543 7.25188 7.76739 7.6308 7.76739 8.06566C7.76739 8.48793 7.87448 8.85007 8.08939 9.14999C8.30431 9.45062 8.68246 9.71069 9.22309 9.92952L9.86194 10.1882C10.3169 10.3728 10.6079 10.5112 10.7364 10.6035C10.8642 10.6958 10.9653 10.8174 11.0392 10.967C11.1131 11.1173 11.15 11.29 11.15 11.4836C11.15 11.7934 11.0222 12.0485 10.766 12.2492C10.5097 12.4491 10.1707 12.5498 9.74822 12.5498C9.50672 12.5498 9.23122 12.5044 8.92324 12.4135C8.61453 12.3226 8.36637 12.2177 8.17878 12.0989L7.78882 12.963C7.92988 13.0441 8.18986 13.1336 8.56874 13.2307C8.94762 13.3272 9.26151 13.3825 9.51041 13.395V14.4325H10.2623V13.3475C10.8797 13.2573 11.362 13.0511 11.7106 12.7302C12.0585 12.4093 12.2328 12.036 12.2328 11.6102C12.2328 11.0942 12.1028 10.6706 11.8428 10.3406C11.5836 10.0106 11.1722 9.73096 10.6094 9.50233L10.1109 9.30029C9.7032 9.1311 9.42918 8.99687 9.28812 8.8969C9.14779 8.79622 9.03922 8.67457 8.9639 8.53055C8.88782 8.38653 8.85016 8.22714 8.85016 8.05165C8.85016 7.7664 8.95577 7.53361 9.16627 7.35182C9.3775 7.17006 9.667 7.07987 10.0356 7.07987C10.2881 7.07987 10.5622 7.12182 10.8576 7.20641C11.1538 7.29101 11.3738 7.3784 11.5186 7.46929L11.8377 6.65272C11.5637 6.43669 11.0385 6.31435 10.2623 6.28637L10.2622 5.56769Z" fill="currentColor"/> </symbol>
  <symbol fill="none" id="withdrawal" viewBox="0 0 15 17"> <path d="M13.903 10.8203H11.3882V12.614H12.2598C12.4445 12.614 12.5781 12.7646 12.5781 12.9323V14.542C12.5781 14.7267 12.4275 14.8603 12.2598 14.8603H2.3684C2.18372 14.8603 2.05013 14.7097 2.05013 14.542V12.9323C2.05013 12.7476 2.20076 12.614 2.3684 12.614H3.24006V10.8203H0.725281C0.490837 10.8203 0.306152 11.005 0.306152 11.2394V16.2519C0.306152 16.4863 0.490837 16.671 0.725281 16.671H13.8859C14.1204 16.671 14.3051 16.4863 14.3051 16.2519V11.2394C14.3221 11.0043 14.1374 10.8203 13.903 10.8203Z" fill="currentColor"/> <path d="M10.4816 6.71271C10.4816 6.24315 10.0959 5.85742 9.62633 5.85742H4.98322C4.51366 5.85742 4.12793 6.24315 4.12793 6.71271V13.9885H10.4653V6.71271H10.4816ZM7.68201 11.9433V12.4128C7.68201 12.4796 7.63158 12.5471 7.54776 12.5471H7.06184C6.99504 12.5471 6.92758 12.4967 6.92758 12.4128V11.9603C6.42463 11.9099 6.02253 11.5241 5.9721 11.0212C5.9721 10.9878 5.9721 10.9544 6.0055 10.9203C6.02253 10.8869 6.0723 10.8699 6.10636 10.8699H6.59228C6.65908 10.8699 6.7095 10.9033 6.7095 10.9708C6.7429 11.105 6.86013 11.2222 7.01141 11.2222H7.44757C7.69905 11.2222 7.9001 11.0376 7.93349 10.8201C7.95052 10.6859 7.9001 10.5687 7.81627 10.4678C7.73244 10.367 7.59819 10.3172 7.48097 10.3172H7.11227C6.77696 10.3172 6.45869 10.1666 6.22358 9.91509C5.98913 9.66361 5.88828 9.32831 5.92167 8.99301C5.9721 8.47302 6.39123 8.03753 6.92758 7.93667V7.46711C6.92758 7.40031 6.97801 7.33286 7.06183 7.33286H7.54776C7.61455 7.33286 7.68201 7.38328 7.68201 7.46711V7.91963C8.18496 7.97006 8.58706 8.3558 8.63749 8.85875C8.63749 8.89215 8.63749 8.92555 8.60409 8.9596C8.58706 8.993 8.53729 9.01003 8.50324 9.01003H8.01731C7.95052 9.01003 7.90009 8.97663 7.90009 8.90918C7.86669 8.77493 7.74946 8.6577 7.59818 8.6577H7.16202C6.91054 8.6577 6.70949 8.84239 6.6761 9.0598C6.65907 9.19405 6.7095 9.31127 6.79332 9.41213C6.87715 9.51299 7.0114 9.56276 7.12863 9.56276H7.4469C8.08411 9.56276 8.63749 10.0323 8.68725 10.6355C8.75536 11.2727 8.31922 11.8424 7.68201 11.9433Z" fill="currentColor"/> <path d="M7.4967 0.818054C7.41287 0.717202 7.24522 0.717202 7.1614 0.818054L5.6021 2.67932C5.48488 2.82995 5.58508 3.04802 5.76975 3.04802L6.62505 3.04802L6.62505 4.84173C6.62505 4.95895 6.7259 5.07617 6.85949 5.07617L7.78157 5.07617C7.91583 5.07617 8.01602 4.97532 8.01602 4.84173L8.01602 3.03092L8.87131 3.03092C9.05599 3.03092 9.15618 2.81284 9.03896 2.66222L7.4967 0.818054Z" fill="currentColor"/> </symbol>
</svg>
