<svg width="264" height="54" viewBox="0 0 264 54" fill="none" xmlns="http://www.w3.org/2000/svg">
<path d="M31.6993 23.2363C28.2464 35.0738 22.3896 47.4046 12.4011 47.4046C7.099 47.4046 2.47501 41.1776 2.47501 38.0949C2.47501 37.17 3.523 35.9986 5.00298 36.0603C5.86586 37.6016 7.46888 38.65 9.62697 38.7113C16.8407 38.773 22.081 18.6738 24.4856 6.65125C18.9984 7.32936 14.3127 8.74741 13.881 8.37753C12.8331 7.08286 15.4224 0.485789 19.4913 0.17741C27.5683 -0.377426 35.5835 0.485789 35.8303 1.16405C36.385 5.23316 32.7473 19.4754 31.6993 23.2363Z" fill="white"/>
<path d="M38.0691 12.6441C39.9435 11.8498 41.7618 11.4526 43.2953 11.4526C46.4766 11.4526 48.7491 13.0978 48.6922 16.5583C48.6353 22.9689 40.6252 32.6129 43.693 32.6129C49.8853 32.6129 56.4184 18.2035 57.2138 11.5662C61.8722 11.7364 65.6786 13.0978 66.076 14.9699C67.3828 20.5294 57.3841 33.6908 59.9409 40.1012C58.0658 40.8388 56.3051 41.2359 54.7143 41.2359C51.5327 41.2359 49.2605 39.5906 49.317 36.187C49.317 35.3927 49.4876 34.4849 49.7151 33.5206C46.4766 38.1156 42.9545 41.1791 39.3187 41.1791C35.0581 41.1791 32.2177 38.7398 32.2745 34.5985C32.3314 28.3581 40.6252 18.9978 38.0691 12.6441Z" fill="white"/>
<path d="M86.7808 19.508C85.0194 19.508 78.6 24.4435 75.7027 30.7973C74.1688 34.201 73.6008 37.7185 74.5668 40.101C72.6917 40.8385 70.931 41.2356 69.3402 41.2356C66.1586 41.2356 63.8861 39.5903 63.943 36.1867C63.9998 30.2867 71.9531 17.8629 71.8398 11.5659C76.4981 11.7361 80.2477 13.0975 80.7019 14.9697C80.9862 16.1609 80.7019 17.6927 80.1908 19.3946C83.3721 16.5581 90.5869 11.5659 95.1883 11.5659C97.1203 11.5659 98.5405 12.3034 98.9947 13.6648C100.756 19.1109 89.6212 33.7472 92.1776 40.101C90.3028 40.8952 88.4849 41.2924 86.951 41.2924C83.7697 41.2924 81.4972 39.6471 81.5541 36.1867C81.611 31.5348 84.9625 26.8828 87.1213 20.3023C87.2919 19.735 87.1213 19.508 86.7808 19.508Z" fill="white"/>
<path d="M132.864 14.9697C133.489 17.5225 130.535 25.6916 126.843 34.2578C122.184 44.9799 117.696 53.9999 107.584 53.9999C103.039 53.9999 99.0055 51.9574 97.3579 48.8942C95.9945 46.3413 96.9605 43.6749 97.6422 43.221C100.994 46.3981 103.607 47.0788 106.163 47.0788C113.151 47.0788 115.935 36.7539 118.208 31.2511C114.628 36.5839 110.311 41.0089 105.936 41.1221C98.9487 41.4056 95.8808 35.0521 98.0399 27.053C100.199 19.0541 107.811 11.6225 116.276 11.6225C119.685 11.6225 122.07 12.587 123.264 15.4234C123.775 13.9486 124.059 12.587 124.059 11.5659C128.66 11.7361 132.467 13.0975 132.864 14.9697ZM108.265 26.2589C107.3 29.7195 107.754 33.2934 110.311 33.2934C113.038 33.2934 117.469 27.5069 120.593 21.5504C121.843 18.9407 120.537 17.4091 117.355 17.4091C113.719 17.4657 109.629 21.4936 108.265 26.2589Z" fill="white"/>
<path d="M150.301 3.85054C150.471 15.1398 137.973 33.6904 140.53 40.1009C138.655 40.8384 136.894 41.2356 135.303 41.2356C132.122 41.2356 129.849 39.5902 129.906 36.1867C129.963 30.2867 140.757 12.7003 141.155 0.163086C145.813 0.333448 150.301 1.97839 150.301 3.85054Z" fill="white"/>
<path d="M170.991 30.5706C173.661 31.7619 167.696 41.0656 158.095 41.0656C147.87 41.5763 143.779 35.1092 145.938 27.0533C148.097 18.941 155.88 11.6229 166.106 11.6229C173.434 11.3393 177.524 16.5584 174.741 22.3448C172.07 27.9044 162.527 31.0812 155.993 30.7976C156.675 32.9533 158.607 34.2013 161.731 34.2013C165.765 34.1445 168.605 32.6129 170.991 30.5706ZM156.448 25.5783C160.141 25.1246 166.788 23.763 166.788 19.6785C166.788 18.0901 165.822 17.4094 164.231 17.4094C160.368 17.4661 157.641 22.515 156.448 25.5783Z" fill="white"/>
<path d="M193.287 3.85055C193.741 5.83608 192.435 9.63696 190.673 14.2321C193.059 12.6437 195.957 11.6225 199.308 11.6225C206.239 11.3389 209.08 17.8628 206.921 25.8617C204.762 33.8606 195.843 41.0652 185.56 41.0652H184.368C177.664 40.8952 174.71 36.8106 174.937 30.2867C174.994 24.3867 184.481 6.4034 184.311 0.106445C188.969 0.27663 192.889 1.97841 193.287 3.85055ZM195.843 27.3933C197.718 23.4223 199.025 17.4091 195.843 17.4091C192.605 17.4657 187.208 23.479 185.731 29.0385C185.333 30.9674 184.538 35.2788 187.492 35.2788C190.901 35.222 194.48 30.4001 195.843 27.3933Z" fill="#259F4F"/>
<path d="M233.79 30.5706C236.461 31.7619 230.496 41.0656 220.895 41.0656C210.669 41.5763 206.579 35.1092 208.737 27.0533C210.896 18.941 218.679 11.6229 228.905 11.6229C236.233 11.3393 240.324 16.5584 237.54 22.3448C234.87 27.9044 225.326 31.0812 218.793 30.7976C219.474 32.9533 221.406 34.2013 224.53 34.2013C228.564 34.1445 231.405 32.6129 233.79 30.5706ZM219.247 25.5783C222.94 25.1246 229.586 23.763 229.586 19.6785C229.586 18.0901 228.621 17.4094 227.03 17.4094C223.167 17.4661 220.44 22.515 219.247 25.5783Z" fill="#259F4F"/>
<path d="M245.179 18.5439C243.872 18.5439 242.395 18.6007 240.748 18.7709C239.782 17.6362 240.804 13.268 244.554 12.9845C245.52 12.9277 246.428 12.8709 247.224 12.8709C248.133 9.97769 248.758 6.8577 248.871 3.56738C253.53 3.73757 257.961 5.38273 258.018 7.25469C258.018 9.35378 257.677 11.3961 257.166 13.4382C258.529 13.4382 260.063 13.268 261.881 12.9845C263.074 14.8566 261.937 18.4873 259.097 18.7709C257.677 18.9411 256.37 18.9978 255.234 18.9978C252.791 24.8976 249.667 30.2303 250.008 34.5417C250.178 36.187 251.314 36.7542 252.621 36.7542C253.814 36.7542 255.007 36.3002 255.746 35.8466C256.029 35.7331 256.541 36.4138 255.575 38.1156C253.53 41.8031 247.678 42.9945 244.781 42.4273C241.713 41.8031 238.987 39.5341 239.043 35.2792C239.1 30.7408 242.452 25.1814 245.179 18.5439Z" fill="#259F4F"/>
</svg>
