<?xml version="1.0" encoding="UTF-8"?>
<svg id="Layer_1" data-name="Layer 1" xmlns="http://www.w3.org/2000/svg" width="545.74721mm" height="546.09999mm" xmlns:xlink="http://www.w3.org/1999/xlink" viewBox="0 0 1547 1548">
  <defs>
    <style>

      * {
        transform-box: fill-box;
        transform-origin: center;
      }

      .cls-1, .cls-2, .cls-3 {
        isolation: isolate;
      }

      .cls-1 {
        fill: url(#radial-gradient);
        opacity: .4;
        animation: rotate 3s linear infinite;
      }

      .cls-2 {
        fill: url(#radial-gradient-2);
        fill-rule: evenodd;
        opacity: .17;
        animation: rotate-anti 6s linear infinite;
      }

      .cls-3 {
        fill: url(#radial-gradient-3);
        fill-rule: evenodd;
        opacity: .2;
      }

      @keyframes rotate {
        0% {
          transform: rotate(0);
        }
        100% {
          transform: rotate(-360deg);
        }
      }

      @keyframes rotate-anti {
        0% {
          transform: rotate(0);
        }
        100% {
          transform: rotate(360deg);
        }
      }
    </style>
    <radialGradient id="radial-gradient" cx="629.01146" cy="938.19889" fx="629.01146" fy="938.19889" r="1.00057" gradientTransform="translate(-238734.06891 -1209685.16412) rotate(134.968) scale(1092.41006 -1092.41006)" gradientUnits="userSpaceOnUse">
      <stop offset="0" stop-color="#f7c95f"  stop-opacity="0.5"/>
      <stop offset=".5" stop-color="#f7c95f" stop-opacity="0"/>
    </radialGradient>
    <radialGradient id="radial-gradient-2" cx="628.71952" cy="938.16523" fx="628.71952" fy="938.16523" r="1.00061" gradientTransform="translate(-570810.80957 -966197.58459) rotate(115.55) scale(995.49501 -994.21999)" gradientUnits="userSpaceOnUse">
      <stop offset="0" stop-color="#f7c95f"/>
      <stop offset=".5" stop-color="#f7c95f" stop-opacity="0"/>
    </radialGradient>
    <radialGradient id="radial-gradient-3" cx="628.71952" cy="938.16523" fx="628.71952" fy="938.16523" r="1.00061" gradientTransform="translate(-570810.80957 -966197.58459) rotate(115.55) scale(995.49501 -994.21999)" gradientUnits="userSpaceOnUse">
      <stop offset=".35" stop-color="#f7c95f" stop-opacity="0.5"/>
      <stop offset=".5" stop-color="#f7c95f" stop-opacity="0"/>
    </radialGradient>
  </defs>
  <path class="cls-1" d="m773.98401,773.77399L724.46503.27441h99.039l-49.52002,773.49957ZM430.37,79.1279l-85.771,49.55209,429.38501,645.09399L430.37,79.1279ZM129.30701,344.11099l-49.5201,85.827,694.19711,343.836L129.30701,344.11099h0ZM.98438,724.22302v99.10297l772.99963-49.552L.98438,724.22302h0Zm78.80253,393.38696l49.5201,85.82996,644.677-429.66595L79.7869,1117.60999Zm264.8121,301.26001l85.771,49.55005,343.61401-694.64606-429.38501,645.09601Zm379.86603,128.40002h99.039l-49.52002-773.49603-49.51898,773.49603Zm393.13495-78.84998l85.77002-49.55005-429.38599-645.09601,343.61597,694.64606Zm301.06006-264.9801l49.52002-85.82996-694.19604-343.836,644.67603,429.66595Zm128.31995-380.11395v-99.10297l-772.99597,49.55096,772.99597,49.552Zm-78.79993-393.388l-49.52002-85.827-644.67603,429.66299,694.19604-343.836Zm-264.81006-301.258l-85.77002-49.55209-343.61597,694.64609,429.38599-645.09399h0Z"/>
  <path class="cls-2" d="m773.91602,774.21198L189.724,349.771,550.79102,87.4959l223.12701,686.7151-.00201.00098ZM997.06097,87.4508l-223.14197,686.75922.00201.00195,584.15894-424.41397L997.06097,87.4508Zm498.95905,686.76221h-722.09802l-.00098.00201,584.15894,424.41498,137.94006-424.41699Zm-722.10004.00397l223.14099,686.763-446.271-.04993,223.12805-686.71307h.00195Zm-584.19698,424.44305l584.19301-424.44403-.00104-.00201H51.8605l137.86251,424.44604Z"/>
  <circle class="cls-3" cx="773.5" cy="774" r="694.8721"/>
</svg>